<svg width="719" height="332" viewBox="0 0 719 332" fill="none" xmlns="http://www.w3.org/2000/svg">
<path d="M718.312 -50.3561C714.32 -44.8531 709.951 -39.6251 705.262 -34.7031C695.628 -24.5921 684.658 -15.8031 672.883 -8.30908C660.952 -0.715082 648.207 5.56092 635.048 10.7209C621.66 15.9709 607.833 20.0749 593.808 23.2309C578.902 26.5859 563.781 28.8069 548.579 30.2839C530.513 32.0399 512.365 32.7949 494.224 33.2009C476.05 33.6069 457.87 33.6629 439.694 34.0199C421.535 34.3759 403.37 35.0309 385.274 36.6379C371.426 37.8679 357.635 39.7049 343.948 42.1439C330.568 44.5289 317.29 47.4839 304.157 50.9819C290.931 54.5049 277.852 58.5789 264.96 63.1769C252.108 67.7609 239.442 72.8649 226.999 78.4629C214.547 84.0649 202.318 90.1609 190.345 96.7249C178.323 103.316 166.56 110.38 155.09 117.89C143.7 125.348 132.598 133.247 121.819 141.562C110.963 149.936 100.434 158.734 90.265 167.931C80.138 177.09 70.37 186.645 60.995 196.572C51.626 206.492 42.65 216.784 34.105 227.422C25.564 238.055 17.453 249.033 9.81002 260.329C2.16602 271.625 -5.00798 283.24 -11.676 295.139C-18.376 307.096 -24.563 319.34 -30.199 331.834V-50.3561H718.312Z" fill="url(#paint0_linear_89_130)"/>
<path d="M-30.31 137.592L-31.204 137.144C-1.95198 78.8279 51.147 38.3209 107.371 31.4319C130.606 28.5829 154.312 31.2339 177.237 33.7959C188.034 35.0029 199.199 36.251 210.174 36.909C281.646 41.194 353.287 20.8929 411.886 -20.2591C425.57 -29.8701 438.701 -40.7301 451.4 -51.2331C468.049 -65.0031 485.265 -79.24 503.927 -90.826C521.566 -101.777 540.239 -109.551 557.926 -113.307C578.459 -117.668 597.564 -116.771 614.706 -110.641L614.37 -109.7C595.849 -116.32 556.942 -122.562 504.454 -89.976C485.85 -78.426 468.66 -64.2101 452.037 -50.4621C439.323 -39.9471 426.176 -29.0741 412.458 -19.4401C353.675 21.8419 281.808 42.2059 210.112 37.9079C199.111 37.2479 187.933 35.999 177.124 34.791C154.256 32.235 130.609 29.5939 107.491 32.4249C51.597 39.2729 -1.20598 79.5709 -30.31 137.592Z" fill="url(#paint1_linear_89_130)"/>
<path d="M-30.99 140.049L-31.886 139.603C-8.07399 91.8139 33.585 54.8269 79.551 40.6629C87.722 38.1449 96.084 36.3229 104.404 35.2459C127.417 32.2649 150.923 34.6749 173.656 37.0039C184.112 38.0749 194.925 39.1829 205.555 39.7539C214.035 40.2089 222.664 40.3219 231.201 40.0909C293.284 38.4109 354.758 18.3939 404.298 -16.2741C418.733 -26.3711 432.486 -37.8981 445.787 -49.0461C461.29 -62.0391 477.321 -75.4751 494.445 -86.6461C511.472 -97.7531 529.39 -105.852 546.261 -110.07C565.824 -114.96 583.928 -114.789 600.075 -109.56L599.766 -108.609C582.34 -114.252 545.556 -118.794 494.992 -85.8081C477.918 -74.6701 461.91 -61.2541 446.43 -48.2801C433.113 -37.1191 419.341 -25.5771 404.871 -15.4551C355.172 19.3239 293.504 39.4049 231.228 41.0899C222.663 41.3199 214.008 41.2069 205.501 40.7519C194.846 40.1799 184.022 39.0709 173.553 37.9979C150.877 35.6739 127.427 33.2719 104.531 36.2369C96.268 37.3059 87.962 39.1169 79.845 41.6179C34.136 55.7029 -7.29799 92.4989 -30.99 140.049Z" fill="url(#paint2_linear_89_130)"/>
<path d="M-31.67 142.506L-32.566 142.063C-9.37098 95.187 31.594 58.725 77.013 44.524C85.038 42.015 93.256 40.176 101.437 39.059C124.238 35.943 147.56 38.109 170.113 40.203C180.217 41.142 190.665 42.112 200.938 42.597C209.292 42.992 217.786 43.064 226.179 42.81C287.849 40.953 348.413 21.385 396.712 -12.29C411.956 -22.911 426.367 -35.172 440.302 -47.03C454.605 -59.199 469.394 -71.782 484.962 -82.465C533.954 -116.076 568.943 -113.19 585.44 -108.479L585.165 -107.517C568.838 -112.181 534.182 -115.019 485.528 -81.641C470.002 -70.988 455.232 -58.421 440.95 -46.268C426.996 -34.395 412.566 -22.118 397.283 -11.47C348.826 22.315 288.071 41.947 226.208 43.81C217.787 44.063 209.269 43.992 200.89 43.596C190.594 43.11 180.134 42.139 170.019 41.199C147.522 39.11 124.261 36.949 101.572 40.05C93.445 41.16 85.282 42.987 77.311 45.478C32.146 59.598 -8.59398 95.871 -31.67 142.506Z" fill="url(#paint3_linear_89_130)"/>
<path d="M-32.351 144.963L-33.248 144.522C-10.67 98.563 29.6 62.624 74.473 48.385C82.353 45.885 90.427 44.03 98.469 42.872C121.073 39.615 144.219 41.538 166.603 43.395C176.343 44.204 186.415 45.04 196.319 45.44C204.548 45.773 212.905 45.802 221.156 45.528C282.424 43.49 342.076 24.371 389.125 -8.30602C405.245 -19.491 420.345 -32.562 434.948 -45.203C447.993 -56.495 461.481 -68.171 475.479 -78.284C495.686 -92.88 534.939 -116.074 570.801 -107.398L570.567 -106.426C535.093 -115.003 496.132 -91.969 476.065 -77.473C462.102 -67.386 448.63 -55.725 435.603 -44.447C420.979 -31.789 405.858 -18.699 389.695 -7.48502C342.49 25.301 282.647 44.483 221.189 46.527C212.913 46.802 204.532 46.773 196.279 46.439C186.353 46.038 176.27 45.2 166.52 44.391C144.191 42.537 121.102 40.62 98.611 43.861C90.622 45.011 82.603 46.854 74.775 49.337C30.157 63.497 -9.88999 99.244 -32.351 144.963Z" fill="url(#paint4_linear_89_130)"/>
<path d="M-33.031 147.42L-33.929 146.981C-11.966 101.94 27.61 66.5249 71.934 52.2459C79.672 49.7539 87.601 47.8829 95.502 46.6849C117.917 43.2819 140.904 44.9559 163.135 46.5769C172.498 47.2589 182.179 47.9649 191.702 48.2839C199.807 48.5549 208.028 48.5419 216.135 48.2469C277.894 45.9909 335.091 27.8129 381.54 -4.32107C398.613 -16.1171 414.44 -30.0901 429.745 -43.6021C441.468 -53.9521 453.59 -64.6541 465.998 -74.1021C485.389 -88.8661 522.89 -112.682 556.162 -106.316L555.974 -105.334C523.076 -111.628 485.861 -87.9691 466.603 -73.3061C454.224 -63.8801 442.116 -53.1901 430.407 -42.8521C415.079 -29.3201 399.23 -15.3271 382.108 -3.49807C335.501 28.7449 278.121 46.9839 216.17 49.2469C208.041 49.5449 199.798 49.5569 191.668 49.2839C182.125 48.9649 172.434 48.2579 163.061 47.5759C140.887 45.9589 117.957 44.2889 95.651 47.6749C87.803 48.8649 79.926 50.7239 72.239 53.1989C28.169 67.3959 -11.185 102.619 -33.031 147.42Z" fill="url(#paint5_linear_89_130)"/>
<path d="M-33.711 149.877L-34.611 149.441C-13.262 105.319 25.618 70.429 69.394 56.108C76.984 53.626 84.77 51.739 92.534 50.499C114.78 46.945 137.623 48.371 159.715 49.749C168.685 50.309 177.96 50.888 187.084 51.128C195.069 51.339 203.154 51.284 211.112 50.967C272.485 48.519 328.794 30.778 373.953 -0.336037C392.075 -12.802 408.67 -27.788 424.719 -42.279C435.046 -51.605 445.725 -61.247 456.513 -69.918C475.095 -84.849 510.847 -109.287 541.515 -105.233L541.384 -104.242C511.069 -108.252 475.595 -83.97 457.14 -69.139C446.374 -60.486 435.706 -50.853 425.389 -41.537C409.316 -27.023 392.696 -12.015 374.52 0.487961C329.205 31.709 272.713 49.51 211.151 51.966C203.173 52.285 195.066 52.339 187.057 52.128C177.915 51.887 168.631 51.308 159.653 50.747C137.614 49.371 114.827 47.949 92.692 51.487C84.98 52.718 77.245 54.593 69.705 57.059C26.182 71.297 -12.479 105.995 -33.711 149.877Z" fill="url(#paint6_linear_89_130)"/>
<path d="M-34.391 152.333L-35.292 151.9C-14.558 108.7 23.628 74.3339 66.855 59.9689C74.299 57.4959 81.94 55.5929 89.567 54.3119C111.661 50.5979 134.382 51.7719 156.355 52.9069C164.912 53.3489 173.761 53.8059 182.466 53.9709C190.326 54.1209 198.274 54.0229 206.09 53.6839C267.089 51.0379 322.512 33.7349 366.368 3.64594C385.65 -9.55906 403.058 -25.6921 419.893 -41.2931C428.744 -49.4951 437.896 -57.9771 447.031 -65.7371C464.807 -80.8351 498.796 -105.907 526.864 -104.152L526.801 -103.154C506.288 -104.429 478.174 -90.8751 447.678 -64.9751C438.56 -57.2281 429.415 -48.7541 420.573 -40.5591C403.71 -24.9321 386.274 -8.77306 366.932 4.47294C322.922 34.6679 267.318 52.0309 206.132 54.6849C198.296 55.0249 190.327 55.1189 182.446 54.9729C173.724 54.8079 164.867 54.3499 156.302 53.9079C134.382 52.7749 111.717 51.6039 89.732 55.3009C82.156 56.5729 74.565 58.4639 67.169 60.9209C24.195 75.1999 -13.771 109.373 -34.391 152.333Z" fill="url(#paint7_linear_89_130)"/>
<path d="M-35.071 154.79L-35.974 154.36C-15.852 112.085 21.639 78.2429 64.316 63.8309C71.618 61.3659 79.116 59.4469 86.6 58.1259C108.56 54.2439 131.183 55.1629 153.058 56.0509C161.182 56.3809 169.582 56.7219 177.848 56.8149C185.587 56.9009 193.399 56.7639 201.067 56.4029C261.706 53.5559 316.242 36.6899 358.78 7.63194C379.359 -6.39606 397.625 -23.8411 415.29 -40.7121C422.574 -47.6691 430.106 -54.8621 437.547 -61.5521C454.528 -76.8191 486.809 -102.514 512.202 -103.065L512.223 -102.065C487.153 -101.521 455.093 -75.9831 438.214 -60.8081C430.785 -54.1281 423.259 -46.9401 415.98 -39.9881C398.287 -23.0901 379.99 -5.61606 359.344 8.45794C316.654 37.6209 261.938 54.5459 201.114 57.4029C193.428 57.7639 185.596 57.9019 177.837 57.8159C169.557 57.7229 161.149 57.3809 153.018 57.0509C131.194 56.1649 108.628 55.2489 86.774 59.1109C79.339 60.4239 71.891 62.3299 64.637 64.7789C22.21 79.1059 -15.064 112.755 -35.071 154.79Z" fill="url(#paint8_linear_89_130)"/>
<path d="M-35.751 157.248L-36.655 156.821C-17.145 115.472 19.652 82.1539 61.777 67.6939C68.93 65.2399 76.283 63.3039 83.631 61.9409C105.485 57.8829 128.035 58.5409 149.842 59.1789C157.506 59.4029 165.43 59.6349 173.228 59.6599C180.857 59.6849 188.529 59.5049 196.044 59.1229C256.336 56.0659 309.986 39.6389 351.194 11.6159C373.24 -3.3411 392.415 -22.3091 410.959 -40.6521C416.571 -46.2041 422.375 -51.9451 428.062 -57.3681C463.915 -91.5441 485.629 -100.489 497.533 -101.975L497.656 -100.983C485.902 -99.5161 464.407 -90.6321 428.752 -56.6451C423.072 -51.2281 417.271 -45.4911 411.662 -39.9421C393.086 -21.5671 373.877 -2.5661 351.756 12.4419C310.397 40.5669 256.57 57.0539 196.095 60.1209C188.563 60.5029 180.869 60.6869 173.225 60.6589C165.414 60.6339 157.483 60.4019 149.812 60.1769C128.057 59.5409 105.561 58.8829 83.813 62.9229C76.512 64.2769 69.207 66.1999 62.1 68.6389C20.226 83.0139 -16.354 116.138 -35.751 157.248Z" fill="url(#paint9_linear_89_130)"/>
<path d="M-36.431 159.704L-37.337 159.28C-18.438 118.86 17.664 86.0669 59.237 71.5549C66.243 69.1099 73.452 67.1589 80.663 65.7539C102.438 61.5069 124.949 61.9019 146.717 62.2839C153.891 62.4099 161.307 62.5419 168.61 62.5039C176.117 62.4669 183.658 62.2439 191.022 61.8429C251.84 58.5229 303.178 42.9649 343.609 15.6009C367.337 -0.419079 387.469 -21.1771 406.94 -41.2511C410.766 -45.1951 414.721 -49.2741 418.581 -53.1831C437.439 -72.2821 463.899 -96.0591 482.855 -100.877L483.101 -99.9081C464.369 -95.1461 438.062 -71.4891 419.291 -52.4801C415.436 -48.5751 411.481 -44.4981 407.657 -40.5551C388.152 -20.4441 367.982 0.350925 344.169 16.4289C303.586 43.8949 252.079 59.5099 191.077 62.8409C183.697 63.2429 176.139 63.4659 168.616 63.5039C161.302 63.5419 153.881 63.4099 146.701 63.2839C124.984 62.9019 102.527 62.5079 80.856 66.7359C73.692 68.1319 66.529 70.0699 59.567 72.4999C18.243 86.9239 -17.644 119.523 -36.431 159.704Z" fill="url(#paint10_linear_89_130)"/>
<path d="M-37.112 162.161L-38.019 161.741C-19.729 122.253 15.678 89.9819 56.696 75.4169C63.559 72.9809 70.624 71.0139 77.694 69.5679C99.427 65.1179 121.937 65.2389 143.706 65.3639C150.354 65.4019 157.227 65.4389 163.99 65.3469C171.386 65.2479 178.79 64.9829 185.998 64.5609C246.499 61.0169 296.974 45.8839 336.021 19.5849C361.714 2.32491 382.851 -20.5751 403.293 -42.7211C405.238 -44.8281 407.171 -46.9231 409.096 -48.9981C435.246 -77.1921 455.12 -94.2731 468.165 -99.7671L468.554 -98.8451C455.641 -93.4071 435.883 -76.4071 409.828 -48.3181C407.905 -46.2431 405.972 -44.1491 404.027 -42.0431C383.547 -19.8541 362.37 3.08991 336.58 20.4149C297.383 46.8149 246.739 62.0039 186.058 65.5599C178.835 65.9829 171.415 66.2479 164.005 66.3479C157.231 66.4399 150.353 66.4019 143.702 66.3649C121.982 66.2429 99.527 66.1189 77.895 70.5489C70.87 71.9859 63.851 73.9409 57.031 76.3609C16.261 90.8359 -18.933 122.912 -37.112 162.161Z" fill="url(#paint11_linear_89_130)"/>
<path d="M-37.792 164.618L-38.701 164.201C-21.02 125.647 13.693 93.901 54.156 79.28C60.867 76.856 67.787 74.872 74.725 73.383C96.46 68.713 119.019 68.561 140.836 68.414C146.91 68.373 153.19 68.331 159.371 68.192C166.665 68.029 173.934 67.722 180.975 67.28C242.024 63.449 290.259 49.151 328.435 23.569C356.478 4.82796 379.393 -21.544 399.611 -44.811C425.02 -74.042 442.637 -91.65 453.469 -98.639L454.012 -97.799C443.26 -90.861 425.712 -73.314 400.365 -44.155C380.107 -20.84 357.145 5.58496 328.992 24.4C290.666 50.083 242.269 64.436 181.038 68.278C173.984 68.721 166.702 69.028 159.394 69.192C153.205 69.331 146.92 69.373 140.843 69.414C119.077 69.56 96.57 69.711 74.935 74.36C68.041 75.839 61.164 77.811 54.496 80.22C14.28 94.752 -20.22 126.302 -37.792 164.618Z" fill="url(#paint12_linear_89_130)"/>
<path d="M-38.472 167.074L-39.382 166.661C-22.308 129.044 11.71 97.822 51.617 83.141C58.18 80.727 64.956 78.727 71.758 77.196C93.548 72.284 116.216 71.847 138.138 71.424C143.583 71.319 149.213 71.2109 154.754 71.0359C161.961 70.8079 169.093 70.46 175.954 69.999C236.722 65.923 284.118 52.039 320.85 27.553C348.74 9.01295 371.233 -17.36 390.128 -40.624C410.632 -65.86 428.445 -87.558 438.777 -97.493L439.47 -96.772C429.179 -86.876 411.387 -65.203 390.904 -39.993C371.963 -16.672 349.409 9.76896 321.404 28.386C284.523 52.97 236.968 66.9089 176.021 70.9969C169.148 71.4579 162.004 71.807 154.785 72.035C149.238 72.21 143.605 72.319 138.157 72.424C116.285 72.846 93.668 73.282 71.977 78.172C65.218 79.693 58.484 81.681 51.962 84.08C12.301 98.669 -21.506 129.695 -38.472 167.074Z" fill="url(#paint13_linear_89_130)"/>
<path d="M-39.151 169.53L-40.063 169.121C-23.595 132.443 9.72901 101.745 49.078 87.003C55.495 84.6 62.127 82.584 68.789 81.01C90.703 75.829 113.557 75.096 135.658 74.388C140.479 74.234 145.306 74.079 150.134 73.88C157.248 73.587 164.245 73.196 170.93 72.718C232.279 68.327 277.507 55.242 313.263 31.537C341.364 12.959 363.094 -13.25 380.644 -36.437C401.712 -64.263 419.227 -89.316 424.093 -96.332L424.915 -95.762C420.046 -88.742 402.522 -63.675 381.44 -35.834C363.839 -12.58 342.04 13.709 313.814 32.37C277.908 56.174 232.527 69.311 171 73.714C164.305 74.193 157.297 74.585 150.173 74.878C145.342 75.077 140.512 75.232 135.688 75.386C113.637 76.093 90.834 76.824 69.018 81.982C62.396 83.545 55.805 85.549 49.427 87.938C10.324 102.59 -22.79 133.091 -39.151 169.53Z" fill="url(#paint14_linear_89_130)"/>
<path d="M-39.832 171.986L-40.746 171.581C-24.881 135.847 7.74802 105.672 46.537 90.865C52.802 88.474 59.29 86.442 65.819 84.825C87.944 79.339 111.081 78.299 133.455 77.292C137.472 77.111 141.492 76.93 145.514 76.725C152.586 76.364 159.447 75.931 165.907 75.438C246.196 69.317 284.129 49.727 305.677 35.523C328.307 20.646 349.115 -0.88801 371.16 -32.247C388.493 -56.893 403.158 -81 409.429 -95.161L410.343 -94.756C404.047 -80.54 389.346 -56.367 371.978 -31.672C349.857 -0.207008 328.964 21.41 306.226 36.358C284.585 50.622 246.502 70.296 165.982 76.435C159.514 76.928 152.644 77.362 145.564 77.723C141.541 77.929 137.518 78.109 133.5 78.29C111.174 79.294 88.088 80.333 66.059 85.795C59.569 87.402 53.121 89.422 46.893 91.799C8.34803 106.514 -24.072 136.49 -39.832 171.986Z" fill="url(#paint15_linear_89_130)"/>
<path d="M-40.511 174.443L-41.427 174.042C-25.936 138.734 5.19899 109.826 43.997 94.728C50.113 92.349 56.456 90.301 62.851 88.64C85.301 82.803 108.848 81.438 131.621 80.118C134.711 79.939 137.802 79.7599 140.895 79.5699C148.048 79.1309 154.586 78.669 160.884 78.158C240.007 71.741 275.773 54.1319 298.092 39.5079C321.075 24.4869 341.874 2.38695 361.678 -28.055C378.503 -53.91 390.88 -78.56 394.784 -93.993L395.754 -93.748C391.823 -78.214 379.398 -53.452 362.516 -27.51C342.635 3.05095 321.741 25.246 298.64 40.345C255.961 68.309 202.645 75.7749 160.965 79.1559C154.66 79.6669 148.115 80.129 140.956 80.569C137.862 80.759 134.769 80.939 131.679 81.118C108.955 82.435 85.458 83.798 63.103 89.61C56.745 91.261 50.44 93.297 44.36 95.662C5.807 110.662 -25.127 139.377 -40.511 174.443Z" fill="url(#paint16_linear_89_130)"/>
<path d="M-41.191 176.899L-42.109 176.502C-27.227 142.158 3.231 113.76 41.456 98.589C47.419 96.223 53.618 94.159 59.881 92.453C82.816 86.202 106.953 84.492 130.295 82.839L136.274 82.413C143.523 81.89 149.93 81.387 155.861 80.876C234.296 74.118 267.94 58.185 290.506 43.491C313.671 28.442 334.427 5.77998 352.196 -23.867C368.172 -50.515 378.363 -75.654 380.154 -92.838L381.148 -92.734C379.342 -75.41 369.102 -50.121 353.053 -23.353C335.205 6.42499 314.344 29.197 291.051 44.329C250.653 70.635 200.085 78.069 155.947 81.872C150.012 82.384 143.601 82.887 136.347 83.41L130.367 83.836C107.073 85.486 82.985 87.192 60.145 93.418C53.918 95.114 47.755 97.166 41.827 99.518C3.84399 114.592 -26.414 142.796 -41.191 176.899Z" fill="url(#paint17_linear_89_130)"/>
<path d="M-41.871 179.355L-42.791 178.961C-28.516 145.585 1.26498 117.697 38.916 102.451C44.726 100.099 50.78 98.0179 56.911 96.2669C80.547 89.5129 105.517 87.4329 129.664 85.4219L131.654 85.2559C137.304 84.7839 144.002 84.2179 150.837 83.5929C193.801 79.6639 242.983 73.3089 282.92 47.4729C306.134 32.4859 326.81 9.26489 342.713 -19.6781C357.507 -46.5961 365.824 -72.8441 365.533 -91.6931L366.533 -91.7091C366.827 -72.6921 358.465 -46.2621 343.589 -19.1971C327.607 9.89089 306.816 33.2359 283.463 48.3129C243.336 74.2729 194.011 80.6499 150.928 84.5889C144.09 85.2139 137.39 85.7799 131.738 86.2519L129.748 86.4179C105.648 88.4249 80.728 90.5009 57.186 97.2289C51.089 98.9699 45.069 101.039 39.291 103.377C1.88298 118.527 -27.7 146.219 -41.871 179.355Z" fill="url(#paint18_linear_89_130)"/>
<path d="M-42.551 181.811L-43.473 181.422C-29.803 149.016 -0.699024 121.64 36.375 106.313C42.029 103.976 47.939 101.879 53.941 100.082C76.721 93.2569 99.552 90.7149 127.033 88.1009L133.016 87.5339C137.283 87.1309 141.55 86.7269 145.812 86.3139C190.669 81.9649 237.619 75.6919 275.332 51.4589C305.012 32.4199 323.199 4.54593 333.229 -15.4861C346.813 -42.6081 353.26 -69.9691 350.917 -90.5561L351.91 -90.6691C354.276 -69.8951 347.793 -42.3281 334.124 -15.0371C324.038 5.10593 305.744 33.1399 275.874 52.2999C237.973 76.6539 190.889 82.9489 145.91 87.3099C141.647 87.7229 137.378 88.1269 133.111 88.5309L127.128 89.0979C99.703 91.7069 76.921 94.2429 54.228 101.042C48.258 102.83 42.38 104.915 36.757 107.239C-0.0760269 122.465 -28.982 149.646 -42.551 181.811Z" fill="url(#paint19_linear_89_130)"/>
<path d="M-43.23 184.268L-44.154 183.884C-31.086 152.453 -2.65999 125.588 33.835 110.176C39.335 107.854 45.101 105.741 50.971 103.898C74.54 96.4929 99.187 93.4389 122.413 90.9459C128.069 90.3389 133.732 89.7579 139.388 89.1769L140.789 89.0329C180.247 84.9809 229.355 79.9379 267.747 55.4429C291.099 40.5629 310.988 16.8619 323.748 -11.2931C336.3 -38.9801 340.76 -66.7291 336.306 -89.4301L337.287 -89.6221C341.78 -66.7191 337.296 -38.7551 324.66 -10.8801C311.82 17.4499 291.799 41.3029 268.285 56.2859C229.693 80.9089 180.455 85.9649 140.892 90.0279L139.491 90.1719C133.837 90.7529 128.176 91.3339 122.52 91.9409C99.344 94.4289 74.752 97.4759 51.271 104.853C45.431 106.687 39.695 108.788 34.224 111.098C-2.03099 126.407 -30.263 153.077 -43.23 184.268Z" fill="url(#paint20_linear_89_130)"/>
<path d="M-43.911 186.723L-44.837 186.344C-32.368 155.892 -4.61903 129.537 31.293 114.038C36.634 111.733 42.255 109.605 48 107.713C71.252 100.052 95.285 96.4939 117.791 93.7909C124.301 93.0089 130.816 92.2899 135.765 91.7519L138.026 91.5059C180.438 86.9019 224.294 82.1399 260.162 59.4259C283.645 44.5649 302.86 20.9379 314.268 -7.10209C325.589 -34.9241 328.226 -63.7651 321.694 -88.3121L322.661 -88.5691C329.248 -63.8141 326.597 -34.7481 315.194 -6.72509C303.708 21.5069 284.354 45.2999 260.697 60.2709C224.634 83.1099 180.66 87.8839 138.135 92.5009L135.875 92.7469C130.929 93.2849 124.418 94.0019 117.912 94.7849C95.457 97.4819 71.483 101.03 48.314 108.664C42.598 110.547 37.005 112.664 31.691 114.957C-3.98404 130.353 -31.54 156.511 -43.911 186.723Z" fill="url(#paint21_linear_89_130)"/>
<path d="M-44.59 189.179L-45.518 188.805C-33.47 158.902 -7.093 133.721 28.753 117.901C61.836 103.299 98.745 98.151 130.742 94.471C133.367 94.169 136.001 93.871 138.639 93.573C178.165 89.105 219.037 84.484 252.576 63.41C276.122 48.615 294.659 25.078 304.773 -2.867C314.887 -30.812 315.708 -60.761 307.085 -87.199L308.036 -87.51C316.728 -60.862 315.903 -30.681 305.714 -2.52801C295.524 25.625 276.842 49.343 253.109 64.256C219.377 85.451 178.39 90.085 138.752 94.566C136.114 94.864 133.481 95.162 130.856 95.463C98.932 99.134 62.112 104.269 29.156 118.815C-6.45 134.531 -32.641 159.519 -44.59 189.179Z" fill="url(#paint22_linear_89_130)"/>
<defs>
<linearGradient id="paint0_linear_89_130" x1="-30.1978" y1="140.74" x2="718.312" y2="140.74" gradientUnits="userSpaceOnUse">
<stop stop-color="#BEE7F0"/>
<stop offset="0.9991" stop-color="#BDE7FF"/>
</linearGradient>
<linearGradient id="paint1_linear_89_130" x1="-43.8364" y1="70.0247" x2="625.018" y2="-55.8585" gradientUnits="userSpaceOnUse">
<stop stop-color="#B1EBF2"/>
<stop offset="1" stop-color="#00B5FF"/>
</linearGradient>
<linearGradient id="paint2_linear_89_130" x1="-44.6527" y1="71.7679" x2="610.979" y2="-51.6267" gradientUnits="userSpaceOnUse">
<stop stop-color="#B1EBF2"/>
<stop offset="1" stop-color="#00B5FF"/>
</linearGradient>
<linearGradient id="paint3_linear_89_130" x1="-45.4868" y1="73.4154" x2="596.919" y2="-47.49" gradientUnits="userSpaceOnUse">
<stop stop-color="#B1EBF2"/>
<stop offset="1" stop-color="#00B5FF"/>
</linearGradient>
<linearGradient id="paint4_linear_89_130" x1="-46.3401" y1="74.9601" x2="582.836" y2="-43.4554" gradientUnits="userSpaceOnUse">
<stop stop-color="#B1EBF2"/>
<stop offset="1" stop-color="#00B5FF"/>
</linearGradient>
<linearGradient id="paint5_linear_89_130" x1="-47.2114" y1="76.4115" x2="568.734" y2="-39.5139" gradientUnits="userSpaceOnUse">
<stop stop-color="#B1EBF2"/>
<stop offset="1" stop-color="#00B5FF"/>
</linearGradient>
<linearGradient id="paint6_linear_89_130" x1="-48.1078" y1="77.7306" x2="554.601" y2="-35.7036" gradientUnits="userSpaceOnUse">
<stop stop-color="#B1EBF2"/>
<stop offset="1" stop-color="#00B5FF"/>
</linearGradient>
<linearGradient id="paint7_linear_89_130" x1="-49.0333" y1="78.8921" x2="540.432" y2="-32.0495" gradientUnits="userSpaceOnUse">
<stop stop-color="#B1EBF2"/>
<stop offset="1" stop-color="#00B5FF"/>
</linearGradient>
<linearGradient id="paint8_linear_89_130" x1="-49.9927" y1="79.8783" x2="526.223" y2="-28.5696" gradientUnits="userSpaceOnUse">
<stop stop-color="#B1EBF2"/>
<stop offset="1" stop-color="#00B5FF"/>
</linearGradient>
<linearGradient id="paint9_linear_89_130" x1="-50.9911" y1="80.6529" x2="511.964" y2="-25.2994" gradientUnits="userSpaceOnUse">
<stop stop-color="#B1EBF2"/>
<stop offset="1" stop-color="#00B5FF"/>
</linearGradient>
<linearGradient id="paint10_linear_89_130" x1="-52.0296" y1="81.216" x2="497.715" y2="-22.25" gradientUnits="userSpaceOnUse">
<stop stop-color="#B1EBF2"/>
<stop offset="1" stop-color="#00B5FF"/>
</linearGradient>
<linearGradient id="paint11_linear_89_130" x1="-53.0739" y1="81.7497" x2="483.535" y2="-19.244" gradientUnits="userSpaceOnUse">
<stop stop-color="#B1EBF2"/>
<stop offset="1" stop-color="#00B5FF"/>
</linearGradient>
<linearGradient id="paint12_linear_89_130" x1="-54.1166" y1="82.2915" x2="469.364" y2="-16.2314" gradientUnits="userSpaceOnUse">
<stop stop-color="#B1EBF2"/>
<stop offset="1" stop-color="#00B5FF"/>
</linearGradient>
<linearGradient id="paint13_linear_89_130" x1="-55.1571" y1="82.8416" x2="455.196" y2="-13.2107" gradientUnits="userSpaceOnUse">
<stop stop-color="#B1EBF2"/>
<stop offset="1" stop-color="#00B5FF"/>
</linearGradient>
<linearGradient id="paint14_linear_89_130" x1="-56.1967" y1="83.401" x2="441.023" y2="-10.1794" gradientUnits="userSpaceOnUse">
<stop stop-color="#B1EBF2"/>
<stop offset="1" stop-color="#00B5FF"/>
</linearGradient>
<linearGradient id="paint15_linear_89_130" x1="-57.2356" y1="83.965" x2="426.834" y2="-7.1403" gradientUnits="userSpaceOnUse">
<stop stop-color="#B1EBF2"/>
<stop offset="1" stop-color="#00B5FF"/>
</linearGradient>
<linearGradient id="paint16_linear_89_130" x1="-58.2739" y1="84.5298" x2="412.627" y2="-4.09727" gradientUnits="userSpaceOnUse">
<stop stop-color="#B1EBF2"/>
<stop offset="1" stop-color="#00B5FF"/>
</linearGradient>
<linearGradient id="paint17_linear_89_130" x1="-59.313" y1="85.0915" x2="398.403" y2="-1.05392" gradientUnits="userSpaceOnUse">
<stop stop-color="#B1EBF2"/>
<stop offset="1" stop-color="#00B5FF"/>
</linearGradient>
<linearGradient id="paint18_linear_89_130" x1="-60.3532" y1="85.6486" x2="384.167" y2="1.98669" gradientUnits="userSpaceOnUse">
<stop stop-color="#B1EBF2"/>
<stop offset="1" stop-color="#00B5FF"/>
</linearGradient>
<linearGradient id="paint19_linear_89_130" x1="-61.3942" y1="86.2009" x2="369.922" y2="5.02415" gradientUnits="userSpaceOnUse">
<stop stop-color="#B1EBF2"/>
<stop offset="1" stop-color="#00B5FF"/>
</linearGradient>
<linearGradient id="paint20_linear_89_130" x1="-62.4364" y1="86.7455" x2="355.673" y2="8.05415" gradientUnits="userSpaceOnUse">
<stop stop-color="#B1EBF2"/>
<stop offset="1" stop-color="#00B5FF"/>
</linearGradient>
<linearGradient id="paint21_linear_89_130" x1="-63.4852" y1="87.2574" x2="341.681" y2="11.0022" gradientUnits="userSpaceOnUse">
<stop stop-color="#B1EBF2"/>
<stop offset="1" stop-color="#00B5FF"/>
</linearGradient>
<linearGradient id="paint22_linear_89_130" x1="-64.5332" y1="87.7723" x2="328.12" y2="13.8722" gradientUnits="userSpaceOnUse">
<stop stop-color="#B1EBF2"/>
<stop offset="1" stop-color="#00B5FF"/>
</linearGradient>
</defs>
</svg>
