<svg width="24" height="24" viewBox="0 0 24 24" fill="none" xmlns="http://www.w3.org/2000/svg">
<g id="Iconly/Light-Outline/Calling">
<g id="Calling">
<g id="Group 3">
<mask id="mask0_21_83" style="mask-type:luminance" maskUnits="userSpaceOnUse" x="14" y="2" width="9" height="9">
<path id="Clip 2" fill-rule="evenodd" clip-rule="evenodd" d="M14.354 2.00031H22.893V10.5331H14.354V2.00031Z" fill="white"/>
</mask>
<g mask="url(#mask0_21_83)">
<path id="Fill 1" fill-rule="evenodd" clip-rule="evenodd" d="M22.1427 10.5331C21.7657 10.5331 21.4417 10.2501 21.3987 9.86712C21.0197 6.49112 18.3977 3.87112 15.0207 3.49612C14.6097 3.45012 14.3127 3.08012 14.3587 2.66812C14.4037 2.25712 14.7707 1.95412 15.1867 2.00612C19.2647 2.45912 22.4317 5.62212 22.8887 9.69912C22.9347 10.1111 22.6387 10.4821 22.2277 10.5281C22.1997 10.5311 22.1707 10.5331 22.1427 10.5331" fill="#0F6990"/>
</g>
</g>
<path id="Fill 4" fill-rule="evenodd" clip-rule="evenodd" d="M18.6026 10.5439C18.2506 10.5439 17.9376 10.2959 17.8676 9.93791C17.5796 8.45791 16.4386 7.31691 14.9606 7.02991C14.5536 6.95091 14.2886 6.55791 14.3676 6.15091C14.4466 5.74391 14.8466 5.47791 15.2466 5.55791C17.3276 5.96191 18.9346 7.56791 19.3396 9.64991C19.4186 10.0579 19.1536 10.4509 18.7476 10.5299C18.6986 10.5389 18.6506 10.5439 18.6026 10.5439" fill="#0F6990"/>
<g id="Group 8">
<mask id="mask1_21_83" style="mask-type:luminance" maskUnits="userSpaceOnUse" x="2" y="2" width="21" height="21">
<path id="Clip 7" fill-rule="evenodd" clip-rule="evenodd" d="M2.00043 1.99991H22.5007V22.5004H2.00043V1.99991Z" fill="white"/>
</mask>
<g mask="url(#mask1_21_83)">
<path id="Fill 6" fill-rule="evenodd" clip-rule="evenodd" d="M4.35951 5.06142C4.36151 5.06142 4.31151 5.11342 4.24851 5.17542C4.00651 5.41042 3.50551 5.89942 3.50051 6.92242C3.49251 8.35342 4.43351 11.0104 8.96451 15.5404C13.4735 20.0484 16.1265 21.0004 17.5615 21.0004H17.5825C18.6055 20.9944 19.0935 20.4934 19.3285 20.2524C19.3995 20.1794 19.4575 20.1244 19.4985 20.0914C20.4955 19.0884 21.0055 18.3434 21.0005 17.8644C20.9945 17.3764 20.3875 16.8004 19.5485 16.0014C19.2815 15.7484 18.9915 15.4714 18.6855 15.1654C17.8915 14.3744 17.5005 14.5094 16.6355 14.8134C15.4405 15.2324 13.8035 15.8064 11.2525 13.2534C8.70051 10.7024 9.27251 9.06542 9.68951 7.86942C9.99151 7.00542 10.1295 6.61242 9.33651 5.81842C9.02651 5.50842 8.74751 5.21442 8.49051 4.94442C7.69651 4.11042 7.12351 3.50742 6.63851 3.50042H6.63051C6.15151 3.50042 5.40751 4.01242 4.35451 5.06542C4.35751 5.06242 4.35851 5.06142 4.35951 5.06142V5.06142ZM17.5615 22.5004C15.0695 22.5004 11.8205 20.5164 7.90451 16.6014C3.97251 12.6704 1.98551 9.41142 2.00051 6.91442C2.00951 5.26442 2.87451 4.41942 3.19951 4.10242C3.21651 4.08142 3.27451 4.02442 3.29451 4.00442C4.72951 2.56942 5.71551 1.97942 6.65751 2.00042C7.77451 2.01542 8.57051 2.85242 9.57751 3.91142C9.82651 4.17242 10.0955 4.45742 10.3965 4.75742C11.8555 6.21742 11.4405 7.40842 11.1055 8.36442C10.7415 9.40742 10.4265 10.3074 12.3125 12.1934C14.1985 14.0794 15.0975 13.7644 16.1395 13.3974C17.0965 13.0634 18.2845 12.6454 19.7465 14.1054C20.0435 14.4024 20.3235 14.6684 20.5835 14.9154C21.6465 15.9274 22.4865 16.7264 22.5005 17.8464C22.5115 18.8004 21.9315 19.7744 20.4995 21.2064L19.8655 20.7764L20.4025 21.2994C20.0855 21.6244 19.2425 22.4904 17.5915 22.5004H17.5615Z" fill="#0F6990"/>
</g>
</g>
</g>
</g>
</svg>
