<svg width="24" height="24" viewBox="0 0 24 24" fill="none" xmlns="http://www.w3.org/2000/svg">
<g id="Iconly/Light-Outline/Calling">
<g id="Iconly/Light-Outline/Calling_2">
<g id="Calling">
<g id="Group 3">
<mask id="mask0_36_2" style="mask-type:luminance" maskUnits="userSpaceOnUse" x="14" y="2" width="9" height="9">
<path id="Clip 2" fill-rule="evenodd" clip-rule="evenodd" d="M14.354 2.00027H22.893V10.5331H14.354V2.00027Z" fill="white"/>
</mask>
<g mask="url(#mask0_36_2)">
<path id="Fill 1" fill-rule="evenodd" clip-rule="evenodd" d="M22.1427 10.5331C21.7657 10.5331 21.4417 10.2501 21.3987 9.86709C21.0197 6.49109 18.3977 3.87109 15.0207 3.49609C14.6097 3.45009 14.3127 3.08009 14.3587 2.66809C14.4037 2.25709 14.7707 1.95409 15.1867 2.00609C19.2647 2.45909 22.4317 5.62209 22.8887 9.69909C22.9347 10.1111 22.6387 10.4821 22.2277 10.5281C22.1997 10.5311 22.1707 10.5331 22.1427 10.5331" fill="#0F6990"/>
</g>
</g>
<path id="Fill 4" fill-rule="evenodd" clip-rule="evenodd" d="M18.6026 10.5439C18.2506 10.5439 17.9376 10.2959 17.8676 9.93789C17.5796 8.45789 16.4386 7.31689 14.9606 7.02989C14.5536 6.95089 14.2886 6.55789 14.3676 6.15089C14.4466 5.74389 14.8466 5.47789 15.2466 5.55789C17.3276 5.96189 18.9346 7.56789 19.3396 9.64989C19.4186 10.0579 19.1536 10.4509 18.7476 10.5299C18.6986 10.5389 18.6506 10.5439 18.6026 10.5439" fill="#0F6990"/>
<g id="Group 8">
<mask id="mask1_36_2" style="mask-type:luminance" maskUnits="userSpaceOnUse" x="2" y="1" width="21" height="22">
<path id="Clip 7" fill-rule="evenodd" clip-rule="evenodd" d="M2.00041 1.99989H22.5007V22.5004H2.00041V1.99989Z" fill="white"/>
</mask>
<g mask="url(#mask1_36_2)">
<path id="Fill 6" fill-rule="evenodd" clip-rule="evenodd" d="M4.3595 5.06139C4.3615 5.06139 4.3115 5.11339 4.2485 5.17539C4.0065 5.41039 3.5055 5.89939 3.5005 6.92239C3.4925 8.35339 4.4335 11.0104 8.9645 15.5404C13.4735 20.0484 16.1265 21.0004 17.5615 21.0004H17.5825C18.6055 20.9944 19.0935 20.4934 19.3285 20.2524C19.3995 20.1794 19.4575 20.1244 19.4985 20.0914C20.4955 19.0884 21.0055 18.3434 21.0005 17.8644C20.9945 17.3764 20.3875 16.8004 19.5485 16.0014C19.2815 15.7484 18.9915 15.4714 18.6855 15.1654C17.8915 14.3744 17.5005 14.5094 16.6355 14.8134C15.4405 15.2324 13.8035 15.8064 11.2525 13.2534C8.7005 10.7024 9.2725 9.06539 9.6895 7.86939C9.9915 7.00539 10.1295 6.61239 9.3365 5.81839C9.0265 5.50839 8.7475 5.21439 8.4905 4.94439C7.6965 4.11039 7.1235 3.50739 6.6385 3.50039H6.6305C6.1515 3.50039 5.4075 4.01239 4.3545 5.06539C4.3575 5.06239 4.3585 5.06139 4.3595 5.06139V5.06139ZM17.5615 22.5004C15.0695 22.5004 11.8205 20.5164 7.9045 16.6014C3.9725 12.6704 1.9855 9.41139 2.0005 6.91439C2.0095 5.26439 2.8745 4.41939 3.1995 4.10239C3.2165 4.08139 3.2745 4.02439 3.2945 4.00439C4.7295 2.56939 5.7155 1.97939 6.6575 2.00039C7.7745 2.01539 8.5705 2.85239 9.5775 3.91139C9.8265 4.17239 10.0955 4.45739 10.3965 4.75739C11.8555 6.21739 11.4405 7.40839 11.1055 8.36439C10.7415 9.40739 10.4265 10.3074 12.3125 12.1934C14.1985 14.0794 15.0975 13.7644 16.1395 13.3974C17.0965 13.0634 18.2845 12.6454 19.7465 14.1054C20.0435 14.4024 20.3235 14.6684 20.5835 14.9154C21.6465 15.9274 22.4865 16.7264 22.5005 17.8464C22.5115 18.8004 21.9315 19.7744 20.4995 21.2064L19.8655 20.7764L20.4025 21.2994C20.0855 21.6244 19.2425 22.4904 17.5915 22.5004H17.5615Z" fill="#0F6990"/>
</g>
</g>
</g>
</g>
</g>
</svg>
