<svg width="19" height="20" viewBox="0 0 19 20" fill="none" xmlns="http://www.w3.org/2000/svg">
<path fill-rule="evenodd" clip-rule="evenodd" d="M12.7158 14.9735H5.49579C5.08179 14.9735 4.74579 14.6375 4.74579 14.2235C4.74579 13.8095 5.08179 13.4735 5.49579 13.4735H12.7158C13.1298 13.4735 13.4658 13.8095 13.4658 14.2235C13.4658 14.6375 13.1298 14.9735 12.7158 14.9735" fill="#0F6990"/>
<path fill-rule="evenodd" clip-rule="evenodd" d="M12.7158 10.787H5.49579C5.08179 10.787 4.74579 10.451 4.74579 10.037C4.74579 9.62299 5.08179 9.28699 5.49579 9.28699H12.7158C13.1298 9.28699 13.4658 9.62299 13.4658 10.037C13.4658 10.451 13.1298 10.787 12.7158 10.787" fill="#0F6990"/>
<path fill-rule="evenodd" clip-rule="evenodd" d="M8.25048 6.6102H5.49548C5.08148 6.6102 4.74548 6.2742 4.74548 5.8602C4.74548 5.4462 5.08148 5.1102 5.49548 5.1102H8.25048C8.66448 5.1102 9.00048 5.4462 9.00048 5.8602C9.00048 6.2742 8.66448 6.6102 8.25048 6.6102" fill="#0F6990"/>
<mask id="mask0_18_27" style="mask-type:luminance" maskUnits="userSpaceOnUse" x="0" y="0" width="19" height="20">
<path fill-rule="evenodd" clip-rule="evenodd" d="M0 0H18.1647V19.9098H0V0Z" fill="white"/>
</mask>
<g mask="url(#mask0_18_27)">
<path fill-rule="evenodd" clip-rule="evenodd" d="M12.9087 1.49979L5.21969 1.50379C2.89169 1.51779 1.49969 2.95779 1.49969 5.35679V14.5528C1.49969 16.9678 2.90469 18.4098 5.25569 18.4098L12.9447 18.4068C15.2727 18.3928 16.6647 16.9508 16.6647 14.5528V5.35679C16.6647 2.94179 15.2607 1.49979 12.9087 1.49979ZM5.25669 19.9098C2.11269 19.9098 -0.000305176 17.7568 -0.000305176 14.5528V5.35679C-0.000305176 2.12379 2.04669 0.0227864 5.21469 0.00378638L12.9077 -0.000213623H12.9087C16.0527 -0.000213623 18.1647 2.15279 18.1647 5.35679V14.5528C18.1647 17.7848 16.1177 19.8868 12.9497 19.9068L5.25669 19.9098Z" fill="#0F6990"/>
</g>
</svg>
