<svg width="14" height="10" viewBox="0 0 14 10" fill="none" xmlns="http://www.w3.org/2000/svg">
<path d="M0.5 2.5C0.5 1.55719 0.5 1.08579 0.792893 0.792893C1.08579 0.5 1.55719 0.5 2.5 0.5L11.5 0.5C12.4428 0.5 12.9142 0.5 13.2071 0.792893C13.5 1.08579 13.5 1.55719 13.5 2.5V7.5C13.5 8.44281 13.5 8.91421 13.2071 9.20711C12.9142 9.5 12.4428 9.5 11.5 9.5H2.5C1.55719 9.5 1.08579 9.5 0.792893 9.20711C0.5 8.91421 0.5 8.44281 0.5 7.5V2.5Z" stroke="#0F6990" stroke-linecap="round" stroke-linejoin="round"/>
<line x1="0.5" y1="3.5" x2="13.5" y2="3.5" stroke="#0F6990" stroke-linecap="round" stroke-linejoin="round"/>
<path d="M3 7H7" stroke="#0F6990" stroke-linecap="round" stroke-linejoin="round"/>
</svg>
