<?xml version="1.0" encoding="utf-8"?>
<!-- Generator: Adobe Illustrator 27.5.0, SVG Export Plug-In . SVG Version: 6.00 Build 0)  -->
<svg version="1.1" xmlns="http://www.w3.org/2000/svg" xmlns:xlink="http://www.w3.org/1999/xlink" x="0px" y="0px"
	 viewBox="0 0 3710 3710" style="enable-background:new 0 0 3710 3710;" xml:space="preserve">
<g id="Background">
	<g>
		<g>
			<rect style="fill:#FFFFFF;" width="3710" height="3710"/>
		</g>
	</g>
</g>
<g id="Illustration">
	<g>
		<linearGradient id="SVGID_1_" gradientUnits="userSpaceOnUse" x1="3583.6384" y1="4055.0232" x2="1124.6741" y2="1001.1436">
			<stop  offset="0" style="stop-color:#DAE3FE"/>
			<stop  offset="1" style="stop-color:#E9EFFD"/>
		</linearGradient>
		<path style="fill:url(#SVGID_1_);" d="M2907.162,2850.683c-56.481,59.461-109.924,97.807-152.147,128.103
			c-496.331,356.123-1083.621,252.315-1208.438,226.964c-184.314-37.435-540.589-109.797-798.169-412.706
			c-389.697-458.276-329.016-1180.278-26.74-1656.881c55.291-87.179,347.354-571.042,940.97-648.638
			c359.25-46.96,778.021,47.753,1081.283,301.827C3380.495,1322.676,3335.178,2400.082,2907.162,2850.683z"/>
		<g>
			<g>
				<path style="fill:#BDD0FB;" d="M2677.422,572.666c72.864,234.282,441.216,1614.984-792.325,2193.366
					c0,0-476.49-846.542,757.182-2201.237C2653.07,552.943,2672.662,557.36,2677.422,572.666z"/>
				<path style="opacity:0.45;fill:#FFFFFF;" d="M2587.918,804.496c-8.216,77.805-18.052,155.54-28.55,233.124
					c-10.538,77.593-21.969,155.064-34.303,232.387c-24.665,154.641-52.785,308.732-85.62,461.786
					c-32.945,153.004-70.353,305.109-115.947,454.675c-22.555,74.849-47.815,148.848-75.832,221.689
					c-28.115,72.782-59.12,144.485-95.583,213.206l-0.021,0.041c-2.731,5.146-0.773,11.531,4.373,14.261
					c5.146,2.73,11.531,0.772,14.262-4.374l0.032-0.059c36.555-69.986,67.367-142.571,95.224-216.085
					c27.753-73.574,52.664-148.144,74.833-223.465c44.821-150.517,81.329-303.254,113.35-456.785
					c31.91-153.575,59.068-308.064,82.762-463.046c11.849-77.492,22.79-155.117,32.836-232.858
					c10.01-77.755,19.344-155.554,27.079-233.63c0.243-2.456-1.55-4.643-4.005-4.886c-2.446-0.243-4.626,1.535-4.885,3.976
					L2587.918,804.496z"/>
			</g>
			<g>
				<path style="fill:#BDD0FB;" d="M1905.849,2805.53c0,0-116.952-308.139,168.466-693.782
					c264.818-357.811,997.528-1217.533,1114.829-1643.325c5.195-18.862,32.265-17.482,35.301,1.846
					c32.572,207.325,73.34,732.989-209.568,1302.997C2650.052,2508.325,1905.849,2805.53,1905.849,2805.53z"/>
				<path style="opacity:0.45;fill:#FFFFFF;" d="M3121.888,857.914c-0.279,23.147-3.116,46.176-5.744,69.127l-5.036,34.313
					c-1.772,11.417-4.183,22.738-6.241,34.105c-1.097,5.672-2.081,11.363-3.269,17.014l-3.905,16.889l-7.818,33.753l-9.225,33.4
					c-3.232,11.084-5.768,22.354-9.49,33.296c-26.785,88.357-60.74,174.553-102.055,257.071
					c-40.962,82.62-86.206,163.256-138.003,239.636l-19.047,28.881l-9.566,14.412l-10.227,13.957l-40.904,55.828
					c-6.882,9.264-13.484,18.694-20.594,27.825l-21.287,27.419l-42.573,54.837c-57.424,72.6-115.43,144.741-174.577,215.98
					c-59.065,71.303-118.925,141.963-178.774,212.721c-59.744,70.833-120.185,141.199-177.393,214.375
					c-14.497,18.122-28.118,36.981-42.032,55.574c-7.064,9.215-13.52,18.906-20.18,28.432c-6.564,9.598-13.382,19.008-19.731,28.752
					c-25.471,38.936-48.535,79.551-67.066,122.298c-0.581,1.34,0.034,2.893,1.371,3.473c1.287,0.558,2.776,0.009,3.402-1.226
					l0.066-0.129l15.594-30.877l3.893-7.71c1.313-2.562,2.901-4.984,4.339-7.481l8.832-14.875
					c11.258-20.118,24.64-38.985,37.277-58.261c6.526-9.51,13.533-18.71,20.272-28.077c6.839-9.298,13.456-18.746,20.713-27.754
					c14.286-18.169,28.243-36.558,43.125-54.277c58.504-71.616,119.435-141.388,180.27-211.287l91.167-104.987
					c30.029-35.326,60.243-70.494,89.895-106.157c29.876-35.467,59.365-71.269,88.629-107.255
					c14.758-17.89,29.079-36.136,43.575-54.24l43.319-54.447l42.704-54.935l21.352-27.465c7.131-9.146,13.737-18.767,20.631-28.124
					l40.945-56.525l10.234-14.131l9.578-14.589l19.062-29.24l19.06-29.239c6.283-9.79,12.949-19.341,18.563-29.548l35.012-60.401
					c12.123-19.875,22.07-40.968,32.935-61.538c10.536-20.746,21.86-41.096,30.968-62.542c39.873-84.1,72.238-171.724,97.293-261.26
					c3.511-11.084,5.862-22.499,8.678-33.773l8.141-33.898l6.718-34.214l3.347-17.095c1.002-5.721,1.801-11.479,2.71-17.215
					c7.532-45.806,12.523-92.187,11.717-138.618c-0.004-0.18-0.152-0.324-0.333-0.321
					C3122.031,857.578,3121.89,857.739,3121.888,857.914z"/>
			</g>
		</g>
		<g>
			<g>
				
					<linearGradient id="SVGID_00000071560674800977876660000012748065761155582898_" gradientUnits="userSpaceOnUse" x1="1684.9797" y1="2645.2827" x2="2220.6636" y2="1038.2268">
					<stop  offset="0" style="stop-color:#09005D"/>
					<stop  offset="1" style="stop-color:#1A0F91"/>
				</linearGradient>
				<path style="fill:url(#SVGID_00000071560674800977876660000012748065761155582898_);" d="M3068.159,2703.582
					c0,23.046-18.875,41.903-41.943,41.903H758.083c-23.069,0-41.943-18.857-41.943-41.903l-18.873-1303.433
					c0-23.047,27.153-68.04,76.915-64.658l2216.67-57.357c28.945-0.749,56.93,10.392,77.427,30.822
					c20.497,20.43,31.712,48.364,31.028,77.282L3068.159,2703.582z"/>
				<path style="fill:#91B3FA;" d="M3026.75,2663.381c0,21.825-17.856,39.681-39.681,39.681H812.78
					c-21.825,0-39.681-17.856-39.681-39.681l-17.81-1183.268c2.098-71.206,64.526-96.799,102.369-95.287l2124.539-56.998
					c20.335-0.546,40.002,7.283,54.399,21.655c14.397,14.372,22.26,34.025,21.75,54.361L3026.75,2663.381z"/>
				<g>
					<path style="fill:#FFFFFF;" d="M796.596,2099.172c-2.042,0-3.713-1.64-3.743-3.689l-1.41-95.962
						c-0.03-2.068,1.622-3.768,3.69-3.799c1.999-0.112,3.769,1.622,3.799,3.689l1.41,95.962c0.03,2.068-1.622,3.768-3.69,3.799
						C796.652,2099.172,796.615,2099.172,796.596,2099.172z"/>
					<path style="fill:#BDD0FB;" d="M793.143,1864.017c-2.042,0-3.713-1.64-3.744-3.69l-5.397-367.529
						c0.112-24.708,7.73-44.446,22.643-58.736c27.096-25.962,69.46-24.658,71.249-24.589l678.406-18.206
						c2.048-0.185,3.787,1.574,3.844,3.642c0.055,2.068-1.576,3.788-3.643,3.843l-678.625,18.206
						c-1.929-0.077-41.223-1.28-66.049,22.512c-13.391,12.831-20.233,30.761-20.335,53.289l5.397,367.458
						c0.03,2.068-1.622,3.768-3.689,3.799C793.18,1864.017,793.161,1864.017,793.143,1864.017z"/>
				</g>
				<path style="fill:#7D97F4;" d="M927.176,2432.753c1.93-82.914,1.211-817.142-3.546-880.553
					c-4.757-63.411,94.001-75.305,245.626-82.441s1430.942-35.389,1463.881-38.06c74.041-6.004,89.366,104.665,81.959,344.918
					c-5.565,180.499-14.789,477.841-19.033,614.582c-1.263,40.715-34.542,73.02-75.277,73.132
					c-307.856,0.846-1487.778,4.228-1566.326,6.567C964.068,2473.589,926.41,2465.631,927.176,2432.753z"/>
			</g>
			
				<linearGradient id="SVGID_00000006688901516262678270000009745346929258671017_" gradientUnits="userSpaceOnUse" x1="2192.7656" y1="822.1912" x2="2056.5039" y2="1791.166">
				<stop  offset="0" style="stop-color:#09005D"/>
				<stop  offset="1" style="stop-color:#1A0F91"/>
			</linearGradient>
			<path style="fill:url(#SVGID_00000006688901516262678270000009745346929258671017_);" d="M3194.897,2853.686H635.383
				c-31.494,0-57.262-25.768-57.262-57.262l0,0c0-31.494,25.768-57.262,57.262-57.262h2559.514
				c31.494,0,57.262,25.768,57.262,57.262l0,0C3252.159,2827.918,3226.391,2853.686,3194.897,2853.686z"/>
		</g>
		<g>
			
				<linearGradient id="SVGID_00000110431480396804443000000014467556168653651091_" gradientUnits="userSpaceOnUse" x1="3145.6716" y1="112.8849" x2="3024.5491" y2="708.4024">
				<stop  offset="0" style="stop-color:#4F52FF"/>
				<stop  offset="1" style="stop-color:#4042E2"/>
			</linearGradient>
			<path style="fill:url(#SVGID_00000110431480396804443000000014467556168653651091_);" d="M2741.005,1145.049l-58.887,100.363
				c-7.993,13.624-9.707,30.04-4.644,45.002c12.713,37.575,49.219,109.032,151.315,167.682
				c103.692,59.567,175.068,45.636,207.651,32.617c11.798-4.714,21.71-13.167,28.234-24.069l63.432-106.004L2741.005,1145.049z"/>
			
				<linearGradient id="SVGID_00000102518971297144528170000006912152852251898512_" gradientUnits="userSpaceOnUse" x1="3118.1641" y1="1386.0715" x2="2295.5447" y2="755.2273">
				<stop  offset="0" style="stop-color:#4F52FF"/>
				<stop  offset="1" style="stop-color:#4042E2"/>
			</linearGradient>
			<path style="fill:url(#SVGID_00000102518971297144528170000006912152852251898512_);" d="M3016.089,1068.866l-335.968,4.434
				c-17.299,0.228-27.353,19.653-17.536,33.899c47.884,69.492,155.907,230.422,190.187,316.318
				c3.667,9.189,13.123,14.686,22.93,13.379l351.198-46.82c15.886-2.118,24.043-20.164,15.121-33.478
				c-47.048-70.212-167.366-246.676-212.084-282.96C3026.028,1070.466,3021.122,1068.8,3016.089,1068.866z"/>
			
				<linearGradient id="SVGID_00000154394725947283958010000012050282691360291259_" gradientUnits="userSpaceOnUse" x1="3967.0581" y1="837.8446" x2="3477.5237" y2="1165.8837">
				<stop  offset="0" style="stop-color:#4F52FF"/>
				<stop  offset="1" style="stop-color:#4042E2"/>
			</linearGradient>
			<path style="fill:url(#SVGID_00000154394725947283958010000012050282691360291259_);" d="M2966.367,1228.592
				c0,0,138.732,149.478,145.046,176.879s-48.299,129.801-48.299,129.801c1.663,99.404-21.144,200.803-79.435,241.52
				c0,0-22.327-136.073,15.711-180.808c38.038-44.735,53.032-63.232,53.032-63.232s52.317-110.732,49.988-129.17
				C3102.41,1403.583,2950.449,1231.488,2966.367,1228.592z"/>
			<path style="fill:#BDD0FB;" d="M2714.484,1113.49l118.042,200.407l29.511,50.101l7.377,12.526l3.687,6.235
				c1.152,1.946,2.567,3.725,4.113,5.369c6.236,6.568,15.448,10.181,24.559,9.472l116.061-7.359
				c0.916-0.058,1.706,0.637,1.764,1.553c0.058,0.913-0.632,1.699-1.541,1.763l-116.001,8.238
				c-10.263,0.879-20.856-3.136-28.029-10.597c-1.785-1.866-3.416-3.894-4.753-6.11l-3.76-6.248l-7.472-12.469l-29.89-49.877
				l-119.558-199.506c-0.972-1.623-0.445-3.726,1.177-4.699c1.623-0.972,3.726-0.445,4.698,1.177L2714.484,1113.49z"/>
			
				<linearGradient id="SVGID_00000139294108067411107300000006527930944174320784_" gradientUnits="userSpaceOnUse" x1="2985.894" y1="1663.5465" x2="3037.8088" y2="1663.5465">
				<stop  offset="0" style="stop-color:#DAE3FE"/>
				<stop  offset="1" style="stop-color:#E9EFFD"/>
			</linearGradient>
			<path style="fill:url(#SVGID_00000139294108067411107300000006527930944174320784_);" d="M3035.98,1588.188l-0.406,0.252
				l-0.487,0.339l-0.986,0.688l-1.955,1.555c-1.298,1.055-2.512,2.27-3.778,3.395l-3.536,3.736
				c-1.135,1.293-2.192,2.664-3.296,3.992c-1.135,1.303-2.104,2.746-3.094,4.174c-0.98,1.433-2.017,2.829-2.956,4.294l-2.657,4.508
				c-0.873,1.511-1.831,2.976-2.549,4.577l-2.317,4.716c-0.759,1.58-1.604,3.12-2.203,4.776c-1.294,3.266-2.646,6.515-3.902,9.803
				l-3.207,10.083c-0.259,0.843-0.554,1.676-0.785,2.528l-0.621,2.577l-1.244,5.156c-1.877,6.831-2.752,13.885-4.019,20.864
				c-0.344,1.742-0.515,3.509-0.69,5.276l-0.552,5.299c-0.352,3.534-0.774,7.065-1.069,10.607
				c-0.267,7.106-0.686,14.216-0.832,21.334l0.315,21.38l0.001,0.064c0.01,0.657-0.516,1.199-1.173,1.208
				c-0.647,0.01-1.181-0.5-1.208-1.142l-0.877-21.503c-0.041-7.175,0.194-14.359,0.279-21.546c0.204-3.587,0.538-7.171,0.801-10.759
				l0.42-5.382c0.131-1.795,0.259-3.591,0.561-5.369c1.098-7.12,1.807-14.314,3.537-21.343l1.135-5.302l0.568-2.651
				c0.213-0.879,0.492-1.741,0.735-2.613l3.026-10.441c1.204-3.423,2.51-6.816,3.765-10.229c0.578-1.726,1.41-3.353,2.156-5.016
				l2.285-4.97c0.708-1.684,1.667-3.249,2.54-4.856l2.668-4.801c0.948-1.569,2.003-3.079,3.002-4.62
				c1.01-1.537,1.999-3.089,3.175-4.52c1.141-1.453,2.235-2.943,3.421-4.366l3.731-4.151c1.367-1.292,2.655-2.641,4.098-3.881
				l2.196-1.839l1.19-0.879l0.604-0.441l0.723-0.47c1.585-1.031,3.706-0.583,4.738,1.002c1.031,1.585,0.583,3.707-1.002,4.738
				c-0.016,0.01-0.031,0.02-0.047,0.031L3035.98,1588.188z"/>
			
				<linearGradient id="SVGID_00000042716766505432223390000017493892352488665744_" gradientUnits="userSpaceOnUse" x1="2996.8364" y1="1689.1702" x2="3030.0898" y2="1689.1702">
				<stop  offset="0" style="stop-color:#DAE3FE"/>
				<stop  offset="1" style="stop-color:#E9EFFD"/>
			</linearGradient>
			<path style="fill:url(#SVGID_00000042716766505432223390000017493892352488665744_);" d="M3029.631,1632.56l-1.738,6.503
				l-1.894,7.348l-3.716,14.746l-7.317,29.542l-14.459,59.141c-0.241,1-1.247,1.614-2.246,1.374
				c-0.983-0.237-1.592-1.222-1.383-2.205l12.939-59.506l6.561-29.74l3.344-14.867l1.715-7.439l0.897-3.74l0.46-1.879
				c0.219-0.802,0.527-1.738,0.836-2.579c0.636-1.727,2.551-2.611,4.278-1.975c1.626,0.599,2.505,2.332,2.072,3.973
				L3029.631,1632.56z"/>
		</g>
		<g>
			<g>
				<path style="fill:#91B3FA;" d="M544.503,2774.595c-9.826,14.54-48.879,343.741-54.991,465.327
					c-0.414,8.222,6.164,15.078,14.396,15.078l0,0c7.099,0,13.141-5.172,14.236-12.187l71.43-457.746L544.503,2774.595z"/>
				<path style="fill:#91B3FA;" d="M858.488,2774.595c9.826,14.54,48.879,343.741,54.992,465.327
					c0.413,8.222-6.164,15.078-14.396,15.078h-0.001c-7.099,0-13.141-5.172-14.236-12.187l-71.43-457.746L858.488,2774.595z"/>
				<path style="fill:#91B3FA;" d="M485.428,2748.903l-0.033,3.589c-0.236,25.827,22.014,47.011,49.873,47.485l330.165,5.615
					c27.458,0.468,50.348-19.375,51.679-44.802l0.172-3.285c1.39-26.516-21.129-48.856-49.764-49.37l-330.305-5.92
					C508.944,2701.709,485.667,2722.694,485.428,2748.903z"/>
			</g>
			<g>
				<g>
					<g>
						<g>
							<g>
								
									<linearGradient id="SVGID_00000054257612493379379570000016861845160765933214_" gradientUnits="userSpaceOnUse" x1="8453.7744" y1="2845.0786" x2="8714.4688" y2="2845.0786" gradientTransform="matrix(-1 0 0 1 9628.2842 0)">
									<stop  offset="0" style="stop-color:#FEBBBA"/>
									<stop  offset="1" style="stop-color:#FF928E"/>
								</linearGradient>
								<path style="fill:url(#SVGID_00000054257612493379379570000016861845160765933214_);" d="M1045.061,2519.797
									c0,0,54.481,8.446,115.736,49.394c9.64,6.444,14.928,17.678,13.476,29.182c-7.334,58.099-37.492,246.147-136.938,429.816
									c-5.243,9.685-6.75,20.96-4.437,31.727l17.277,80.403l32.04,30.042h-82.528l-54.949-148.701l23.497-7.43
									c18.217-5.76,30.716-22.517,31.047-41.621l2.758-159.515c-2.353-71.068,43.576-120.102,43.576-120.102l-131.8-6.412
									L1045.061,2519.797z"/>
								
									<linearGradient id="SVGID_00000134930263886399777830000001739116706221471923_" gradientUnits="userSpaceOnUse" x1="-9048.6924" y1="-6015.499" x2="-8284.7393" y2="-5620.8892" gradientTransform="matrix(-1 0 0 1 9628.2842 0)">
									<stop  offset="0" style="stop-color:#09005D"/>
									<stop  offset="1" style="stop-color:#1A0F91"/>
								</linearGradient>
								<path style="fill:url(#SVGID_00000134930263886399777830000001739116706221471923_);" d="M1114.439,3184.866
									c7.516,9.836-80.893,22.816-125.559,1.301c0,0-61.917-107.727-61.917-163.192c0,0,4.914-11.31,41.271-8.746
									c0,0,20.789,127.555,42.741,141.843s61.417,1.445,61.417,1.445S1103.35,3170.353,1114.439,3184.866z"/>
							</g>
							<g>
								
									<linearGradient id="SVGID_00000000198837757576514050000015798702363533141670_" gradientUnits="userSpaceOnUse" x1="8147.6758" y1="2862.8862" x2="8697.793" y2="2862.8862" gradientTransform="matrix(-1 0 0 1 9628.2842 0)">
									<stop  offset="0" style="stop-color:#FEBBBA"/>
									<stop  offset="1" style="stop-color:#FF928E"/>
								</linearGradient>
								<path style="fill:url(#SVGID_00000000198837757576514050000015798702363533141670_);" d="M930.491,2695.329
									c0.701-1.213,141.902-16.978,141.902-16.978s-4.621,42.932,9.822,102.033c14.442,59.101,221.755,315.155,221.755,315.155
									l-21.737,68.91c67.209,23.411,133.321,27.154,198.376,11.932l-134.715-80.843c0,0-126.078-429.65-203.304-506.299
									l-141.536-48.967L930.491,2695.329z"/>
								
									<linearGradient id="SVGID_00000120559574047884994900000004284100078160974722_" gradientUnits="userSpaceOnUse" x1="-9157.8896" y1="-5804.1011" x2="-8393.9365" y2="-5409.4912" gradientTransform="matrix(-1 0 0 1 9628.2842 0)">
									<stop  offset="0" style="stop-color:#09005D"/>
									<stop  offset="1" style="stop-color:#1A0F91"/>
								</linearGradient>
								<path style="fill:url(#SVGID_00000120559574047884994900000004284100078160974722_);" d="M1290.446,3141.241
									c0,0-23.402,22.667-7.593,47.887c0,0,185.389,32.861,235.724,17.951c0,0-10.451-23.855-67.13-51.007l4.182,3.21
									c5.292,4.062,2.188,12.525-4.473,12.146C1413.807,3169.299,1336.514,3162.457,1290.446,3141.241z"/>
							</g>
						</g>
						
							<linearGradient id="SVGID_00000016048314660769306380000016837782840907254438_" gradientUnits="userSpaceOnUse" x1="1270.6241" y1="2842.8591" x2="276.4098" y2="2338.1816">
							<stop  offset="0" style="stop-color:#4F52FF"/>
							<stop  offset="1" style="stop-color:#4042E2"/>
						</linearGradient>
						<path style="fill:url(#SVGID_00000016048314660769306380000016837782840907254438_);" d="M606.279,2440.611
							c0,0-73.804,125.722-80.48,180.917c-6.676,55.195,22.081,88.975,107.644,81.321
							c273.467-1.979,336.367,102.469,356.024,233.086c0.877,5.826,5.847,10.125,11.738,10.239
							c93.67,1.816,192.796-19.984,278.811-61.816c5.7-2.772,7.786-9.551,5.171-15.325
							c-122.316-270.189-44.232-330.008-334.829-408.371C911.115,2455.946,606.279,2440.611,606.279,2440.611z"/>
					</g>
					<g>
						
							<linearGradient id="SVGID_00000021119466596366375890000001308909409896891569_" gradientUnits="userSpaceOnUse" x1="1374.7584" y1="1937.5244" x2="557.0603" y2="2361.5166">
							<stop  offset="0" style="stop-color:#FF928E"/>
							<stop  offset="1" style="stop-color:#FE7062"/>
						</linearGradient>
						<path style="fill:url(#SVGID_00000021119466596366375890000001308909409896891569_);" d="M866.946,2434.257
							c0,0,82.497-90.282,129.13-150.031c25.207-32.297,12.251-79.683,0.593-118.959c-21.29-71.727-59.126-146.018-62.576-157.581
							c-5.289-17.723-111.513-16.985-111.513-16.985s-245.759,110.389-294.551,365.495c26.772,14.399,59.315,23.324,95.633,28.674
							c0,0,54.577-91.561,108.501-149.775c0,0-100.141,121.367-103.427,171.829L866.946,2434.257z"/>
						
							<linearGradient id="SVGID_00000076580306502116884980000009948816810740100743_" gradientUnits="userSpaceOnUse" x1="1071.1975" y1="2277.7195" x2="334.9121" y2="2576.0833">
							<stop  offset="0" style="stop-color:#FEBBBA"/>
							<stop  offset="1" style="stop-color:#FF928E"/>
						</linearGradient>
						<path style="fill:url(#SVGID_00000076580306502116884980000009948816810740100743_);" d="M1020.515,2429.921l-57.643-55.56
							c-3.422-3.299-8.482-4.238-12.86-2.389l-89.069,37.627c0,0-95.843,14.85-150.698,0
							c-54.855-14.849-54.855-14.849-54.855-14.849l-123.961-38.592l-19.469,55.021c-4.941,13.965,0.022,29.476,12.097,38.056
							c10.726,7.622,23.3,16,31.314,19.506c16.324,7.142,402.416-4.94,402.416-4.94l60.905-24.514
							C1022.515,2437.749,1023.482,2432.781,1020.515,2429.921z"/>
					</g>
					<g>
						
							<linearGradient id="SVGID_00000159468258923130698290000002467745411599832737_" gradientUnits="userSpaceOnUse" x1="8768.3623" y1="2109.0469" x2="8740.2549" y2="1928.6909" gradientTransform="matrix(-1 0 0 1 9628.2842 0)">
							<stop  offset="0" style="stop-color:#FEBBBA"/>
							<stop  offset="1" style="stop-color:#FF928E"/>
						</linearGradient>
						<path style="fill:url(#SVGID_00000159468258923130698290000002467745411599832737_);" d="M946.939,1908.637
							c-1.109,3.684-28.835,95.595-31.003,97.503c-2.169,1.908-65.758,3.423-93.356-15.439l48.541-99.897L946.939,1908.637z"/>
						
							<linearGradient id="SVGID_00000132801149110122405770000011088001921154316181_" gradientUnits="userSpaceOnUse" x1="8646.6445" y1="1775.1232" x2="8889.7002" y2="1940.2177" gradientTransform="matrix(-1 0 0 1 9628.2842 0)">
							<stop  offset="0" style="stop-color:#FEBBBA"/>
							<stop  offset="1" style="stop-color:#FF928E"/>
						</linearGradient>
						<path style="fill:url(#SVGID_00000132801149110122405770000011088001921154316181_);" d="M901.397,1715.589
							c0,0,50.051,21.134,84.083,93.46c34.032,72.325,8.617,105.719-23.305,110.304c-31.923,4.585-79.663,3.887-130.16-42.835
							C781.518,1829.797,836.332,1690.538,901.397,1715.589z"/>
						<path style="fill:#FFFFFF;" d="M856.694,1947.562c4.927-10.28,10.996-20.186,12.881-31.371
							c5.199-30.845-18.017-65.719-39.208-85.945c-12.813-12.229-21.978-30.787-14.23-48.118
							c14.325-32.043,61.447-45.535,90.608-59.016c10.541-4.873,22.268-11.117,25.089-22.383c1.3-5.192,0.415-10.694-1.113-15.824
							c-6.524-21.901-25.437-39.644-47.709-44.759c-30.423-6.986-75.28,7.441-102.157,22.163
							c-28.232,15.464-51.871,39.627-65.557,68.865c-6.833,14.599-11.356,30.294-19.469,44.222
							c-27.715,47.58-104.694,87.82-57.222,149.516c10.933,14.209,24.018,29.235,23.295,47.149
							c-0.784,19.445-17.667,34.439-22.814,53.207c-4.619,16.844,1.462,36.134,14.906,47.284s33.526,13.558,49.225,5.902
							c9.349-4.559,12.721-12.061,24.953-10.251c7.529,1.114,14.5,4.571,21.883,6.422c6.122,1.535,12.474,1.951,18.785,1.94
							c18.043-0.033,36.42-3.687,51.844-13.051c15.424-9.363,27.585-24.903,30.416-42.723c2.996-18.86-4.361-38.407-0.328-57.073
							C851.988,1958.092,854.194,1952.779,856.694,1947.562z"/>
						<path style="fill:#FFFFFF;" d="M978.17,1734.867c3.843,13.973-8.709,26.951-22.832,23.703
							c-14.218-3.27-31.713-6.221-46.862-5.631c-102.311,3.987-62.45,70.422-62.45,81.051c0,21.74-21.366-11.316-22.588-3.986
							c-2.658,15.945,9.781,64.321,9.781,64.321s-65.587-13.829-86.846-45.719c-21.26-31.889,2.657-103.639,10.629-130.213
							c7.973-26.575,61.121-53.149,90.352-50.491C873.489,1670.277,956.973,1657.785,978.17,1734.867z"/>
					</g>
				</g>
				
					<linearGradient id="SVGID_00000102516411114536226250000011353489293846997920_" gradientUnits="userSpaceOnUse" x1="7120.3325" y1="2227.8423" x2="7319.8643" y2="2363.373" gradientTransform="matrix(-0.9625 0.2711 0.2711 0.9625 7170.7002 -2340.2529)">
					<stop  offset="0" style="stop-color:#FEBBBA"/>
					<stop  offset="1" style="stop-color:#FF928E"/>
				</linearGradient>
				<path style="fill:url(#SVGID_00000102516411114536226250000011353489293846997920_);" d="M852.731,1836.703
					c0,0-28.009-45.609-41.187-20.591c-13.179,25.018,28.127,41.495,43.801,46.186L852.731,1836.703z"/>
			</g>
		</g>
		<g>
			<g>
				
					<linearGradient id="SVGID_00000124883582644801019540000010118134873226670743_" gradientUnits="userSpaceOnUse" x1="26549.5957" y1="-28109.7715" x2="26039.0039" y2="-27616.127" gradientTransform="matrix(-1.388 -0.0686 -0.0685 1.3855 -4690.1738 -570.6171)">
					<stop  offset="0" style="stop-color:#09005D"/>
					<stop  offset="1" style="stop-color:#1A0F91"/>
				</linearGradient>
				<path style="fill:url(#SVGID_00000124883582644801019540000010118134873226670743_);" d="M1228.385,2394.89
					c0.291,0.014,0.583,0.022,0.876,0.021l381.183-0.381c9.422-0.007,17.053-7.639,17.042-17.046
					c-0.01-9.409-7.685-17.181-17.083-17.014l-381.182,0.382c-9.424,0.007-17.053,7.639-17.042,17.045
					C1212.19,2387.009,1219.37,2394.444,1228.385,2394.89z"/>
			</g>
			<g>
				
					<linearGradient id="SVGID_00000152241740018735702620000013814154420480706949_" gradientUnits="userSpaceOnUse" x1="23776.1953" y1="-28066.4688" x2="23265.623" y2="-27572.8457" gradientTransform="matrix(0.6475 -1.2297 -1.2274 -0.6463 8775.9707 -5472.2012)">
					<stop  offset="0" style="stop-color:#09005D"/>
					<stop  offset="1" style="stop-color:#1A0F91"/>
				</linearGradient>
				<path style="fill:url(#SVGID_00000152241740018735702620000013814154420480706949_);" d="M1758.065,2021.593
					c-0.136,0.258-0.266,0.518-0.388,0.786l-160.385,345.799c-3.968,8.547-0.264,18.684,8.269,22.64
					c8.537,3.959,18.821,0.276,22.632-8.315l160.385-345.799c3.967-8.548,0.264-18.684-8.269-22.641
					C1772.04,2010.23,1762.27,2013.605,1758.065,2021.593z"/>
			</g>
		</g>
		<g>
			<path style="fill:#BDD0FB;" d="M1398.113,2414.022c-1.666,6.899-160.717,603.417-201.041,754.644
				c-4.648,17.43,8.331,34.543,26.168,34.543l0,0c12.437,0,23.279-8.57,26.291-20.783l176.558-715.845L1398.113,2414.022z"/>
			<path style="fill:#BDD0FB;" d="M1485.208,2414.022c1.667,6.899,160.718,603.417,201.043,754.644
				c4.647,17.43-8.332,34.543-26.17,34.543l0,0c-12.437,0-23.278-8.57-26.291-20.783l-176.557-715.845L1485.208,2414.022z"/>
			<path style="fill:#BDD0FB;" d="M1491.836,2394.516h-99.058v79.551c0,11.433,9.157,20.702,20.454,20.702h13.589v178.685
				c0,8.656,6.933,15.673,15.485,15.673l0,0c8.553,0,15.486-7.017,15.486-15.673v-178.685h6.896
				c14.992,0,27.148-12.301,27.148-27.475V2394.516z"/>
			<path style="fill:#BDD0FB;" d="M1149.214,2375.408h553.112c7.73,0,14.481,5.293,16.413,12.869l7.722,30.282
				c2.78,10.898-5.389,21.507-16.51,21.442l-567.55-3.302c-11-0.064-19.027-10.551-16.34-21.346l6.717-26.98
				C1134.674,2380.751,1141.448,2375.408,1149.214,2375.408z"/>
		</g>
		<g>
			
				<linearGradient id="SVGID_00000137814605626971307310000009375582318187475604_" gradientUnits="userSpaceOnUse" x1="1124.4829" y1="549.5684" x2="492.1375" y2="2112.1416">
				<stop  offset="0" style="stop-color:#FF928E"/>
				<stop  offset="1" style="stop-color:#FE7062"/>
			</linearGradient>
			<path style="fill:url(#SVGID_00000137814605626971307310000009375582318187475604_);" d="M1489.6,1195.967H504.13
				c-13.095,0-23.71-10.615-23.71-23.71V557.586c0-13.095,10.615-23.71,23.71-23.71H1489.6c13.094,0,23.71,10.615,23.71,23.71
				v614.671C1513.31,1185.352,1502.695,1195.967,1489.6,1195.967z"/>
			<path style="opacity:0.86;fill:#FFFFFF;" d="M1436.309,997.149H515.336c-4.768,0-8.634-3.865-8.634-8.633v-72.493
				c0-4.768,3.865-8.633,8.634-8.633h920.973c4.768,0,8.633,3.865,8.633,8.633v72.493
				C1444.942,993.284,1441.077,997.149,1436.309,997.149z"/>
			<path style="opacity:0.86;fill:#FFFFFF;" d="M1436.309,877.399H515.336c-4.768,0-8.634-3.865-8.634-8.634v-72.493
				c0-4.768,3.865-8.634,8.634-8.634h920.973c4.768,0,8.633,3.865,8.633,8.634v72.493
				C1444.942,873.534,1441.077,877.399,1436.309,877.399z"/>
			<path style="opacity:0.86;fill:#FFFFFF;" d="M1022.605,699.213H536.378c-4.768,0-8.634-3.865-8.634-8.633v-72.493
				c0-4.768,3.865-8.633,8.634-8.633h486.226c4.768,0,8.633,3.865,8.633,8.633v72.493
				C1031.238,695.348,1027.373,699.213,1022.605,699.213z"/>
			<path style="opacity:0.86;fill:#FFFFFF;" d="M1436.309,1119.494H515.336c-4.768,0-8.634-3.865-8.634-8.634v-72.493
				c0-4.768,3.865-8.634,8.634-8.634h920.973c4.768,0,8.633,3.865,8.633,8.634v72.493
				C1444.942,1115.629,1441.077,1119.494,1436.309,1119.494z"/>
		</g>
		<g>
			<defs>
				
					<rect id="SVGID_00000103257281119058311620000005729698064686727080_" x="457.841" y="461.323" width="2159.391" height="2003.205"/>
			</defs>
			<clipPath id="SVGID_00000031179540044425470960000004894077356449142181_">
				<use xlink:href="#SVGID_00000103257281119058311620000005729698064686727080_"  style="overflow:visible;"/>
			</clipPath>
			<g style="clip-path:url(#SVGID_00000031179540044425470960000004894077356449142181_);">
				
					<linearGradient id="SVGID_00000103974469056137911000000002206262295465295494_" gradientUnits="userSpaceOnUse" x1="6665.4463" y1="1365.4797" x2="5043.7813" y2="3653.4763" gradientTransform="matrix(-0.9849 -0.1731 -0.1731 0.9849 7706.0029 669.1506)">
					<stop  offset="0" style="stop-color:#09005D"/>
					<stop  offset="1" style="stop-color:#1A0F91"/>
				</linearGradient>
				<path style="fill:url(#SVGID_00000103974469056137911000000002206262295465295494_);" d="M1491.788,1562.467
					c7.516-7.756,7.171-20.674-0.748-27.966L555.362,648.808c-2.624-2.484-6.399-3.052-9.57-1.442
					c-5.568,2.827-6.681,10.727-2.137,15.157l923.527,900.315C1474.177,1569.659,1484.977,1569.495,1491.788,1562.467z"/>
				
					<linearGradient id="SVGID_00000084492763960411370550000015926780131979248022_" gradientUnits="userSpaceOnUse" x1="5097.0581" y1="3675.8621" x2="5274.8833" y2="3675.8621" gradientTransform="matrix(-1 0 0 1 7313.7891 0)">
					<stop  offset="0" style="stop-color:#09005D"/>
					<stop  offset="1" style="stop-color:#1A0F91"/>
				</linearGradient>
				<path style="fill:url(#SVGID_00000084492763960411370550000015926780131979248022_);" d="M2038.908,3743.035
					c-0.02-1.405,0.068-2.828,0.409-4.261c20.027-84.24,119.433-136.708,119.433-136.708l39.392,3.275
					c22.648,74.248,19.738,119.784,16.101,140.067c-0.101,0.569-0.264,1.109-0.405,1.66
					C2181.344,3750.146,2114.461,3752.158,2038.908,3743.035z"/>
				
					<linearGradient id="SVGID_00000103954080500223421820000017996565740299790517_" gradientUnits="userSpaceOnUse" x1="5543.3213" y1="3469.5547" x2="4894.5283" y2="3978.9888" gradientTransform="matrix(-1 0 0 1 7313.7891 0)">
					<stop  offset="0" style="stop-color:#53D8FF"/>
					<stop  offset="1" style="stop-color:#3840F7"/>
				</linearGradient>
				<path style="fill:url(#SVGID_00000103954080500223421820000017996565740299790517_);" d="M2213.838,3747.067
					c-1.755,6.772-6.468,12.046-12.5,13.392c-46.223,10.312-119.69,2.013-150.536-2.266c-6.806-0.943-11.78-7.62-11.893-15.158
					C2114.461,3752.158,2181.344,3750.146,2213.838,3747.067z"/>
				
					<linearGradient id="SVGID_00000162338952709964274860000003933463101957453503_" gradientUnits="userSpaceOnUse" x1="4858.606" y1="2381.4749" x2="5095.7563" y2="2381.4749" gradientTransform="matrix(-1 0 0 1 7313.7891 0)">
					<stop  offset="0" style="stop-color:#FEBBBA"/>
					<stop  offset="1" style="stop-color:#FF928E"/>
				</linearGradient>
				<path style="fill:url(#SVGID_00000162338952709964274860000003933463101957453503_);" d="M2369.826,2251.809
					c24.329,27.549,60.15,51.353,85.357,66.199c-37.644,49.365-88.583,98.801-156.016,147.186l-19.299,45.947l-61.835-78.626
					C2218.033,2432.515,2328.987,2373.937,2369.826,2251.809z"/>
				
					<linearGradient id="SVGID_00000083087460976177445350000014459975632136614272_" gradientUnits="userSpaceOnUse" x1="5147.2803" y1="3461.3901" x2="5111.3135" y2="3775.2874" gradientTransform="matrix(-1 0 0 1 7313.7891 0)">
					<stop  offset="0" style="stop-color:#FEBBBA"/>
					<stop  offset="1" style="stop-color:#FF928E"/>
				</linearGradient>
				<path style="fill:url(#SVGID_00000083087460976177445350000014459975632136614272_);" d="M2213.981,3543.096l-16.683,85.203
					c-1.222,6.244-5.745,10.92-11.222,11.466c-6.704,0.667-16.249,1.058-25.846-0.437c-8.607-1.341-14.601-10.62-13.074-20.579
					l11.597-75.653H2213.981z"/>
				
					<linearGradient id="SVGID_00000076586516794319358650000012747035636601742736_" gradientUnits="userSpaceOnUse" x1="5657.5063" y1="3616.0945" x2="5008.8887" y2="4125.3906" gradientTransform="matrix(-1 0 0 1 7313.7891 0)">
					<stop  offset="0" style="stop-color:#53D8FF"/>
					<stop  offset="1" style="stop-color:#3840F7"/>
				</linearGradient>
				<path style="fill:url(#SVGID_00000076586516794319358650000012747035636601742736_);" d="M1868.311,3746.211
					c43.505-1.293,66.008-6.728,77.64-11.773c0.026,4.59,0.002,9.26-0.138,14.099c-0.15,5.168-3.759,9.297-8.198,9.266
					l-238.867-1.635c-7.623-0.052-12.078-9.432-8.775-16.848C1721.293,3742.065,1801.061,3748.207,1868.311,3746.211z"/>
				
					<linearGradient id="SVGID_00000012430244063163714510000006944815625901414813_" gradientUnits="userSpaceOnUse" x1="5367.8379" y1="3680.8794" x2="5623.8159" y2="3680.8794" gradientTransform="matrix(-1 0 0 1 7313.7891 0)">
					<stop  offset="0" style="stop-color:#09005D"/>
					<stop  offset="1" style="stop-color:#1A0F91"/>
				</linearGradient>
				<path style="fill:url(#SVGID_00000012430244063163714510000006944815625901414813_);" d="M1689.973,3739.321
					c0.289-0.646,0.536-1.304,0.947-1.911c21.095-31.271,74.823-93.54,180.992-120.549l50.932-1.705
					c0,0,22.679,41.819,23.107,119.282c-11.633,5.044-34.135,10.48-77.64,11.773
					C1801.061,3748.207,1721.293,3742.065,1689.973,3739.321z"/>
				
					<linearGradient id="SVGID_00000044138925461668804710000003509719086775316871_" gradientUnits="userSpaceOnUse" x1="5423.7021" y1="3495.0078" x2="5387.7617" y2="3808.6721" gradientTransform="matrix(-1 0 0 1 7313.7891 0)">
					<stop  offset="0" style="stop-color:#FEBBBA"/>
					<stop  offset="1" style="stop-color:#FF928E"/>
				</linearGradient>
				<path style="fill:url(#SVGID_00000044138925461668804710000003509719086775316871_);" d="M1932.288,3533.267
					c-0.566,4.028-7.547,65.243-10.25,88.977c-0.642,5.64-4.492,10.004-9.348,10.62c-8.672,1.099-22.706,2.099-34.984-0.571
					c-6.623-1.441-11.419-8.191-11.419-16.04v-96.09L1932.288,3533.267z"/>
				
					<linearGradient id="SVGID_00000140009351441413145890000011340316448640433593_" gradientUnits="userSpaceOnUse" x1="5857.4473" y1="2062.1328" x2="4713.0205" y2="3837.9697" gradientTransform="matrix(-1 0 0 1 7313.7891 0)">
					<stop  offset="0" style="stop-color:#09005D"/>
					<stop  offset="1" style="stop-color:#1A0F91"/>
				</linearGradient>
				<path style="fill:url(#SVGID_00000140009351441413145890000011340316448640433593_);" d="M1973.15,2416.135
					c0,0-122.844,495.283-120.623,1118.548c0.04,11.364,7.561,21.171,18.043,23.513c15.445,3.451,38.149,7.549,56.945,6.99
					c10.034-0.299,18.422-8.193,20.109-18.691c17.225-107.162,116.073-710.868,172.394-808.877c0,0,37.054,537.686,25.21,816.641
					c-0.295,6.937,4.492,12.953,10.994,13.75c9.863,1.21,25.639,2.128,45.719-0.135c7.622-0.859,13.771-6.97,14.859-15.019
					c12.269-90.696,82.887-630.547,79.885-1019.436c-0.17-21.929-54.667-117.285-54.667-117.285H1973.15z"/>
				
					<linearGradient id="SVGID_00000107579321105907852200000009165684822086811580_" gradientUnits="userSpaceOnUse" x1="3011.3159" y1="-67.1332" x2="2718.604" y2="629.3199">
					<stop  offset="0" style="stop-color:#E1473D"/>
					<stop  offset="1" style="stop-color:#E9605A"/>
				</linearGradient>
				<path style="fill:url(#SVGID_00000107579321105907852200000009165684822086811580_);" d="M1784.761,1749.057
					c21.514-58.328,57.798-98.267,94.292-144.41c136.756,26.307,360.909,49.78,454.385,62.273
					c29.182,3.899,55.874,19.163,75.106,42.774c76.267,93.635,243.625,349.992,46.639,608.313
					c-25.208-14.845-61.029-38.651-85.356-66.199c21.792-65.176,23.577-148.465-22.096-250.598
					c-1.56,8.094-3.49,16.109-5.836,23.996c-62.949,211.575-66.309,387.641-66.168,428.219c0.02,5.511-3.098,10.472-7.919,12.521
					c-82.851,35.222-242.333,14.259-295.867,5.796c-9.817-1.552-16.422-11.247-15.062-21.68
					c26.275-201.944-108.571-534.156-144.185-617.364c-5.211-12.172-14.391-21.948-25.874-27.458
					c-5.762-2.767-11.404-5.588-16.985-8.435C1774.082,1780.698,1778.971,1764.757,1784.761,1749.057z"/>
				
					<linearGradient id="SVGID_00000103966195218073251280000016633435041020273801_" gradientUnits="userSpaceOnUse" x1="5223.7246" y1="1423.9426" x2="5076.7661" y2="2059.0134" gradientTransform="matrix(-1 0 0 1 7313.7891 0)">
					<stop  offset="0" style="stop-color:#FEBBBA"/>
					<stop  offset="1" style="stop-color:#FF928E"/>
				</linearGradient>
				<path style="fill:url(#SVGID_00000103966195218073251280000016633435041020273801_);" d="M2190.241,1472.635l9.753,180.544
					c0.288,5.323-2.985,10.127-7.857,11.431c-21.597,5.782-81.292,17.281-133.244-14.083c-6.732-4.063-9.849-12.629-7.732-20.531
					l43.447-162.224L2190.241,1472.635z"/>
				<g>
					
						<linearGradient id="SVGID_00000027588051216698852040000017118268108394388923_" gradientUnits="userSpaceOnUse" x1="2643.2007" y1="2796.9399" x2="2399.2249" y2="3119.7" gradientTransform="matrix(-0.6854 -0.7281 -0.7281 0.6854 5962.7905 1318.7853)">
						<stop  offset="0" style="stop-color:#FEBBBA"/>
						<stop  offset="1" style="stop-color:#FF928E"/>
					</linearGradient>
					<path style="fill:url(#SVGID_00000027588051216698852040000017118268108394388923_);" d="M2083.752,1275.375
						c-2.209,2.207-93.219,191.812-93.219,191.812l103.152,52.829l111.426-166.112
						C2205.111,1353.904,2120.729,1238.447,2083.752,1275.375z"/>
					
						<linearGradient id="SVGID_00000157988944643319282960000012079045515695647371_" gradientUnits="userSpaceOnUse" x1="2462.5803" y1="2874.9023" x2="2747.3494" y2="2874.9023" gradientTransform="matrix(-0.6854 -0.7281 -0.7281 0.6854 5962.7905 1318.7853)">
						<stop  offset="0" style="stop-color:#09005D"/>
						<stop  offset="1" style="stop-color:#1A0F91"/>
					</linearGradient>
					<path style="fill:url(#SVGID_00000157988944643319282960000012079045515695647371_);" d="M2159.469,1358.504
						c1.842,5.05,1.389,10.687-1.236,15.33l-51.448,90.984c-0.781,1.379-1.71,2.628-2.821,3.725
						c-6.124,6.047-27.078,23.638-43.277-0.311c-13.807-20.412-26.761-38.969-40.642-46.622c-8.106-4.469-18.08-0.9-22.197,7.753
						c-8.476,17.823-24.894,54.155-35.209,88.605c-2.586,8.636,1.616,17.906,9.53,21.308c20.887,8.977,62.168,25.213,98.801,30.576
						c6.017,0.882,11.974-1.811,15.556-7.016c15.76-22.906,60.181-86.918,75.341-102.94c14.086-14.887,40.08-9.274,51.794-5.702
						c4.446,1.354,9.181,0.702,13.144-1.831c11.885-7.593,32.623-26.505,13.651-58.523c-4.718-7.961-2.312-18.565,5.093-23.732
						c13.268-9.26,27.666-26.641,13.948-54.788c-13.886-28.494-38.684-31.053-55.573-28.862c-7.473,0.969-15.06-3.189-17.927-10.575
						c-1.275-3.285-3.795-6.084-8.49-7.094c-8.851-1.905-14.662-10.494-12.924-19.897c2.978-16.125,0.735-37.07-23.531-51.226
						c-44.507-25.96-83.493,16.341-93.406,52.049c-9.914,35.709,39.85,60.945,71.151,65.156
						C2141.791,1317.966,2154.398,1344.588,2159.469,1358.504z"/>
					
						<linearGradient id="SVGID_00000154388881848164033020000008430394279445223308_" gradientUnits="userSpaceOnUse" x1="2289.2874" y1="3056.135" x2="2484.9524" y2="2855.3877" gradientTransform="matrix(-0.6854 -0.7281 -0.7281 0.6854 5962.7905 1318.7853)">
						<stop  offset="0" style="stop-color:#FEBBBA"/>
						<stop  offset="1" style="stop-color:#FF928E"/>
					</linearGradient>
					<path style="fill:url(#SVGID_00000154388881848164033020000008430394279445223308_);" d="M2142.546,1493.308
						c0,0,19.791-61.434,45.125-59.178c25.332,2.255,45.271,29.029,13.875,59.127
						C2162.493,1530.695,2142.546,1493.308,2142.546,1493.308z"/>
				</g>
				
					<linearGradient id="SVGID_00000011723710910595939990000000785657295515040145_" gradientUnits="userSpaceOnUse" x1="3154.4431" y1="-6.9757" x2="2861.7317" y2="689.4767">
					<stop  offset="0" style="stop-color:#FF928E"/>
					<stop  offset="1" style="stop-color:#FE7062"/>
				</linearGradient>
				<path style="fill:url(#SVGID_00000011723710910595939990000000785657295515040145_);" d="M2356.086,1985.386
					c33.391-96.95,21.278-214.019,21.15-215.19l-9.2,1.117c0.122,1.149,11.978,115.972-20.654,210.7L2356.086,1985.386z"/>
				
					<linearGradient id="SVGID_00000167387271213852355520000002332832080978345859_" gradientUnits="userSpaceOnUse" x1="5226.5537" y1="2528.6116" x2="5124.1685" y2="2710.8235" gradientTransform="matrix(-1 0 0 1 7313.7891 0)">
					<stop  offset="0" style="stop-color:#09005D"/>
					<stop  offset="1" style="stop-color:#1A0F91"/>
				</linearGradient>
				<path style="fill:url(#SVGID_00000167387271213852355520000002332832080978345859_);" d="M2124.532,2724.994
					c2.057,0,3.939-1.466,4.478-3.68c10.186-41.684,86.47-87.491,87.238-87.95c2.231-1.326,3.026-4.321,1.774-6.689
					c-1.253-2.367-4.063-3.214-6.305-1.881c-3.28,1.95-80.5,48.323-91.672,94.053c-0.642,2.628,0.846,5.311,3.32,5.99
					C2123.753,2724.943,2124.147,2724.994,2124.532,2724.994z"/>
				<g>
					
						<linearGradient id="SVGID_00000175302286589143041730000007047839657001973903_" gradientUnits="userSpaceOnUse" x1="2534.0088" y1="-267.739" x2="2241.2974" y2="428.7129">
						<stop  offset="0" style="stop-color:#E1473D"/>
						<stop  offset="1" style="stop-color:#E9605A"/>
					</linearGradient>
					<path style="fill:url(#SVGID_00000175302286589143041730000007047839657001973903_);" d="M1471.927,1660.665
						c130.032,50.417,407.126-56.017,407.126-56.017l19.067,240.181c-221.893,74.429-366.285,52.758-460.181-9.705
						C1432.099,1764.129,1452.213,1702.34,1471.927,1660.665z"/>
					
						<linearGradient id="SVGID_00000119808958488333737180000015707595086756191151_" gradientUnits="userSpaceOnUse" x1="6067.4946" y1="1198.6105" x2="5919.6235" y2="1681.8591" gradientTransform="matrix(-1 0 0 1 7313.7891 0)">
						<stop  offset="0" style="stop-color:#FEBBBA"/>
						<stop  offset="1" style="stop-color:#FF928E"/>
					</linearGradient>
					<path style="fill:url(#SVGID_00000119808958488333737180000015707595086756191151_);" d="M1264.897,1412.785l54.418-11.434
						c0,0,14.839,183.692,136.044,251.597c5.194,2.911,10.745,5.46,16.568,7.717c-19.714,41.675-39.828,103.464-33.988,174.458
						C1247.135,1708.193,1264.897,1412.785,1264.897,1412.785z"/>
				</g>
				
					<linearGradient id="SVGID_00000100368576275129317330000018062383917727966636_" gradientUnits="userSpaceOnUse" x1="6116.8521" y1="1214.7169" x2="5969.5854" y2="1695.9907" gradientTransform="matrix(-1 0 0 1 7313.7891 0)">
					<stop  offset="0" style="stop-color:#FEBBBA"/>
					<stop  offset="1" style="stop-color:#FF928E"/>
				</linearGradient>
				<path style="fill:url(#SVGID_00000100368576275129317330000018062383917727966636_);" d="M1316.554,1417.362l2.761-16.012
					c0,0,11.35-39.11-18.675-77.61c-43.4-55.651-75.165-35.188-75.165-35.188s2.254,11.905,2.1,22.459
					c-0.124,8.516-9.747,12.828-15.659,7.065l-70.833-69.053c0,0-19.831,109.667,132.07,185.047L1316.554,1417.362z"/>
			</g>
		</g>
		<g>
			<g>
				<g>
					<path style="fill:#BDD0FB;" d="M3163.905,2714.256l-1035.681,0.002v-199.684l1035.681,0.002
						C3141.738,2514.576,3141.738,2714.256,3163.905,2714.256z"/>
					
						<linearGradient id="SVGID_00000099637027888039356280000001865120357563777180_" gradientUnits="userSpaceOnUse" x1="3469.6377" y1="1518.7092" x2="3116.3645" y2="1983.0112">
						<stop  offset="0" style="stop-color:#09005D"/>
						<stop  offset="1" style="stop-color:#1A0F91"/>
					</linearGradient>
					<path style="fill:url(#SVGID_00000099637027888039356280000001865120357563777180_);" d="M2128.224,2664.288v-91.384
						c0-32.215,20.467-58.329,45.714-58.329h985.6c19.854,0,35.949-15.504,35.949-34.631c0-5.811-4.89-10.521-10.923-10.521
						H2107.381c-24.703,0-63.924,37.413-63.924,83.565v127.629c0,43.514,38.076,78.79,61.368,78.79h1074.074
						c9.163,0,16.59-7.155,16.59-15.98c0-16.111-13.558-29.171-30.282-29.171h-997.82
						C2145.757,2714.256,2128.224,2691.885,2128.224,2664.288z"/>
				</g>
				<path style="fill:#FFFFFF;" d="M3128.038,2558.91h-971.09c-1.86,0-3.365-1.507-3.365-3.365s1.505-3.365,3.365-3.365h971.09
					c1.86,0,3.365,1.507,3.365,3.365S3129.898,2558.91,3128.038,2558.91z"/>
				<path style="fill:#FFFFFF;" d="M3128.038,2588.55h-971.09c-1.86,0-3.365-1.507-3.365-3.365s1.505-3.365,3.365-3.365h971.09
					c1.86,0,3.365,1.507,3.365,3.365S3129.898,2588.55,3128.038,2588.55z"/>
				<path style="fill:#FFFFFF;" d="M3128.038,2618.189h-971.09c-1.86,0-3.365-1.507-3.365-3.365s1.505-3.365,3.365-3.365h971.09
					c1.86,0,3.365,1.507,3.365,3.365S3129.898,2618.189,3128.038,2618.189z"/>
				<path style="fill:#FFFFFF;" d="M3128.038,2647.829h-971.09c-1.86,0-3.365-1.507-3.365-3.365c0-1.858,1.505-3.365,3.365-3.365
					h971.09c1.86,0,3.365,1.507,3.365,3.365C3131.403,2646.322,3129.898,2647.829,3128.038,2647.829z"/>
				<path style="fill:#FFFFFF;" d="M3128.038,2677.469h-971.09c-1.86,0-3.365-1.507-3.365-3.365c0-1.858,1.505-3.365,3.365-3.365
					h971.09c1.86,0,3.365,1.507,3.365,3.365C3131.403,2675.962,3129.898,2677.469,3128.038,2677.469z"/>
			</g>
			<g>
				
					<linearGradient id="SVGID_00000151532199381169048380000018256394097130408888_" gradientUnits="userSpaceOnUse" x1="2635.1475" y1="2612.7947" x2="2603.1892" y2="3143.3008">
					<stop  offset="0" style="stop-color:#4F52FF"/>
					<stop  offset="1" style="stop-color:#4042E2"/>
				</linearGradient>
				<path style="fill:url(#SVGID_00000151532199381169048380000018256394097130408888_);" d="M3239.202,3063.317H1995.261
					c-6.831,0-12.369-5.538-12.369-12.369v-281.501c0-6.831,5.538-12.369,12.369-12.369h1243.941
					c6.831,0,12.369,5.538,12.369,12.369v281.501C3251.571,3057.779,3246.033,3063.317,3239.202,3063.317z"/>
				<path style="fill:#7D97F4;" d="M2250.946,3028.121h-100.309c-13.457,0-24.366-10.909-24.366-24.366v-187.114
					c0-13.457,10.909-24.366,24.366-24.366h100.308c13.457,0,24.367,10.909,24.367,24.367v187.114
					C2275.313,3017.212,2264.404,3028.121,2250.946,3028.121z"/>
				<path style="fill:#7D97F4;" d="M2333.338,3028.121h-16.285c-10.945,0-19.818-8.873-19.818-19.818v-196.211
					c0-10.945,8.873-19.818,19.818-19.818h16.285c10.945,0,19.818,8.873,19.818,19.818v196.211
					C2353.156,3019.249,2344.283,3028.121,2333.338,3028.121z"/>
			</g>
		</g>
	</g>
</g>
</svg>
