<svg width="17" height="20" viewBox="0 0 17 20" fill="none" xmlns="http://www.w3.org/2000/svg">
<path d="M16 18.9999L16 17.5499C16 16.5732 16 16.0849 15.8874 15.6856C15.604 14.681 14.8189 13.8958 13.8143 13.6125C13.415 13.4999 12.9266 13.4999 11.95 13.4999H5.05C4.07337 13.4999 3.58505 13.4999 3.18568 13.6125C2.18108 13.8958 1.39596 14.681 1.11263 15.6856C1 16.0849 0.999999 16.5732 0.999999 17.5499L0.999999 18.9999M13.2 5.06C13.2 7.30477 11.3196 9.12452 9 9.12452C6.6804 9.12452 4.8 7.30477 4.8 5.06C4.8 2.81523 6.6804 0.995483 9 0.995483C11.3196 0.995483 13.2 2.81523 13.2 5.06Z" stroke="#0F6990" stroke-width="2" stroke-linecap="round" stroke-linejoin="round"/>
</svg>
