<svg width="24" height="24" viewBox="0 0 24 24" fill="none" xmlns="http://www.w3.org/2000/svg">
<mask id="mask0_15_3" style="mask-type:luminance" maskUnits="userSpaceOnUse" x="0" y="0" width="24" height="25">
<path fill-rule="evenodd" clip-rule="evenodd" d="M0 0.000200272H24V24.0002H0V0.000200272Z" fill="white"/>
</mask>
<g mask="url(#mask0_15_3)">
<path fill-rule="evenodd" clip-rule="evenodd" d="M13.7174 15.9493C15.1269 15.9493 16.2743 17.0352 16.2743 18.37V21.8029C16.2743 22.0897 16.5154 22.3196 16.8245 22.3263H19.056C20.8144 22.3263 22.2439 20.9804 22.2439 19.3264V9.59027C22.2357 9.0211 21.9512 8.48541 21.463 8.1294L13.7443 2.26137C12.7082 1.47904 11.2588 1.47904 10.2192 2.2636L2.55316 8.12717C2.04622 8.49434 1.76173 9.03003 1.75588 9.60924V19.3264C1.75588 20.9804 3.18536 22.3263 4.94381 22.3263H7.19632C7.51359 22.3263 7.77116 22.0863 7.77116 21.7917C7.77116 21.727 7.77935 21.6623 7.7934 21.6009V18.37C7.7934 17.043 8.93371 15.9583 10.3327 15.9493H13.7174ZM19.056 24.0003H16.8035C15.5133 23.9713 14.5182 23.006 14.5182 21.8029V18.37C14.5182 17.9582 14.1588 17.6234 13.7174 17.6234H10.3386C9.90663 17.6256 9.54955 17.9615 9.54955 18.37V21.7917C9.54955 21.8754 9.53784 21.9558 9.51326 22.0317C9.38682 23.1365 8.39637 24.0003 7.19636 24.0003H4.94385C2.21719 24.0003 -0.000200272 21.9033 -0.000200272 19.3264V9.60144C0.0115072 8.49212 0.547707 7.47654 1.47377 6.80805L9.12457 0.954525C10.8093 -0.317737 13.1566 -0.317737 14.8378 0.952293L22.5436 6.8114C23.4486 7.46873 23.9848 8.48208 24 9.57801V19.3264C24 21.9033 21.7826 24.0003 19.056 24.0003V24.0003Z" fill="#0F6990"/>
</g>
</svg>
