<svg xmlns="http://www.w3.org/2000/svg" version="1.1" xmlns:xlink="http://www.w3.org/1999/xlink" xmlns:svgjs="http://svgjs.dev/svgjs" viewBox="0 0 800 800"><g transform="matrix(1,0,0,1,0,0)"><path d="M731.997043715146 575.2665608585376C734.4740730642137 573.8367048735878 737.5259269357863 573.8367048735878 740.002956284854 575.2669611541661L783.9970470379126 600.6669196684497C786.4740763869802 602.0967756533995 788.0000033227665 604.7399276882886 788.0000033227665 607.6000399538167V658.3999569823839C788.0000033227665 661.260069247912 786.4740763869802 663.903221282801 783.9970470379126 665.3334775633793L740.002956284854 690.733436077663C737.5259269357863 692.1632920626129 734.4740730642137 692.1632920626129 731.997043715146 690.7330357820346L688.0029529620874 665.3330772677509C685.5259236130198 663.903221282801 683.9999966772336 661.260069247912 683.9999966772336 658.3999569823839V607.6000399538167C683.9999966772336 604.7399276882886 685.5259236130198 602.0967756533995 688.0029529620874 600.6665193728212L731.997043715146 575.2665608585376Z " stroke-width="1.5" stroke="#0f698f" fill="none" opacity="0.07" transform="rotate(94, 400, 400)"></path><path d="M698.9636256311322 552.4716635394307C701.8149313928336 550.8257578864252 705.3279170307154 550.8257578864252 708.1792227924168 552.4721243192887L758.8207723131079 581.7099886530382C761.6720780748094 583.3558943060436 763.4285708937502 586.3984237088417 763.4285708937502 589.6906957947107V648.1664244622098C763.4285708937502 651.4586965480787 761.6720780748094 654.5012259508768 758.8207723131079 656.1475923837403L708.1792227924168 685.3854567174898C705.3279170307154 687.0313623704952 701.8149313928336 687.0313623704952 698.9636256311322 685.3849959376317L648.3220761104412 656.1471316038823C645.4707703487397 654.5012259508768 643.7142775297989 651.4586965480787 643.7142775297989 648.1664244622098V589.6906957947107C643.7142775297989 586.3984237088417 645.4707703487397 583.3558943060436 648.3220761104412 581.7095278731801L698.9636256311322 552.4716635394307Z " stroke-width="2.5357142857142856" stroke="#0f698f" fill="none" opacity="0.13642857142857143" transform="rotate(98.35714285714286, 400, 400)"></path><path d="M665.9302075471185 529.6767891085073C669.1557897214536 527.8148337874462 673.1299071256444 527.8148337874462 676.3554892999797 529.6773103725949L733.6444975883032 562.7530805258103C736.8700797626385 564.6150358468714 738.8571384647339 568.0569426175786 738.8571384647339 571.7813745237883V637.9329148302193C738.8571384647339 641.657346736429 736.8700797626385 645.0992535071362 733.6444975883032 646.9617300922848L676.3554892999797 680.0375002455003C673.1299071256444 681.8994555665613 669.1557897214536 681.8994555665613 665.9302075471185 680.0369789814126L608.6411992587948 646.9612088281972C605.4156170844597 645.0992535071362 603.4285583823641 641.657346736429 603.4285583823641 637.9329148302193V571.7813745237883C603.4285583823641 568.0569426175786 605.4156170844597 564.6150358468714 608.6411992587948 562.7525592617227L665.9302075471185 529.6767891085073Z " stroke-width="3.5714285714285716" stroke="#0f698f" fill="none" opacity="0.20285714285714285" transform="rotate(102.71428571428571, 400, 400)"></path><path d="M632.8968047218937 506.8818994187948C636.4966633088627 504.80389442967817 640.9319124793626 504.80389442967817 644.5317710663317 506.882481167112L708.4682381222877 543.7961571397934C712.0680967092569 545.87416212891 714.2857212945067 549.7154462675262 714.2857212945067 553.8720379940768V627.6993899394396C714.2857212945067 631.8559816659902 712.0680967092569 635.6972658046063 708.4682381222877 637.7758525420402L644.5317710663317 674.6895285147216C640.9319124793626 676.7675335038382 636.4966633088627 676.7675335038382 632.8968047218937 674.6889467664043L568.9603376659377 637.7752707937229C565.3604790789684 635.6972658046063 563.1428544937186 631.8559816659902 563.1428544937186 627.6993899394396V553.8720379940768C563.1428544937186 549.7154462675262 565.3604790789684 545.87416212891 568.9603376659377 543.7955753914762L632.8968047218937 506.8818994187948Z " stroke-width="4.607142857142858" stroke="#0f698f" fill="none" opacity="0.26928571428571424" transform="rotate(107.07142857142857, 400, 400)"></path><path d="M599.8633866378798 484.0870173584767C603.8375216374827 481.79296270130453 608.7339025742916 481.79296270130453 612.7080375738947 484.08765959102357L683.2919633974832 524.8392413831709C687.2660983970861 527.1332960403431 689.7142888654905 531.3739575468685 689.7142888654905 535.9627090937597V617.4658726780544C689.7142888654905 622.0546242249457 687.2660983970861 626.295285731471 683.2919633974832 628.5899826211901L612.7080375738947 669.3415644133373C608.7339025742916 671.6356190705096 603.8375216374827 671.6356190705096 599.8633866378798 669.3409221807906L529.2794608142913 628.5893403886432C525.3053258146883 626.295285731471 522.8571353462839 622.0546242249457 522.8571353462839 617.4658726780544V535.9627090937597C522.8571353462839 531.3739575468685 525.3053258146883 527.1332960403431 529.2794608142913 524.8385991506241L599.8633866378798 484.0870173584767Z " stroke-width="5.642857142857143" stroke="#0f698f" fill="none" opacity="0.3357142857142857" transform="rotate(111.42857142857143, 400, 400)"></path><path d="M566.8299685538661 461.2921276687643C571.178379966103 458.7820233435365 576.5358926692209 458.7820233435365 580.8843040814577 461.2928303855407L658.1156886726786 505.8823179971539C662.4641000849155 508.3924223223818 665.1428564364744 513.0324611968161 665.1428564364744 518.0533725640482V607.2323477872748C665.1428564364744 612.2532591545068 662.4641000849155 616.8932980289412 658.1156886726786 619.4041050709454L580.8843040814577 663.9935926825586C576.5358926692209 666.5036970077865 571.178379966103 666.5036970077865 566.8299685538661 663.9928899657823L489.5985839626451 619.4034023541691C485.2501725504083 616.8932980289412 482.57141619884936 612.2532591545068 482.57141619884936 607.2323477872748V518.0533725640482C482.57141619884936 513.0324611968161 485.2501725504083 508.3924223223818 489.5985839626451 505.88161528037756L566.8299685538661 461.2921276687643Z " stroke-width="6.678571428571429" stroke="#0f698f" fill="none" opacity="0.4021428571428571" transform="rotate(115.78571428571428, 400, 400)"></path><path d="M533.7965657286413 438.4972456084464C538.519253553512 435.77109161516296 544.3378980229389 435.77109161516296 549.0605858478095 438.49800880945236L632.9394292066631 486.9254022405315C637.6621170315337 489.651556233815 640.5714392662471 494.6909724761584 640.5714392662471 500.1440436637313V596.9988305258896C640.5714392662471 602.4519017134626 637.6621170315337 607.4913179558059 632.9394292066631 610.2182351500953L549.0605858478095 658.6456285811746C544.3378980229389 661.371782574458 538.519253553512 661.371782574458 533.7965657286413 658.6448653801685L449.91772236978784 610.2174719490894C445.1950345449172 607.4913179558059 442.28571231020373 602.4519017134626 442.28571231020373 596.9988305258896V500.1440436637313C442.28571231020373 494.6909724761584 445.1950345449172 489.651556233815 449.91772236978784 486.9246390395256L533.7965657286413 438.4972456084464Z " stroke-width="7.714285714285715" stroke="#0f698f" fill="none" opacity="0.4685714285714285" transform="rotate(120.14285714285714, 400, 400)"></path><path d="M500.7631476446275 415.70234065994487C505.860111882132 412.76013699860584 512.1398881178679 412.76013699860584 517.2368523553725 415.7031643451804L607.7631544818585 467.96846359572555C612.860118719363 470.9106672570646 616.000006837231 476.3494608673171 616.000006837231 482.23469187523074V586.765290376321C616.000006837231 592.6505213842347 612.860118719363 598.0893149944872 607.7631544818585 601.0323423410617L517.2368523553725 653.2976415916069C512.1398881178679 656.2398452529459 505.860111882132 656.2398452529459 500.7631476446275 653.2968179063713L410.23684551814154 601.0315186558262C405.13988128063704 598.0893149944872 401.99999316276904 592.6505213842347 401.99999316276904 586.765290376321V482.23469187523074C401.99999316276904 476.3494608673171 405.13988128063704 470.9106672570646 410.23684551814154 467.96763991049L500.7631476446275 415.70234065994487Z " stroke-width="8.75" stroke="#0f698f" fill="none" opacity="0.5349999999999999" transform="rotate(124.5, 400, 400)"></path><path d="M467.7297295606137 392.9074357114434C473.200970210752 389.74918238204873 479.94187821279706 389.74918238204873 485.41311886293545 392.9083198809085L582.5868797570538 449.0115249509196C588.0581204071922 452.16977828031423 591.4285744082147 458.0079492584757 591.4285744082147 464.3253400867302V576.5317502267524C591.4285744082147 582.8491410550068 588.0581204071922 588.6873120331684 582.5868797570538 591.8464495320281L485.41311886293545 647.9496546020391C479.94187821279706 651.1079079314338 473.200970210752 651.1079079314338 467.7297295606137 647.9487704325741L370.55596866649523 591.845565362563C365.0847280163569 588.6873120331684 361.71427401533435 582.8491410550068 361.71427401533435 576.5317502267524V464.3253400867302C361.71427401533435 458.0079492584757 365.0847280163569 452.16977828031423 370.55596866649523 449.01064078145447L467.7297295606137 392.9074357114434Z " stroke-width="9.785714285714286" stroke="#0f698f" fill="none" opacity="0.6014285714285714" transform="rotate(128.85714285714286, 400, 400)"></path><path d="M434.6963114765998 370.1125841687036C440.541828539372 366.73828117125333 447.74386830772613 366.73828117125333 453.5893853704983 370.1135288223983L557.4106050322492 430.05463971187527C563.2561220950214 433.42894270932555 566.8571419791984 439.66649105539614 566.8571419791984 446.41604170399137V566.2982634829453C566.8571419791984 573.0478141315406 563.2561220950214 579.2853624776112 557.4106050322492 582.6606101287562L453.5893853704983 642.6017210182331C447.74386830772613 645.9760240156834 440.541828539372 645.9760240156834 434.6963114765998 642.6007763645384L330.87509181484893 582.6596654750615C325.02957475207677 579.2853624776112 321.42855486789966 573.0478141315406 321.42855486789966 566.2982634829453V446.41604170399137C321.42855486789966 439.66649105539614 325.02957475207677 433.42894270932555 330.87509181484893 430.0536950581806L434.6963114765998 370.1125841687036Z " stroke-width="10.821428571428573" stroke="#0f698f" fill="none" opacity="0.6678571428571427" transform="rotate(133.21428571428572, 400, 400)"></path><path d="M401.662893392586 347.31768684959656C407.882686867992 343.72733418409064 415.5458584026552 343.72733418409064 421.76565187806125 347.3186919875208L532.2343303074446 411.0977086964637C538.4541237828506 414.68806136196963 542.2857095501822 421.32498707594925 542.2857095501822 428.5066975448853V556.0647309627711C542.2857095501822 563.2464414317071 538.4541237828506 569.8833671456869 532.2343303074446 573.474724949117L421.76565187806125 637.2537416580599C415.5458584026552 640.8440943235657 407.882686867992 640.8440943235657 401.662893392586 637.2527365201356L291.1942149632026 573.4737198111927C284.9744214877966 569.8833671456869 281.14283572046503 563.2464414317071 281.14283572046503 556.0647309627711V428.5066975448853C281.14283572046503 421.32498707594925 284.9744214877966 414.68806136196963 291.1942149632026 411.0967035585395L401.662893392586 347.31768684959656Z " stroke-width="11.857142857142858" stroke="#0f698f" fill="none" opacity="0.7342857142857142" transform="rotate(137.57142857142856, 400, 400)"></path><path d="M368.62947530857224 324.52277427170054C375.22354519661206 320.71637193813905 383.3478484975843 320.71637193813905 389.9419183856242 324.5238398938544L507.05805558264007 392.1407624222632C513.65212547068 395.9471647558247 517.7142771211661 402.9834678377134 517.7142771211661 410.5973381269903V545.831183183808C517.7142771211661 553.4450534730847 513.65212547068 560.4813565549734 507.05805558264007 564.2888245106888L389.9419183856242 631.9057470390978C383.3478484975843 635.7121493726593 375.22354519661206 635.7121493726593 368.62947530857224 631.904681416944L251.51333811155638 564.287758888535C244.9192682235165 560.4813565549734 240.8571165730304 553.4450534730847 240.8571165730304 545.831183183808V410.5973381269903C240.8571165730304 402.9834678377134 244.9192682235165 395.9471647558247 251.51333811155638 392.1396968001094L368.62947530857224 324.52277427170054Z " stroke-width="12.892857142857144" stroke="#0f698f" fill="none" opacity="0.8007142857142857" transform="rotate(141.92857142857142, 400, 400)"></path><path d="M335.5960877421365 301.72792272896066C342.5644340428102 297.7054707273436 351.1498691100915 297.7054707273436 358.11821541076523 301.7290488353441L481.88181137541363 373.1838771832189C488.85015767608724 377.20632918483597 493.14287520972783 384.6420096346337 493.14287520972783 392.68803974425134V535.5976964400008C493.14287520972783 543.6437265496186 488.85015767608724 551.0794069994163 481.88181137541363 555.1029851074168L358.11821541076523 626.5578134552916C351.1498691100915 630.5802654569086 342.5644340428102 630.5802654569086 335.5960877421365 626.5566873489081L211.8324917774882 555.1018590010333C204.86414547681449 551.0794069994163 200.57142794317383 543.6437265496186 200.57142794317383 535.5976964400008V392.68803974425134C200.57142794317383 384.6420096346337 204.86414547681449 377.20632918483597 211.8324917774882 373.1827510768355L335.5960877421365 301.72792272896066Z " stroke-width="13.92857142857143" stroke="#0f698f" fill="none" opacity="0.867142857142857" transform="rotate(146.28571428571428, 400, 400)"></path><path d="M302.56266965812273 278.9330254098537C309.9052923714302 274.694523740181 318.9518592050205 274.694523740181 326.29448191832813 278.9342120004667L456.70553665060885 354.2269461678074C464.04815936391645 358.4654478374801 468.5714427807116 366.30050565518695 468.5714427807116 374.77869558514533V525.3641639198268C468.5714427807116 533.8423538497852 464.04815936391645 541.677411667492 456.70553665060885 545.9170999277777L326.29448191832813 621.2098340951184C318.9518592050205 625.4483357647911 309.9052923714302 625.4483357647911 302.56266965812273 621.2086475045054L172.15161492584184 545.9159133371647C164.80899221253435 541.677411667492 160.28570879573914 533.8423538497852 160.28570879573914 525.3641639198268V374.77869558514533C160.28570879573914 366.30050565518695 164.80899221253435 358.4654478374801 172.15161492584184 354.2257595771944L302.56266965812273 278.9330254098537Z " stroke-width="14.964285714285715" stroke="#0f698f" fill="none" opacity="0.9335714285714285" transform="rotate(150.64285714285714, 400, 400)"></path><path d="M269.5292515741089 256.1381280907467C277.2461507000503 251.68357675301843 286.7538492999497 251.68357675301843 294.4707484258911 256.13937516558934L431.52926192580435 335.27001515239596C439.24616105174573 339.72456649012423 444.00001035169544 347.9590016757401 444.00001035169544 356.8693514260394V515.1306313996527C444.00001035169544 524.0409811499519 439.24616105174573 532.2754163355677 431.52926192580435 536.7312147481385L294.4707484258911 615.8618547349452C286.7538492999497 620.3164060726735 277.2461507000503 620.3164060726735 269.5292515741089 615.8606076601027L132.4707380741956 536.729967673296C124.75383894825421 532.2754163355677 119.9999896483045 524.0409811499519 119.9999896483045 515.1306313996527V356.8693514260394C119.9999896483045 347.9590016757401 124.75383894825421 339.72456649012423 132.4707380741956 335.2687680775534L269.5292515741089 256.1381280907467Z " stroke-width="16" stroke="#0f698f" fill="none" opacity="1" transform="rotate(155, 400, 400)"></path></g></svg>