<svg width="25" height="24" viewBox="0 0 25 24" fill="none" xmlns="http://www.w3.org/2000/svg">
<path fill-rule="evenodd" clip-rule="evenodd" d="M11.2057 23.6667H5.50533C2.654 23.6667 0.333496 21.3462 0.333496 18.4925V5.50868C0.333496 2.65501 2.654 0.333344 5.50533 0.333344H11.1928C14.0465 0.333344 16.3682 2.65501 16.3682 5.50868V6.59601C16.3682 7.07901 15.9762 7.47101 15.4932 7.47101C15.0102 7.47101 14.6182 7.07901 14.6182 6.59601V5.50868C14.6182 3.61868 13.0817 2.08334 11.1928 2.08334H5.50533C3.61883 2.08334 2.0835 3.61868 2.0835 5.50868V18.4925C2.0835 20.3813 3.61883 21.9167 5.50533 21.9167H11.2057C13.0863 21.9167 14.6182 20.386 14.6182 18.5053V17.4052C14.6182 16.9222 15.0102 16.5302 15.4932 16.5302C15.9762 16.5302 16.3682 16.9222 16.3682 17.4052V18.5053C16.3682 21.352 14.0512 23.6667 11.2057 23.6667" fill="#FF0000"/>
<mask id="mask0_12_3" style="mask-type:luminance" maskUnits="userSpaceOnUse" x="8" y="11" width="17" height="2">
<path fill-rule="evenodd" clip-rule="evenodd" d="M8.49526 11.125H24.293V12.875H8.49526V11.125Z" fill="white"/>
</mask>
<g mask="url(#mask0_12_3)">
<path fill-rule="evenodd" clip-rule="evenodd" d="M23.4181 12.875H9.37026C8.88726 12.875 8.49526 12.483 8.49526 12C8.49526 11.517 8.88726 11.125 9.37026 11.125H23.4181C23.9011 11.125 24.2931 11.517 24.2931 12C24.2931 12.483 23.9011 12.875 23.4181 12.875" fill="#FF0000"/>
</g>
<mask id="mask1_12_3" style="mask-type:luminance" maskUnits="userSpaceOnUse" x="19" y="7" width="6" height="10">
<path fill-rule="evenodd" clip-rule="evenodd" d="M19.1277 7.72451H24.293V16.277H19.1277V7.72451Z" fill="white"/>
</mask>
<g mask="url(#mask1_12_3)">
<path fill-rule="evenodd" clip-rule="evenodd" d="M20.0025 16.277C19.7785 16.277 19.5533 16.1919 19.383 16.0192C19.0423 15.6762 19.0435 15.1232 19.3853 14.7825L22.1783 12L19.3853 9.21872C19.0435 8.87805 19.0411 8.32505 19.383 7.98205C19.7236 7.63905 20.2766 7.63905 20.6196 7.97972L24.0356 11.3805C24.2013 11.5439 24.2935 11.7679 24.2935 12C24.2935 12.2322 24.2013 12.4562 24.0356 12.6195L20.6196 16.0215C20.4493 16.1919 20.2253 16.277 20.0025 16.277" fill="#FF0000"/>
</g>
</svg>
