<svg width="25" height="25" viewBox="0 0 25 25" fill="none" xmlns="http://www.w3.org/2000/svg">
<path fill-rule="evenodd" clip-rule="evenodd" d="M11.224 24.3333H5.51408C2.65792 24.3333 0.333496 21.9465 0.333496 19.0113V5.65654C0.333496 2.72134 2.65792 0.333344 5.51408 0.333344H11.2112C14.0697 0.333344 16.3953 2.72134 16.3953 5.65654V6.77494C16.3953 7.27174 16.0026 7.67494 15.5188 7.67494C15.035 7.67494 14.6423 7.27174 14.6423 6.77494V5.65654C14.6423 3.71254 13.1032 2.13334 11.2112 2.13334H5.51408C3.62439 2.13334 2.08646 3.71254 2.08646 5.65654V19.0113C2.08646 20.9541 3.62439 22.5333 5.51408 22.5333H11.224C13.1079 22.5333 14.6423 20.9589 14.6423 19.0245V17.8929C14.6423 17.3961 15.035 16.9929 15.5188 16.9929C16.0026 16.9929 16.3953 17.3961 16.3953 17.8929V19.0245C16.3953 21.9525 14.0744 24.3333 11.224 24.3333" fill="#FF0000"/>
<mask id="mask0_12_3" style="mask-type:luminance" maskUnits="userSpaceOnUse" x="8" y="11" width="17" height="3">
<path fill-rule="evenodd" clip-rule="evenodd" d="M8.50906 11.4334H24.3335V13.2334H8.50906V11.4334Z" fill="white"/>
</mask>
<g mask="url(#mask0_12_3)">
<path fill-rule="evenodd" clip-rule="evenodd" d="M23.4571 13.2334H9.38554C8.90173 13.2334 8.50906 12.8302 8.50906 12.3334C8.50906 11.8366 8.90173 11.4334 9.38554 11.4334H23.4571C23.9409 11.4334 24.3336 11.8366 24.3336 12.3334C24.3336 12.8302 23.9409 13.2334 23.4571 13.2334" fill="#FF0000"/>
</g>
<mask id="mask1_12_3" style="mask-type:luminance" maskUnits="userSpaceOnUse" x="19" y="7" width="6" height="10">
<path fill-rule="evenodd" clip-rule="evenodd" d="M19.1595 7.93568H24.3335V16.7326H19.1595V7.93568Z" fill="white"/>
</mask>
<g mask="url(#mask1_12_3)">
<path fill-rule="evenodd" clip-rule="evenodd" d="M20.0357 16.7326C19.8113 16.7326 19.5858 16.645 19.4152 16.4674C19.0739 16.1146 19.0751 15.5458 19.4175 15.1954L22.2152 12.3334L19.4175 9.47258C19.0751 9.12218 19.0728 8.55338 19.4152 8.20058C19.7564 7.84778 20.3103 7.84778 20.6539 8.19818L24.0757 11.6962C24.2416 11.8642 24.334 12.0946 24.334 12.3334C24.334 12.5722 24.2416 12.8026 24.0757 12.9706L20.6539 16.4698C20.4833 16.645 20.2589 16.7326 20.0357 16.7326" fill="#FF0000"/>
</g>
</svg>
