<svg width="861" height="861" viewBox="0 0 861 861" fill="none" xmlns="http://www.w3.org/2000/svg">
<path d="M430.684 860.335C668.243 860.335 860.823 667.755 860.823 430.196C860.823 192.637 668.243 0.0568848 430.684 0.0568848C193.125 0.0568848 0.544922 192.637 0.544922 430.196C0.544922 667.755 193.125 860.335 430.684 860.335Z" fill="#006FBA"/>
<path d="M680.109 235.621C679.984 235.486 679.869 235.344 679.737 235.214C679.416 234.896 679.079 234.605 678.733 234.33C667.397 224.127 652.41 217.905 635.993 217.905H225.375C208.958 217.905 193.97 224.128 182.634 234.331C182.288 234.605 181.952 234.896 181.631 235.213C181.499 235.344 181.384 235.485 181.259 235.62C169.047 247.275 161.416 263.69 161.416 281.863V575.234C161.416 593.406 169.046 609.818 181.255 621.474C181.381 621.611 181.498 621.754 181.632 621.886C181.954 622.204 182.291 622.496 182.637 622.771C193.973 632.973 208.96 639.195 225.375 639.195H635.993C652.409 639.195 667.396 632.973 678.733 622.77C679.079 622.496 679.416 622.204 679.737 621.887C679.871 621.755 679.987 621.612 680.114 621.475C692.323 609.82 699.953 593.407 699.953 575.235V281.864C699.952 263.69 692.321 247.276 680.109 235.621ZM505.587 428.551L670.35 261.928C673.766 267.793 675.734 274.601 675.734 281.864V575.235C675.734 582.498 673.766 589.306 670.349 595.171L505.587 428.551ZM635.993 242.123C641.83 242.123 647.371 243.398 652.369 245.669L480.05 419.932C480.047 419.935 480.045 419.936 480.042 419.939C480.038 419.943 480.035 419.947 480.031 419.951L449.997 450.324C444.855 455.525 437.997 458.389 430.684 458.389C423.372 458.389 416.513 455.525 411.371 450.323L381.345 419.958C381.339 419.952 381.334 419.945 381.328 419.939C381.324 419.935 381.32 419.932 381.316 419.928L209 245.668C213.998 243.398 219.539 242.122 225.376 242.122L635.993 242.123ZM191.019 595.172C187.602 589.307 185.634 582.499 185.634 575.236V281.864C185.634 274.601 187.602 267.793 191.018 261.928L355.78 428.551L191.019 595.172ZM225.375 614.977C219.538 614.977 213.997 613.702 209 611.432L372.811 445.773L394.149 467.352C403.877 477.19 416.852 482.608 430.684 482.608C444.517 482.608 457.492 477.19 467.219 467.353L488.558 445.773L652.369 611.432C647.372 613.702 641.83 614.977 635.994 614.977H225.375Z" fill="white"/>
</svg>
