<svg width="22" height="18" viewBox="0 0 22 18" fill="none" xmlns="http://www.w3.org/2000/svg">
<path fill-rule="evenodd" clip-rule="evenodd" d="M12.5996 4.1709C12.1856 4.1709 11.8496 3.8349 11.8496 3.4209V0.999901C11.8496 0.585901 12.1856 0.249901 12.5996 0.249901C13.0136 0.249901 13.3496 0.585901 13.3496 0.999901V3.4209C13.3496 3.8349 13.0136 4.1709 12.5996 4.1709" fill="#0F6990"/>
<path fill-rule="evenodd" clip-rule="evenodd" d="M12.5996 17.2842C12.1856 17.2842 11.8496 16.9482 11.8496 16.5342V14.5112C11.8496 14.0962 12.1856 13.7612 12.5996 13.7612C13.0136 13.7612 13.3496 14.0962 13.3496 14.5112V16.5342C13.3496 16.9482 13.0136 17.2842 12.5996 17.2842" fill="#0F6990"/>
<path fill-rule="evenodd" clip-rule="evenodd" d="M12.5996 11.8252C12.1856 11.8252 11.8496 11.4892 11.8496 11.0752V6.2542C11.8496 5.8402 12.1856 5.5042 12.5996 5.5042C13.0136 5.5042 13.3496 5.8402 13.3496 6.2542V11.0752C13.3496 11.4892 13.0136 11.8252 12.5996 11.8252" fill="#0F6990"/>
<mask id="mask0_22_27" style="mask-type:luminance" maskUnits="userSpaceOnUse" x="0" y="0" width="22" height="18">
<path fill-rule="evenodd" clip-rule="evenodd" d="M0 0H21.5V17.4997H0V0Z" fill="white"/>
</mask>
<g mask="url(#mask0_22_27)">
<path fill-rule="evenodd" clip-rule="evenodd" d="M1.5 11.5537V13.4927C1.5 14.8747 2.643 15.9997 4.048 15.9997H17.452C18.857 15.9997 20 14.8747 20 13.4927V11.5537C18.749 11.2247 17.823 10.0927 17.823 8.7507C17.823 7.4077 18.748 6.2767 20 5.9477L19.999 4.0067C19.999 2.6247 18.856 1.4997 17.451 1.4997H4.049C2.644 1.4997 1.501 2.6247 1.501 4.0067L1.5 6.0247C2.767 6.3357 3.677 7.4217 3.677 8.7507C3.677 10.0927 2.751 11.2247 1.5 11.5537M17.452 17.4997H4.048C1.816 17.4997 0 15.7017 0 13.4927V10.9007C0 10.4867 0.336 10.1507 0.75 10.1507C1.537 10.1507 2.177 9.5227 2.177 8.7507C2.177 8.0007 1.563 7.4347 0.75 7.4347C0.551 7.4347 0.36 7.3557 0.22 7.2147C0.079 7.0747 0 6.8827 0 6.6847L0.001 4.0067C0.001 1.7977 1.817 -0.000297546 4.049 -0.000297546H17.451C19.683 -0.000297546 21.499 1.7977 21.499 4.0067L21.5 6.6007C21.5 6.7987 21.421 6.9907 21.28 7.1307C21.14 7.2717 20.949 7.3507 20.75 7.3507C19.963 7.3507 19.323 7.9787 19.323 8.7507C19.323 9.5227 19.963 10.1507 20.75 10.1507C21.164 10.1507 21.5 10.4867 21.5 10.9007V13.4927C21.5 15.7017 19.684 17.4997 17.452 17.4997" fill="#0F6990"/>
</g>
</svg>
