<svg width="2000" height="2000" viewBox="0 0 2000 2000" fill="none" xmlns="http://www.w3.org/2000/svg">
<g clip-path="url(#clip0_138_75)">
<path d="M2000 0H0V2000H2000V0Z" fill="#EBF3FA"/>
<path d="M860.387 1076.66C860.387 1076.66 780.641 1257.03 747.996 1240.12C715.352 1223.21 851.347 1045.54 851.347 1045.54C851.347 1045.54 752.01 872.091 689.891 837.68C689.891 837.68 674.73 1056.92 647.252 1032.5C619.775 1008.07 624.955 779.196 624.955 779.196C624.955 779.196 492.148 646.374 405.715 719.763C319.282 793.152 327.733 865.373 346.403 886.512C365.073 907.651 511.034 1005.24 494.358 1021.45C477.682 1037.65 359.314 1000.54 316.455 946.165C316.455 946.165 274.521 1135.93 358.599 1182.67C442.677 1229.42 500.689 1197.36 552.122 1227.19C603.555 1257.02 630.21 1294.72 596.742 1291.08C563.274 1287.43 486.686 1221.75 424.167 1228.17C361.648 1234.58 315.498 1233.28 378.437 1298.7C441.376 1364.11 579.353 1445.14 644.412 1406.87C647.248 1405.2 649.954 1403.6 652.548 1402.08C647.758 1405.64 644.412 1406.87 644.412 1406.87C652.508 1424.05 646.924 1475.59 641.154 1514.11C639.781 1520.4 638.283 1529.37 636.653 1541.84C635.696 1547.32 634.878 1551.78 634.295 1554.89C615.688 1637.28 525.271 1739.47 525.271 1739.47L538.034 1754.44C650.058 1665.81 652.744 1531.58 652.744 1531.58C663.671 1431.18 709.472 1368.59 709.472 1368.59C709.472 1368.59 904.641 1386.57 912.517 1234.26C912.517 1234.26 905.125 1132.33 860.387 1076.66Z" fill="#DFEBFD"/>
<path d="M1432.77 997.383C1432.77 997.383 1337.54 1187.89 1240.81 1319.4C1202.32 1371.74 1163.59 1414.73 1130.53 1432.66C1098.18 1450.2 1070.78 1477.46 1048.12 1507.67C989.416 1585.87 962.326 1683.78 962.326 1683.78L714.965 1309.56C714.965 1309.56 723.406 943.743 753.106 882.552C796.393 793.381 817.303 613.211 833.933 577.342C846.27 550.733 881.5 413.284 884.879 403.184C886.346 398.831 898.069 392.158 913.292 392.17C925.509 392.17 946.25 403.978 951.481 428.243C977.934 550.89 946.094 631.788 946.455 635.383C955.786 729.641 927.733 799.609 947.405 818.138C948.139 818.824 949.497 818.499 951.422 817.272C985.522 795.376 1197.17 486.812 1223.24 480.15C1250.77 473.129 1432.77 997.383 1432.77 997.383Z" fill="#EFA26F"/>
<path d="M1036.74 1609.72C1036.74 1609.72 1033.37 1776.02 1023.73 2000H399.782C542.405 1695.86 666.398 1439.88 666.398 1439.88C666.398 1439.88 1021.67 1450.73 1036.74 1609.72Z" fill="#F99746"/>
<path d="M1649.04 352.626L1572.44 464.922L1497.27 575.125C1492.69 580.655 1487.38 582.577 1481.64 582.024C1463.61 580.312 1441.29 554.295 1423.9 539.892L1422.13 538.443C1399.19 519.47 1395.96 485.185 1414.93 462.262L1529.82 323.383V323.37L1563.89 282.185C1582.87 259.249 1617.15 256.01 1640.07 274.983L1641.84 276.431C1664.77 295.405 1668.01 329.69 1649.04 352.626Z" fill="#FFB27D"/>
<path d="M1572.44 464.922L1497.27 575.125C1492.69 580.655 1487.38 582.577 1481.64 582.024L1529.82 323.383C1529.92 324.832 1538.11 440.88 1572.44 464.922Z" fill="#EFA26F"/>
<path d="M1240.81 1319.4C1202.32 1371.74 1163.59 1414.73 1130.53 1432.66C1098.18 1450.2 1070.78 1477.46 1048.12 1507.66C1022.05 1495.51 992.329 1481.25 963.281 1467.14C927.909 1449.94 926.553 1399.72 961.198 1381.1C961.536 1380.92 961.868 1380.74 962.193 1380.55C994.658 1361.98 1027.93 1296.38 1027.93 1296.38L1240.81 1319.4Z" fill="#D38254"/>
<path d="M883.154 408.875L863.112 489.79C863.112 489.79 880.632 496.958 891.885 491.393C903.137 485.827 912.318 413.231 883.154 408.875Z" fill="#FFC197"/>
<path d="M1459.54 1357.64H1028.56C986.165 1357.64 951.481 1322.95 951.481 1280.56V333.247C951.481 290.855 986.166 256.17 1028.56 256.17H1459.54C1501.93 256.17 1536.61 290.855 1536.61 333.247V1280.56C1536.61 1322.95 1501.93 1357.64 1459.54 1357.64Z" fill="#2B478B"/>
<path d="M1507.61 340.543V1265.9C1507.61 1297.29 1482.11 1322.97 1450.96 1322.97H1037.13C1005.98 1322.97 980.487 1297.29 980.487 1265.9V340.543C980.487 309.15 1005.98 283.472 1037.13 283.472H1450.96C1482.11 283.471 1507.61 309.149 1507.61 340.543Z" fill="#C0D8FB"/>
<path d="M1450.96 283.471L1042.25 1322.97H1037.13C1005.98 1322.97 980.487 1297.29 980.487 1265.9V340.543C980.487 309.15 1005.98 283.472 1037.13 283.472L1450.96 283.471Z" fill="#CBE1FD"/>
<path d="M1468.87 580.528V1242.07C1468.87 1255.9 1457.66 1267.11 1443.83 1267.11H1044.27C1030.44 1267.11 1019.23 1255.9 1019.23 1242.07V580.528C1019.23 566.696 1030.44 555.482 1044.27 555.482H1443.83C1457.66 555.482 1468.87 566.696 1468.87 580.528Z" fill="#2B478B"/>
<path d="M1236.98 1100.07V1186.22C1236.98 1191.76 1232.5 1196.25 1226.96 1196.25H1154.51C1148.97 1196.25 1144.48 1191.76 1144.48 1186.22V1100.07C1144.48 1094.54 1148.97 1090.05 1154.51 1090.05H1226.96C1232.5 1090.05 1236.98 1094.54 1236.98 1100.07Z" fill="#C47B3F"/>
<path d="M1114.5 1218.36C1127.89 1204.98 1127.89 1183.28 1114.5 1169.9C1101.12 1156.51 1079.42 1156.51 1066.04 1169.9C1052.66 1183.28 1052.66 1204.98 1066.04 1218.36C1079.42 1231.75 1101.12 1231.75 1114.5 1218.36Z" fill="#A3B0C4"/>
<path d="M1164.49 631.352C1164.49 632.04 1164.27 632.732 1163.82 633.317C1162.73 634.714 1160.72 634.965 1159.32 633.879C1145.12 622.837 1119.13 622.897 1102.56 634.011C1101.09 634.996 1099.1 634.604 1098.12 633.135C1097.13 631.666 1097.53 629.676 1098.99 628.69C1108.24 622.492 1120.11 619.146 1132.44 619.271C1144.37 619.392 1155.61 622.873 1163.26 628.822C1164.07 629.453 1164.49 630.397 1164.49 631.352Z" fill="#739AF0"/>
<path d="M1158.26 644.863C1158.26 645.551 1158.04 646.243 1157.59 646.828C1156.5 648.225 1154.49 648.476 1153.09 647.39C1147.99 643.423 1140.34 641.099 1132.09 641.016C1123.45 640.929 1115.18 643.239 1108.79 647.522C1107.32 648.507 1105.33 648.115 1104.35 646.646C1103.36 645.177 1103.75 643.187 1105.22 642.201C1112.67 637.205 1122.24 634.509 1132.16 634.61C1141.78 634.707 1150.84 637.522 1157.03 642.333C1157.84 642.964 1158.26 643.908 1158.26 644.863Z" fill="#739AF0"/>
<path d="M1152.75 656.567C1152.75 657.255 1152.53 657.947 1152.07 658.532C1150.98 659.929 1148.97 660.18 1147.58 659.094C1143.77 656.134 1138.03 654.401 1131.84 654.339C1125.33 654.273 1119.11 656.009 1114.31 659.226C1112.84 660.211 1110.85 659.819 1109.86 658.35C1108.88 656.881 1109.27 654.891 1110.74 653.905C1116.6 649.975 1124.12 647.853 1131.91 647.932C1139.58 648.01 1146.55 650.177 1151.51 654.036C1152.32 654.667 1152.75 655.612 1152.75 656.567Z" fill="#739AF0"/>
<path d="M1146.87 667.064C1146.87 667.752 1146.65 668.444 1146.2 669.029C1145.11 670.426 1143.1 670.677 1141.7 669.591C1137.03 665.959 1127.05 665.119 1120.18 669.723C1118.71 670.708 1116.72 670.316 1115.74 668.847C1114.75 667.378 1115.14 665.388 1116.61 664.402C1125.15 658.672 1138.17 658.731 1145.64 664.534C1146.45 665.165 1146.87 666.11 1146.87 667.064Z" fill="#739AF0"/>
<path d="M1265.84 1186.99C1265.84 1185.03 1266.63 1183.02 1268.21 1180.95C1269.79 1178.87 1272.13 1177.22 1275.24 1175.97C1278.35 1174.73 1282.12 1174.11 1286.55 1174.11C1292.4 1174.11 1297.08 1175.4 1300.6 1177.98C1304.12 1180.57 1305.87 1183.71 1305.87 1187.41C1305.87 1189.54 1305.16 1191.67 1303.73 1193.78C1302.3 1195.9 1300.08 1197.58 1297.07 1198.84C1294.06 1200.1 1290.22 1200.73 1285.57 1200.73C1280.12 1200.73 1275.47 1199.48 1271.62 1196.98C1267.77 1194.48 1265.84 1191.15 1265.84 1186.99ZM1303.26 1187.49C1303.26 1185.05 1301.68 1183.15 1298.52 1181.8C1295.37 1180.45 1290.87 1179.77 1285.04 1179.77C1279.96 1179.77 1275.94 1180.45 1272.96 1181.8C1269.98 1183.15 1268.49 1184.93 1268.49 1187.14C1268.49 1189.46 1270.3 1191.34 1273.92 1192.77C1277.54 1194.2 1281.88 1194.92 1286.94 1194.92C1291.46 1194.92 1295.3 1194.26 1298.48 1192.94C1301.67 1191.62 1303.26 1189.81 1303.26 1187.49Z" fill="#739AF0"/>
<path d="M1265.84 1158.72C1265.84 1156.77 1266.63 1154.75 1268.21 1152.68C1269.79 1150.61 1272.13 1148.95 1275.24 1147.71C1278.35 1146.47 1282.12 1145.85 1286.55 1145.85C1292.4 1145.85 1297.08 1147.14 1300.6 1149.72C1304.12 1152.3 1305.87 1155.44 1305.87 1159.14C1305.87 1161.28 1305.16 1163.4 1303.73 1165.52C1302.3 1167.63 1300.08 1169.32 1297.07 1170.58C1294.06 1171.84 1290.22 1172.47 1285.57 1172.47C1280.12 1172.47 1275.47 1171.22 1271.62 1168.71C1267.77 1166.21 1265.84 1162.88 1265.84 1158.72ZM1303.26 1159.23C1303.26 1156.78 1301.68 1154.89 1298.52 1153.53C1295.37 1152.18 1290.87 1151.5 1285.04 1151.5C1279.96 1151.5 1275.94 1152.18 1272.96 1153.53C1269.98 1154.89 1268.49 1156.67 1268.49 1158.88C1268.49 1161.2 1270.3 1163.07 1273.92 1164.51C1277.54 1165.94 1281.88 1166.65 1286.94 1166.65C1291.46 1166.65 1295.3 1166 1298.48 1164.68C1301.67 1163.36 1303.26 1161.54 1303.26 1159.23Z" fill="#739AF0"/>
<path d="M1265.84 1130.46C1265.84 1128.5 1266.63 1126.49 1268.21 1124.42C1269.79 1122.35 1272.13 1120.69 1275.24 1119.45C1278.35 1118.2 1282.12 1117.58 1286.55 1117.58C1292.4 1117.58 1297.08 1118.87 1300.6 1121.45C1304.12 1124.04 1305.87 1127.18 1305.87 1130.88C1305.87 1133.01 1305.16 1135.14 1303.73 1137.25C1302.3 1139.37 1300.08 1141.06 1297.07 1142.32C1294.06 1143.58 1290.22 1144.21 1285.57 1144.21C1280.12 1144.21 1275.47 1142.95 1271.62 1140.45C1267.77 1137.95 1265.84 1134.62 1265.84 1130.46ZM1303.26 1130.96C1303.26 1128.52 1301.68 1126.62 1298.52 1125.27C1295.37 1123.92 1290.87 1123.24 1285.04 1123.24C1279.96 1123.24 1275.94 1123.92 1272.96 1125.27C1269.98 1126.62 1268.49 1128.41 1268.49 1130.62C1268.49 1132.93 1270.3 1134.81 1273.92 1136.24C1277.54 1137.67 1281.88 1138.39 1286.94 1138.39C1291.46 1138.39 1295.3 1137.73 1298.48 1136.41C1301.67 1135.1 1303.26 1133.28 1303.26 1130.96Z" fill="#739AF0"/>
<path d="M1265.84 1102.19C1265.84 1100.24 1266.63 1098.22 1268.21 1096.15C1269.79 1094.08 1272.13 1092.42 1275.24 1091.18C1278.35 1089.94 1282.12 1089.32 1286.55 1089.32C1292.4 1089.32 1297.08 1090.61 1300.6 1093.19C1304.12 1095.77 1305.87 1098.91 1305.87 1102.62C1305.87 1104.75 1305.16 1106.87 1303.73 1108.99C1302.3 1111.1 1300.08 1112.79 1297.07 1114.05C1294.06 1115.31 1290.22 1115.94 1285.57 1115.94C1280.12 1115.94 1275.47 1114.69 1271.62 1112.19C1267.77 1109.69 1265.84 1106.35 1265.84 1102.19ZM1303.26 1102.7C1303.26 1100.26 1301.68 1098.36 1298.52 1097.01C1295.37 1095.65 1290.87 1094.98 1285.04 1094.98C1279.96 1094.98 1275.94 1095.65 1272.96 1097.01C1269.98 1098.36 1268.49 1100.14 1268.49 1102.35C1268.49 1104.67 1270.3 1106.54 1273.92 1107.98C1277.54 1109.41 1281.88 1110.13 1286.94 1110.13C1291.46 1110.13 1295.3 1109.47 1298.48 1108.15C1301.67 1106.83 1303.26 1105.01 1303.26 1102.7Z" fill="#739AF0"/>
<path d="M1265.84 1030.57C1265.84 1028.61 1266.63 1026.6 1268.21 1024.53C1269.79 1022.46 1272.13 1020.8 1275.24 1019.56C1278.35 1018.31 1282.12 1017.69 1286.55 1017.69C1292.4 1017.69 1297.08 1018.98 1300.6 1021.56C1304.12 1024.15 1305.87 1027.29 1305.87 1030.99C1305.87 1033.12 1305.16 1035.25 1303.73 1037.36C1302.3 1039.48 1300.08 1041.17 1297.07 1042.43C1294.06 1043.69 1290.22 1044.32 1285.57 1044.32C1280.12 1044.32 1275.47 1043.06 1271.62 1040.56C1267.77 1038.06 1265.84 1034.73 1265.84 1030.57ZM1303.26 1031.07C1303.26 1028.63 1301.68 1026.73 1298.52 1025.38C1295.37 1024.03 1290.87 1023.35 1285.04 1023.35C1279.96 1023.35 1275.94 1024.03 1272.96 1025.38C1269.98 1026.73 1268.49 1028.51 1268.49 1030.73C1268.49 1033.04 1270.3 1034.92 1273.92 1036.35C1277.54 1037.78 1281.88 1038.5 1286.94 1038.5C1291.46 1038.5 1295.3 1037.84 1298.48 1036.52C1301.67 1035.21 1303.26 1033.39 1303.26 1031.07Z" fill="#739AF0"/>
<path d="M1265.84 1002.3C1265.84 1000.35 1266.63 998.333 1268.21 996.261C1269.79 994.19 1272.13 992.533 1275.24 991.29C1278.35 990.048 1282.12 989.426 1286.55 989.426C1292.4 989.426 1297.08 990.717 1300.6 993.299C1304.12 995.881 1305.87 999.023 1305.87 1002.73C1305.87 1004.86 1305.16 1006.98 1303.73 1009.1C1302.3 1011.21 1300.08 1012.9 1297.07 1014.16C1294.06 1015.42 1290.22 1016.05 1285.57 1016.05C1280.12 1016.05 1275.47 1014.8 1271.62 1012.3C1267.77 1009.8 1265.84 1006.46 1265.84 1002.3ZM1303.26 1002.81C1303.26 1000.37 1301.68 998.468 1298.52 997.115C1295.37 995.762 1290.87 995.085 1285.04 995.085C1279.96 995.085 1275.94 995.762 1272.96 997.115C1269.98 998.469 1268.49 1000.25 1268.49 1002.46C1268.49 1004.78 1270.3 1006.65 1273.92 1008.09C1277.54 1009.52 1281.88 1010.24 1286.94 1010.24C1291.46 1010.24 1295.3 1009.58 1298.48 1008.26C1301.67 1006.94 1303.26 1005.12 1303.26 1002.81Z" fill="#739AF0"/>
<path d="M1265.84 974.039C1265.84 972.082 1266.63 970.069 1268.21 967.997C1269.79 965.926 1272.13 964.269 1275.24 963.026C1278.35 961.784 1282.12 961.162 1286.55 961.162C1292.4 961.162 1297.08 962.453 1300.6 965.035C1304.12 967.617 1305.87 970.759 1305.87 974.461C1305.87 976.594 1305.16 978.718 1303.73 980.833C1302.3 982.948 1300.08 984.636 1297.07 985.896C1294.06 987.156 1290.22 987.786 1285.57 987.786C1280.12 987.786 1275.47 986.535 1271.62 984.031C1267.77 981.53 1265.84 978.199 1265.84 974.039ZM1303.26 974.541C1303.26 972.1 1301.68 970.203 1298.52 968.85C1295.37 967.497 1290.87 966.82 1285.04 966.82C1279.96 966.82 1275.94 967.497 1272.96 968.85C1269.98 970.204 1268.49 971.985 1268.49 974.196C1268.49 976.514 1270.3 978.389 1273.92 979.821C1277.54 981.254 1281.88 981.97 1286.94 981.97C1291.46 981.97 1295.3 981.311 1298.48 979.994C1301.67 978.676 1303.26 976.859 1303.26 974.541Z" fill="#739AF0"/>
<path d="M1265.84 945.775C1265.84 943.818 1266.63 941.805 1268.21 939.733C1269.79 937.662 1272.13 936.005 1275.24 934.762C1278.35 933.52 1282.12 932.898 1286.55 932.898C1292.4 932.898 1297.08 934.189 1300.6 936.771C1304.12 939.353 1305.87 942.495 1305.87 946.197C1305.87 948.33 1305.16 950.454 1303.73 952.569C1302.3 954.684 1300.08 956.372 1297.07 957.632C1294.06 958.893 1290.22 959.522 1285.57 959.522C1280.12 959.522 1275.47 958.271 1271.62 955.767C1267.77 953.266 1265.84 949.935 1265.84 945.775ZM1303.26 946.277C1303.26 943.836 1301.68 941.939 1298.52 940.586C1295.37 939.233 1290.87 938.556 1285.04 938.556C1279.96 938.556 1275.94 939.233 1272.96 940.586C1269.98 941.94 1268.49 943.721 1268.49 945.932C1268.49 948.25 1270.3 950.125 1273.92 951.557C1277.54 952.99 1281.88 953.706 1286.94 953.706C1291.46 953.706 1295.3 953.047 1298.48 951.73C1301.67 950.412 1303.26 948.595 1303.26 946.277Z" fill="#739AF0"/>
<path d="M1265.84 874.149C1265.84 872.192 1266.63 870.179 1268.21 868.107C1269.79 866.036 1272.13 864.379 1275.24 863.136C1278.35 861.894 1282.12 861.272 1286.55 861.272C1292.4 861.272 1297.08 862.563 1300.6 865.145C1304.12 867.727 1305.87 870.869 1305.87 874.571C1305.87 876.704 1305.16 878.828 1303.73 880.943C1302.3 883.058 1300.08 884.746 1297.07 886.006C1294.06 887.266 1290.22 887.896 1285.57 887.896C1280.12 887.896 1275.47 886.645 1271.62 884.142C1267.77 881.64 1265.84 878.309 1265.84 874.149ZM1303.26 874.651C1303.26 872.21 1301.68 870.313 1298.52 868.96C1295.37 867.607 1290.87 866.93 1285.04 866.93C1279.96 866.93 1275.94 867.607 1272.96 868.96C1269.98 870.314 1268.49 872.095 1268.49 874.306C1268.49 876.624 1270.3 878.499 1273.92 879.931C1277.54 881.364 1281.88 882.08 1286.94 882.08C1291.46 882.08 1295.3 881.421 1298.48 880.104C1301.67 878.786 1303.26 876.969 1303.26 874.651Z" fill="#739AF0"/>
<path d="M1265.84 845.884C1265.84 843.927 1266.63 841.914 1268.21 839.842C1269.79 837.771 1272.13 836.114 1275.24 834.871C1278.35 833.629 1282.12 833.007 1286.55 833.007C1292.4 833.007 1297.08 834.298 1300.6 836.88C1304.12 839.462 1305.87 842.604 1305.87 846.306C1305.87 848.439 1305.16 850.563 1303.73 852.678C1302.3 854.793 1300.08 856.481 1297.07 857.741C1294.06 859.001 1290.22 859.631 1285.57 859.631C1280.12 859.631 1275.47 858.38 1271.62 855.877C1267.77 853.376 1265.84 850.044 1265.84 845.884ZM1303.26 846.387C1303.26 843.946 1301.68 842.049 1298.52 840.696C1295.37 839.343 1290.87 838.666 1285.04 838.666C1279.96 838.666 1275.94 839.343 1272.96 840.696C1269.98 842.05 1268.49 843.831 1268.49 846.042C1268.49 848.36 1270.3 850.235 1273.92 851.667C1277.54 853.1 1281.88 853.816 1286.94 853.816C1291.46 853.816 1295.3 853.157 1298.48 851.84C1301.67 850.522 1303.26 848.704 1303.26 846.387Z" fill="#739AF0"/>
<path d="M1265.84 817.62C1265.84 815.663 1266.63 813.65 1268.21 811.578C1269.79 809.507 1272.13 807.85 1275.24 806.607C1278.35 805.365 1282.12 804.743 1286.55 804.743C1292.4 804.743 1297.08 806.034 1300.6 808.616C1304.12 811.198 1305.87 814.34 1305.87 818.042C1305.87 820.175 1305.16 822.299 1303.73 824.414C1302.3 826.529 1300.08 828.217 1297.07 829.477C1294.06 830.737 1290.22 831.367 1285.57 831.367C1280.12 831.367 1275.47 830.116 1271.62 827.612C1267.77 825.111 1265.84 821.78 1265.84 817.62ZM1303.26 818.123C1303.26 815.682 1301.68 813.785 1298.52 812.432C1295.37 811.079 1290.87 810.402 1285.04 810.402C1279.96 810.402 1275.94 811.079 1272.96 812.432C1269.98 813.786 1268.49 815.567 1268.49 817.778C1268.49 820.096 1270.3 821.971 1273.92 823.403C1277.54 824.836 1281.88 825.552 1286.94 825.552C1291.46 825.552 1295.3 824.893 1298.48 823.576C1301.67 822.257 1303.26 820.44 1303.26 818.123Z" fill="#739AF0"/>
<path d="M1265.84 789.355C1265.84 787.398 1266.63 785.385 1268.21 783.313C1269.79 781.242 1272.13 779.585 1275.24 778.342C1278.35 777.1 1282.12 776.478 1286.55 776.478C1292.4 776.478 1297.08 777.769 1300.6 780.351C1304.12 782.933 1305.87 786.075 1305.87 789.777C1305.87 791.91 1305.16 794.034 1303.73 796.149C1302.3 798.264 1300.08 799.952 1297.07 801.212C1294.06 802.472 1290.22 803.102 1285.57 803.102C1280.12 803.102 1275.47 801.851 1271.62 799.347C1267.77 796.847 1265.84 793.516 1265.84 789.355ZM1303.26 789.858C1303.26 787.417 1301.68 785.52 1298.52 784.167C1295.37 782.814 1290.87 782.137 1285.04 782.137C1279.96 782.137 1275.94 782.814 1272.96 784.167C1269.98 785.521 1268.49 787.302 1268.49 789.513C1268.49 791.831 1270.3 793.706 1273.92 795.138C1277.54 796.571 1281.88 797.287 1286.94 797.287C1291.46 797.287 1295.3 796.628 1298.48 795.311C1301.67 793.993 1303.26 792.176 1303.26 789.858Z" fill="#739AF0"/>
<path d="M1265.84 717.729C1265.84 715.772 1266.63 713.759 1268.21 711.687C1269.79 709.616 1272.13 707.959 1275.24 706.716C1278.35 705.474 1282.12 704.852 1286.55 704.852C1292.4 704.852 1297.08 706.143 1300.6 708.725C1304.12 711.307 1305.87 714.449 1305.87 718.151C1305.87 720.284 1305.16 722.408 1303.73 724.523C1302.3 726.638 1300.08 728.326 1297.07 729.586C1294.06 730.846 1290.22 731.476 1285.57 731.476C1280.12 731.476 1275.47 730.225 1271.62 727.721C1267.77 725.221 1265.84 721.89 1265.84 717.729ZM1303.26 718.232C1303.26 715.791 1301.68 713.894 1298.52 712.541C1295.37 711.188 1290.87 710.511 1285.04 710.511C1279.96 710.511 1275.94 711.188 1272.96 712.541C1269.98 713.895 1268.49 715.676 1268.49 717.887C1268.49 720.205 1270.3 722.08 1273.92 723.512C1277.54 724.945 1281.88 725.661 1286.94 725.661C1291.46 725.661 1295.3 725.002 1298.48 723.685C1301.67 722.367 1303.26 720.55 1303.26 718.232Z" fill="#739AF0"/>
<path d="M1265.84 689.465C1265.84 687.508 1266.63 685.495 1268.21 683.423C1269.79 681.352 1272.13 679.695 1275.24 678.452C1278.35 677.21 1282.12 676.588 1286.55 676.588C1292.4 676.588 1297.08 677.879 1300.6 680.461C1304.12 683.043 1305.87 686.185 1305.87 689.887C1305.87 692.02 1305.16 694.144 1303.73 696.259C1302.3 698.374 1300.08 700.062 1297.07 701.322C1294.06 702.582 1290.22 703.212 1285.57 703.212C1280.12 703.212 1275.47 701.961 1271.62 699.458C1267.77 696.956 1265.84 693.625 1265.84 689.465ZM1303.26 689.968C1303.26 687.527 1301.68 685.63 1298.52 684.277C1295.37 682.924 1290.87 682.247 1285.04 682.247C1279.96 682.247 1275.94 682.924 1272.96 684.277C1269.98 685.631 1268.49 687.412 1268.49 689.623C1268.49 691.941 1270.3 693.816 1273.92 695.248C1277.54 696.681 1281.88 697.397 1286.94 697.397C1291.46 697.397 1295.3 696.738 1298.48 695.421C1301.67 694.103 1303.26 692.285 1303.26 689.968Z" fill="#739AF0"/>
<path d="M1265.84 661.201C1265.84 659.244 1266.63 657.231 1268.21 655.159C1269.79 653.088 1272.13 651.431 1275.24 650.188C1278.35 648.946 1282.12 648.324 1286.55 648.324C1292.4 648.324 1297.08 649.615 1300.6 652.197C1304.12 654.779 1305.87 657.921 1305.87 661.623C1305.87 663.756 1305.16 665.88 1303.73 667.995C1302.3 670.11 1300.08 671.798 1297.07 673.058C1294.06 674.318 1290.22 674.948 1285.57 674.948C1280.12 674.948 1275.47 673.697 1271.62 671.194C1267.77 668.692 1265.84 665.361 1265.84 661.201ZM1303.26 661.703C1303.26 659.262 1301.68 657.365 1298.52 656.012C1295.37 654.659 1290.87 653.982 1285.04 653.982C1279.96 653.982 1275.94 654.659 1272.96 656.012C1269.98 657.366 1268.49 659.147 1268.49 661.358C1268.49 663.676 1270.3 665.551 1273.92 666.983C1277.54 668.416 1281.88 669.132 1286.94 669.132C1291.46 669.132 1295.3 668.473 1298.48 667.156C1301.67 665.838 1303.26 664.021 1303.26 661.703Z" fill="#739AF0"/>
<path d="M1265.84 632.936C1265.84 630.979 1266.63 628.966 1268.21 626.894C1269.79 624.823 1272.13 623.166 1275.24 621.923C1278.35 620.68 1282.12 620.059 1286.55 620.059C1292.4 620.059 1297.08 621.35 1300.6 623.932C1304.12 626.514 1305.87 629.656 1305.87 633.358C1305.87 635.491 1305.16 637.615 1303.73 639.73C1302.3 641.845 1300.08 643.533 1297.07 644.793C1294.06 646.053 1290.22 646.683 1285.57 646.683C1280.12 646.683 1275.47 645.432 1271.62 642.929C1267.77 640.428 1265.84 637.096 1265.84 632.936ZM1303.26 633.439C1303.26 630.998 1301.68 629.101 1298.52 627.748C1295.37 626.395 1290.87 625.718 1285.04 625.718C1279.96 625.718 1275.94 626.395 1272.96 627.748C1269.98 629.102 1268.49 630.883 1268.49 633.094C1268.49 635.412 1270.3 637.287 1273.92 638.719C1277.54 640.152 1281.88 640.868 1286.94 640.868C1291.46 640.868 1295.3 640.209 1298.48 638.892C1301.67 637.574 1303.26 635.756 1303.26 633.439Z" fill="#739AF0"/>
<path d="M1143.26 1100.14V1185.99C1143.26 1192.2 1148.32 1197.26 1154.53 1197.26H1226.69C1232.9 1197.26 1237.96 1192.2 1237.96 1185.99V1185.28V1144.09V1142.04V1100.85V1100.14C1237.96 1093.93 1232.9 1088.87 1226.69 1088.87H1154.53C1148.32 1088.87 1143.26 1093.93 1143.26 1100.14ZM1170.11 1090.96V1122.71C1170.11 1125.25 1172.18 1127.31 1174.72 1127.31H1212.38C1213.8 1127.31 1214.96 1128.47 1214.96 1129.9V1156.24C1214.96 1157.66 1213.8 1158.82 1212.38 1158.82H1168.63C1167.25 1158.82 1166.13 1157.7 1166.13 1156.32V1142.02H1145.35V1141.94H1145.9C1148.02 1141.94 1149.75 1140.21 1149.75 1138.09V1092.3C1151.14 1091.45 1152.78 1090.96 1154.53 1090.96L1170.11 1090.96ZM1191.65 1125.23V1090.96H1211.2V1125.23H1191.65ZM1189.57 1125.23H1174.72C1173.33 1125.23 1172.2 1124.1 1172.2 1122.71V1090.96H1189.57V1125.23ZM1147.67 1094.05V1138.09C1147.67 1139.06 1146.87 1139.86 1145.9 1139.86H1145.35V1100.14C1145.35 1097.81 1146.23 1095.67 1147.67 1094.05ZM1145.35 1146.27H1145.9C1146.87 1146.27 1147.67 1147.07 1147.67 1148.04V1192.08C1146.23 1190.46 1145.35 1188.33 1145.35 1185.99V1146.27ZM1149.75 1193.83V1148.04C1149.75 1145.92 1148.02 1144.19 1145.9 1144.19H1145.35V1144.11H1164.04V1156.32C1164.04 1158.85 1166.1 1160.9 1168.63 1160.9H1170.12V1195.18H1154.53C1152.78 1195.17 1151.14 1194.68 1149.75 1193.83ZM1211.2 1160.9V1195.17H1191.65V1160.9H1211.2ZM1189.57 1160.9V1195.17H1172.2V1160.9H1189.57ZM1235.87 1183.19H1234.44C1234.04 1183.19 1233.72 1182.87 1233.72 1182.47V1146.9C1233.72 1146.5 1234.04 1146.17 1234.44 1146.17H1235.87V1183.19ZM1235.87 1139.96H1234.44C1234.04 1139.96 1233.72 1139.63 1233.72 1139.23V1103.66C1233.72 1103.26 1234.04 1102.94 1234.44 1102.94H1235.87V1139.96ZM1235.87 1100.14V1100.85H1234.44C1232.89 1100.85 1231.63 1102.11 1231.63 1103.66V1139.23C1231.63 1140.78 1232.89 1142.04 1234.44 1142.04H1235.87V1144.09H1234.44C1232.89 1144.09 1231.63 1145.35 1231.63 1146.9V1182.47C1231.63 1184.02 1232.89 1185.28 1234.44 1185.28H1235.87V1185.99C1235.87 1191.05 1231.75 1195.17 1226.69 1195.17H1213.29V1160.81C1215.43 1160.39 1217.04 1158.5 1217.04 1156.24V1129.9C1217.04 1127.63 1215.42 1125.74 1213.29 1125.32V1090.96H1226.69C1231.75 1090.96 1235.87 1095.08 1235.87 1100.14Z" fill="#F99746"/>
<path d="M1117.78 910.645V1118.73C1117.78 1133.91 1105.47 1146.22 1090.29 1146.22C1075.1 1146.22 1062.79 1133.91 1062.79 1118.73V910.645C1062.79 895.459 1075.1 883.149 1090.29 883.149C1105.47 883.149 1117.78 895.459 1117.78 910.645Z" fill="#A3B0C4"/>
<path d="M1420.01 1188.26C1420.01 1190.04 1419.73 1191.64 1419.15 1193.07C1418.58 1194.49 1417.72 1195.73 1416.56 1196.78C1415.38 1197.86 1414 1198.66 1412.42 1199.18C1410.84 1199.7 1409.06 1199.96 1407.06 1199.96C1403.1 1199.96 1399.95 1198.9 1397.61 1196.78C1396.42 1195.71 1395.55 1194.46 1394.98 1193.05C1394.42 1191.63 1394.13 1190.04 1394.13 1188.26C1394.13 1186.88 1394.31 1185.61 1394.65 1184.45C1394.99 1183.28 1395.52 1182.22 1396.24 1181.26C1397.05 1180.18 1397.97 1179.37 1398.99 1178.83C1400.01 1178.3 1401.18 1177.96 1402.48 1177.82V1182.05C1401.74 1182.13 1401.07 1182.33 1400.48 1182.65C1399.88 1182.98 1399.37 1183.41 1398.95 1183.95C1398.53 1184.48 1398.21 1185.11 1397.98 1185.84C1397.76 1186.57 1397.64 1187.36 1397.64 1188.22C1397.64 1189.36 1397.85 1190.39 1398.27 1191.31C1398.69 1192.23 1399.3 1193.02 1400.1 1193.66C1400.9 1194.31 1401.88 1194.81 1403.05 1195.16C1404.22 1195.51 1405.56 1195.69 1407.06 1195.69C1408.57 1195.69 1409.9 1195.51 1411.07 1195.17C1412.24 1194.83 1413.23 1194.33 1414.03 1193.68C1414.83 1193.04 1415.44 1192.26 1415.86 1191.35C1416.28 1190.45 1416.49 1189.43 1416.49 1188.3C1416.49 1187.4 1416.37 1186.59 1416.14 1185.86C1415.92 1185.13 1415.58 1184.5 1415.15 1183.97C1414.71 1183.43 1414.17 1183 1413.54 1182.67C1412.91 1182.35 1412.18 1182.14 1411.35 1182.05V1177.86C1414.12 1178.12 1416.26 1179.19 1417.78 1181.07C1419.27 1182.94 1420.01 1185.33 1420.01 1188.26Z" fill="#739AF0"/>
<path d="M1419.59 1152.66V1157.02L1412.66 1159.59V1169.48L1419.59 1171.9V1176.13L1394.54 1166.89V1162.31L1419.59 1152.66ZM1409.34 1168.33V1160.68L1398.97 1164.43V1164.78L1409.34 1168.33Z" fill="#739AF0"/>
<path d="M1419.59 1128.76V1133.29L1413.2 1135.56C1411.93 1136.01 1410.97 1136.63 1410.33 1137.41C1409.69 1138.2 1409.37 1139.25 1409.37 1140.56V1145.85H1419.59V1150.02H1394.54V1138.9C1394.54 1137.57 1394.66 1136.35 1394.89 1135.23C1395.12 1134.1 1395.51 1133.14 1396.06 1132.33C1396.61 1131.53 1397.34 1130.9 1398.24 1130.45C1399.15 1130 1400.27 1129.78 1401.61 1129.78C1403.37 1129.78 1404.81 1130.25 1405.92 1131.21C1407.03 1132.16 1407.75 1133.51 1408.08 1135.26C1408.44 1134.35 1409.01 1133.58 1409.81 1132.95C1410.6 1132.31 1411.63 1131.76 1412.9 1131.29L1419.59 1128.76ZM1405.83 1145.85V1139.34C1405.83 1138.42 1405.75 1137.63 1405.6 1136.96C1405.46 1136.3 1405.22 1135.75 1404.9 1135.33C1404.58 1134.9 1404.17 1134.59 1403.65 1134.38C1403.14 1134.18 1402.52 1134.08 1401.8 1134.08C1400.49 1134.08 1399.52 1134.47 1398.87 1135.25C1398.22 1136.03 1397.9 1137.25 1397.9 1138.9V1145.85H1405.83Z" fill="#739AF0"/>
<path d="M1394.54 1124.79V1116.64C1394.54 1112.34 1395.56 1109.11 1397.6 1106.95C1399.65 1104.79 1402.75 1103.71 1406.92 1103.71C1415.36 1103.71 1419.59 1108.02 1419.59 1116.64V1124.79H1394.54ZM1415.99 1120.61V1116.72C1415.99 1113.34 1415.2 1111.05 1413.64 1109.84C1412.83 1109.22 1411.87 1108.75 1410.76 1108.46C1409.65 1108.16 1408.37 1108.01 1406.91 1108.01C1405.52 1108.01 1404.29 1108.16 1403.22 1108.46C1402.15 1108.75 1401.23 1109.21 1400.45 1109.84C1398.91 1111.04 1398.14 1113.33 1398.14 1116.72V1120.61H1415.99Z" fill="#739AF0"/>
<path d="M1419.59 1079.23V1083.39H1408.17V1095.16H1419.59V1099.33H1394.54V1095.16H1404.57V1083.39H1394.54V1079.23H1419.59Z" fill="#739AF0"/>
<path d="M1394.13 1062.94C1394.13 1061.17 1394.44 1059.54 1395.06 1058.07C1395.69 1056.6 1396.56 1055.34 1397.69 1054.28C1398.81 1053.23 1400.18 1052.41 1401.77 1051.83C1403.37 1051.24 1405.13 1050.95 1407.06 1050.95C1409 1050.95 1410.76 1051.23 1412.35 1051.8C1413.94 1052.37 1415.3 1053.17 1416.44 1054.22C1417.58 1055.27 1418.46 1056.53 1419.08 1058.01C1419.7 1059.48 1420.01 1061.13 1420.01 1062.94C1420.01 1064.75 1419.71 1066.39 1419.09 1067.86C1418.48 1069.33 1417.6 1070.59 1416.47 1071.64C1415.34 1072.69 1413.97 1073.49 1412.38 1074.07C1410.78 1074.64 1409.01 1074.93 1407.07 1074.93C1405.13 1074.93 1403.37 1074.63 1401.77 1074.05C1400.18 1073.46 1398.82 1072.64 1397.69 1071.58C1396.56 1070.52 1395.69 1069.26 1395.07 1067.8C1394.44 1066.33 1394.13 1064.71 1394.13 1062.94ZM1416.48 1062.98C1416.48 1061.81 1416.26 1060.74 1415.82 1059.79C1415.38 1058.83 1414.74 1058.02 1413.92 1057.34C1413.09 1056.66 1412.1 1056.14 1410.94 1055.77C1409.79 1055.4 1408.49 1055.22 1407.06 1055.22C1405.66 1055.22 1404.38 1055.4 1403.23 1055.76C1402.08 1056.12 1401.09 1056.64 1400.26 1057.3C1399.43 1057.97 1398.78 1058.78 1398.33 1059.72C1397.87 1060.67 1397.64 1061.73 1397.64 1062.9C1397.64 1064.07 1397.87 1065.14 1398.32 1066.1C1398.77 1067.06 1399.4 1067.88 1400.23 1068.56C1401.05 1069.25 1402.05 1069.77 1403.2 1070.14C1404.36 1070.51 1405.65 1070.7 1407.06 1070.7C1408.49 1070.7 1409.79 1070.51 1410.94 1070.13C1412.1 1069.76 1413.09 1069.23 1413.92 1068.55C1414.74 1067.88 1415.38 1067.06 1415.82 1066.12C1416.26 1065.17 1416.48 1064.12 1416.48 1062.98Z" fill="#739AF0"/>
<path d="M1419.59 1030.68V1046.63H1394.54V1042.45H1415.95V1030.68H1419.59Z" fill="#739AF0"/>
<path d="M1394.54 1026.88V1018.73C1394.54 1014.43 1395.56 1011.2 1397.6 1009.04C1399.65 1006.88 1402.75 1005.8 1406.92 1005.8C1415.36 1005.8 1419.59 1010.11 1419.59 1018.73V1026.88H1394.54ZM1415.99 1022.7V1018.81C1415.99 1015.43 1415.2 1013.14 1413.64 1011.93C1412.83 1011.31 1411.87 1010.84 1410.76 1010.55C1409.65 1010.25 1408.37 1010.11 1406.91 1010.11C1405.52 1010.11 1404.29 1010.25 1403.22 1010.55C1402.15 1010.84 1401.23 1011.31 1400.45 1011.93C1398.91 1013.13 1398.14 1015.42 1398.14 1018.81V1022.7H1415.99Z" fill="#739AF0"/>
<path d="M1419.59 982.468V1001.42H1394.54V983.059H1398.14V997.247H1404.9V983.965H1408.54V997.247H1415.99V982.468H1419.59Z" fill="#739AF0"/>
<path d="M1419.59 956.846V961.372L1413.2 963.644C1411.93 964.1 1410.97 964.719 1410.33 965.501C1409.69 966.283 1409.37 967.333 1409.37 968.651V973.934H1419.59V978.109H1394.54V966.988C1394.54 965.658 1394.66 964.432 1394.89 963.312C1395.12 962.191 1395.51 961.228 1396.06 960.421C1396.61 959.615 1397.34 958.987 1398.24 958.537C1399.15 958.088 1400.27 957.863 1401.61 957.863C1403.37 957.863 1404.81 958.34 1405.92 959.295C1407.03 960.25 1407.75 961.601 1408.08 963.35C1408.44 962.439 1409.01 961.666 1409.81 961.032C1410.6 960.398 1411.63 959.847 1412.9 959.379L1419.59 956.846ZM1405.83 973.934V967.431C1405.83 966.507 1405.75 965.713 1405.6 965.048C1405.46 964.383 1405.22 963.838 1404.9 963.413C1404.58 962.988 1404.17 962.674 1403.65 962.471C1403.14 962.268 1402.52 962.166 1401.8 962.166C1400.49 962.166 1399.52 962.557 1398.87 963.339C1398.22 964.121 1397.9 965.337 1397.9 966.988V973.934H1405.83Z" fill="#739AF0"/>
<path d="M1329.41 900.054C1329.41 898.547 1330.02 896.996 1331.23 895.4C1332.45 893.805 1334.25 892.528 1336.65 891.571C1339.05 890.614 1341.95 890.135 1345.36 890.135C1349.86 890.135 1353.47 891.13 1356.18 893.119C1358.89 895.108 1360.24 897.529 1360.24 900.38C1360.24 902.023 1359.69 903.659 1358.59 905.289C1357.49 906.918 1355.78 908.219 1353.46 909.189C1351.14 910.16 1348.19 910.645 1344.6 910.645C1340.4 910.645 1336.82 909.681 1333.86 907.753C1330.89 905.825 1329.41 903.258 1329.41 900.054ZM1358.23 900.441C1358.23 898.561 1357.01 897.1 1354.58 896.057C1352.15 895.015 1348.69 894.494 1344.19 894.494C1340.28 894.494 1337.18 895.015 1334.89 896.057C1332.59 897.1 1331.44 898.472 1331.44 900.175C1331.44 901.96 1332.84 903.405 1335.63 904.508C1338.42 905.612 1341.76 906.164 1345.66 906.164C1349.14 906.164 1352.1 905.657 1354.55 904.642C1357 903.626 1358.23 902.226 1358.23 900.441Z" fill="#739AF0"/>
<path d="M1329.41 878.281C1329.41 876.774 1330.02 875.223 1331.23 873.627C1332.45 872.031 1334.25 870.755 1336.65 869.798C1339.05 868.841 1341.95 868.362 1345.36 868.362C1349.86 868.362 1353.47 869.357 1356.18 871.346C1358.89 873.335 1360.24 875.756 1360.24 878.607C1360.24 880.25 1359.69 881.886 1358.59 883.516C1357.49 885.145 1355.78 886.446 1353.46 887.416C1351.14 888.387 1348.19 888.872 1344.6 888.872C1340.4 888.872 1336.82 887.908 1333.86 885.98C1330.89 884.052 1329.41 881.486 1329.41 878.281ZM1358.23 878.668C1358.23 876.788 1357.01 875.326 1354.58 874.284C1352.15 873.242 1348.69 872.72 1344.19 872.72C1340.28 872.72 1337.18 873.241 1334.89 874.284C1332.59 875.326 1331.44 876.699 1331.44 878.402C1331.44 880.187 1332.84 881.632 1335.63 882.735C1338.42 883.839 1341.76 884.391 1345.66 884.391C1349.14 884.391 1352.1 883.884 1354.55 882.868C1357 881.854 1358.23 880.454 1358.23 878.668Z" fill="#739AF0"/>
<path d="M1327.33 843.331C1327.4 843.331 1327.49 843.365 1327.6 843.433L1338.06 849.985L1363.08 865.226C1363.63 865.555 1363.96 865.808 1364.05 865.986C1364.15 866.164 1364.2 866.492 1364.2 866.972C1364.2 867.546 1364.11 867.833 1363.93 867.833C1363.84 867.833 1363.69 867.772 1363.48 867.65L1354.01 861.892L1327.78 845.756C1327.47 845.551 1327.27 845.362 1327.2 845.191C1327.12 845.02 1327.09 844.708 1327.09 844.256C1327.09 843.639 1327.17 843.331 1327.33 843.331Z" fill="#739AF0"/>
<path d="M1329.41 832.74C1329.41 831.233 1330.02 829.682 1331.23 828.086C1332.45 826.491 1334.25 825.214 1336.65 824.257C1339.05 823.3 1341.95 822.821 1345.36 822.821C1349.86 822.821 1353.47 823.816 1356.18 825.805C1358.89 827.794 1360.24 830.215 1360.24 833.066C1360.24 834.709 1359.69 836.345 1358.59 837.975C1357.49 839.604 1355.78 840.905 1353.46 841.875C1351.14 842.846 1348.19 843.331 1344.6 843.331C1340.4 843.331 1336.82 842.367 1333.86 840.439C1330.89 838.511 1329.41 835.944 1329.41 832.74ZM1358.23 833.127C1358.23 831.247 1357.01 829.785 1354.58 828.743C1352.15 827.701 1348.69 827.18 1344.19 827.18C1340.28 827.18 1337.18 827.701 1334.89 828.743C1332.59 829.785 1331.44 831.158 1331.44 832.861C1331.44 834.646 1332.84 836.091 1335.63 837.194C1338.42 838.298 1341.76 838.85 1345.66 838.85C1349.14 838.85 1352.1 838.343 1354.55 837.327C1357 836.312 1358.23 834.912 1358.23 833.127Z" fill="#739AF0"/>
<path d="M1329.41 810.967C1329.41 809.46 1330.02 807.909 1331.23 806.313C1332.45 804.717 1334.25 803.441 1336.65 802.484C1339.05 801.527 1341.95 801.048 1345.36 801.048C1349.86 801.048 1353.47 802.043 1356.18 804.032C1358.89 806.021 1360.24 808.441 1360.24 811.293C1360.24 812.936 1359.69 814.572 1358.59 816.202C1357.49 817.831 1355.78 819.132 1353.46 820.102C1351.14 821.073 1348.19 821.558 1344.6 821.558C1340.4 821.558 1336.82 820.594 1333.86 818.666C1330.89 816.738 1329.41 814.172 1329.41 810.967ZM1358.23 811.354C1358.23 809.474 1357.01 808.012 1354.58 806.97C1352.15 805.928 1348.69 805.406 1344.19 805.406C1340.28 805.406 1337.18 805.927 1334.89 806.97C1332.59 808.012 1331.44 809.385 1331.44 811.088C1331.44 812.873 1332.84 814.318 1335.63 815.421C1338.42 816.525 1341.76 817.077 1345.66 817.077C1349.14 817.077 1352.1 816.57 1354.55 815.554C1357 814.54 1358.23 813.14 1358.23 811.354Z" fill="#739AF0"/>
<path d="M1309 422.353C1309 423.625 1308.57 424.906 1307.69 425.987C1305.58 428.57 1301.67 429.036 1298.96 427.027C1271.37 406.603 1220.88 406.714 1188.69 427.271C1185.84 429.094 1181.97 428.368 1180.06 425.651C1178.14 422.933 1178.9 419.253 1181.76 417.429C1199.71 405.964 1222.78 399.776 1246.73 400.006C1269.92 400.229 1291.74 406.668 1306.6 417.672C1308.17 418.84 1309 420.588 1309 422.353Z" fill="#F99746"/>
<path d="M1296.9 447.345C1296.9 448.617 1296.47 449.897 1295.59 450.979C1293.48 453.562 1289.57 454.028 1286.85 452.019C1276.94 444.68 1262.07 440.383 1246.06 440.229C1229.27 440.068 1213.19 444.341 1200.79 452.263C1197.94 454.086 1194.07 453.361 1192.16 450.643C1190.24 447.925 1191 444.244 1193.86 442.421C1208.33 433.181 1226.91 428.194 1246.18 428.379C1264.87 428.559 1282.48 433.766 1294.49 442.665C1296.07 443.831 1296.9 445.579 1296.9 447.345Z" fill="#F99746"/>
<path d="M1286.18 468.992C1286.18 470.264 1285.75 471.545 1284.87 472.626C1282.76 475.209 1278.85 475.675 1276.14 473.666C1268.74 468.191 1257.6 464.985 1245.57 464.87C1232.92 464.749 1220.83 467.959 1211.51 473.91C1208.66 475.733 1204.79 475.008 1202.88 472.29C1200.96 469.572 1201.72 465.892 1204.58 464.068C1215.96 456.798 1230.56 452.874 1245.7 453.02C1260.61 453.163 1274.14 457.173 1283.78 464.311C1285.36 465.479 1286.18 467.227 1286.18 468.992Z" fill="#F99746"/>
<path d="M1274.77 488.41C1274.77 489.682 1274.34 490.963 1273.46 492.044C1271.35 494.627 1267.44 495.093 1264.73 493.084C1255.65 486.365 1236.25 484.812 1222.92 493.328C1220.06 495.151 1216.2 494.426 1214.28 491.708C1212.37 488.99 1213.13 485.31 1215.99 483.486C1232.58 472.888 1257.87 472.997 1272.37 483.73C1273.95 484.897 1274.77 486.645 1274.77 488.41Z" fill="#F99746"/>
<path d="M1330.53 317.884H1157.57C1143.48 317.884 1131.96 306.357 1131.96 292.268V288.241C1131.96 274.152 1143.48 262.625 1157.57 262.625H1330.53C1344.62 262.625 1356.14 274.152 1356.14 288.241V292.268C1356.14 306.356 1344.62 317.884 1330.53 317.884Z" fill="#2B478B"/>
<path d="M1610.91 776.696L1599.49 781.037L1522.67 810.228C1520.87 810.912 1519.05 811.496 1517.23 811.953C1491.79 818.564 1464.73 805.005 1455.19 779.906L1454.06 776.956C1443.84 750.057 1457.49 719.684 1484.38 709.463L1556 682.253L1561.2 680.272L1572.62 675.931C1599.52 665.71 1629.88 679.353 1640.1 706.253L1641.23 709.203C1651.45 736.102 1637.81 766.476 1610.91 776.696Z" fill="#FFB27D"/>
<path d="M1548.53 778.458C1535.71 783.316 1512.5 791.937 1500.09 793.72C1496.58 794.226 1490.1 792.316 1484.07 785.703C1480.44 781.743 1476.98 776.099 1474.41 768.278C1473.2 764.599 1472.2 760.935 1471.78 757.157C1471.3 752.734 1471.43 748.311 1472.2 743.93C1472.9 739.985 1475.6 736.39 1479.53 734.495C1479.55 734.481 1479.57 734.481 1479.59 734.467C1492.79 728.162 1510.58 720.482 1526.18 716.199C1536.96 713.222 1547.87 717.982 1551.28 727.418L1552.89 731.827L1561.14 754.405C1564.55 763.786 1559 774.513 1548.53 778.458Z" fill="#FFD3B6"/>
<path d="M1548.53 778.458C1535.71 783.316 1512.5 791.937 1500.09 793.72C1496.58 794.226 1490.1 792.316 1484.07 785.703C1483.42 784.201 1482.83 782.614 1482.27 780.915C1481.06 777.236 1480.06 773.572 1479.64 769.794C1479.17 765.371 1479.29 760.948 1480.06 756.567C1480.77 752.622 1483.46 749.027 1487.39 747.131C1487.41 747.117 1487.44 747.117 1487.45 747.103C1500.65 740.799 1518.44 733.118 1534.04 728.836C1540.95 726.926 1547.9 728.19 1552.89 731.826L1561.14 754.404C1564.55 763.786 1559 774.513 1548.53 778.458Z" fill="#FFC197"/>
<path d="M1576.05 884.692L1516.82 900.819C1498.82 905.719 1480.08 895.002 1475.18 877.002L1473.35 870.297C1468.45 852.297 1479.17 833.561 1497.17 828.66L1556.41 812.533C1574.41 807.633 1593.14 818.35 1598.04 836.35L1599.87 843.055C1604.77 861.055 1594.05 879.792 1576.05 884.692Z" fill="#FFB27D"/>
<path d="M1544.02 881.786C1533.14 884.693 1513.47 889.818 1503.16 890.379C1499.41 890.59 1491.9 887.416 1487 877.56C1485.79 875.173 1484.77 872.407 1483.97 869.206C1483.25 866.3 1482.7 863.421 1482.65 860.5C1482.58 857.06 1483.01 853.676 1483.97 850.363C1484.82 847.372 1487.31 844.788 1490.67 843.595C1490.69 843.581 1490.71 843.581 1490.72 843.567C1502.01 839.579 1517.18 834.819 1530.29 832.531C1539.35 830.944 1547.94 835.297 1550.06 842.766L1551.59 848.102L1556.15 864.122C1558.26 871.536 1552.91 879.427 1544.02 881.786Z" fill="#FFD3B6"/>
<path d="M1544.02 881.786C1533.14 884.693 1513.47 889.818 1503.16 890.379C1499.41 890.59 1491.9 887.416 1487 877.56C1486.34 874.85 1485.86 872.14 1485.81 869.388C1485.74 865.962 1486.17 862.564 1487.13 859.25C1487.98 856.273 1490.47 853.676 1493.82 852.482C1493.85 852.468 1493.87 852.468 1493.88 852.454C1505.17 848.467 1520.33 843.706 1533.45 841.432C1540.95 840.112 1548.14 842.878 1551.59 848.101L1556.15 864.121C1558.26 871.536 1552.91 879.427 1544.02 881.786Z" fill="#FFC197"/>
<path d="M605.655 1566.05C605.655 1566.05 727.583 1682.83 809.778 1727.92L872.011 1683.78V1748.89C872.011 1748.89 994.402 1770.54 1033.01 1748.89V1571.32L689.244 1398.99L605.655 1566.05Z" fill="#ED7D2B"/>
<path d="M714.969 1296.38C714.969 1296.38 637.539 1412.22 560.585 1536.07C560.585 1536.07 722.762 1647.63 810.687 1680.36L926.016 1548.27L909.553 1707.27C909.553 1707.27 1011.62 1744.47 1058.97 1734.76C1058.97 1734.76 1055.98 1590.52 1056.01 1496.02C1056.01 1496.02 775.438 1417.37 714.969 1296.38Z" fill="#F3F8FF"/>
<path d="M734.014 1590.34C734.112 1579.74 742.786 1571.22 753.387 1571.32C763.989 1571.42 772.504 1580.09 772.406 1590.69C772.308 1601.3 763.634 1609.81 753.032 1609.71C742.431 1609.61 733.916 1600.94 734.014 1590.34Z" fill="#F99746"/>
<path d="M1609.04 663.168C1608.62 663.323 1608.2 663.463 1607.76 663.603L1530.1 683.541C1495.95 692.317 1460.64 673.839 1451.63 642.485L1447.01 626.422C1438.34 596.318 1456.96 564.839 1488.7 554.631L1514.33 548.046L1566.36 534.693C1600.5 525.918 1635.82 544.396 1644.83 575.749L1649.45 591.812C1657.99 621.509 1639.99 652.525 1609.04 663.168Z" fill="#FFB27D"/>
<path d="M1573.45 641.489L1535.72 658.492C1535.67 658.506 1535.6 658.52 1535.48 658.548C1533.97 658.955 1532.44 659.264 1530.92 659.488C1530.29 659.587 1529.64 659.657 1529.01 659.727C1528.74 659.755 1528.48 659.755 1528.21 659.741C1524.06 659.6 1521.21 655.192 1523 651.26C1526.57 643.495 1527.54 634.509 1525.14 625.677L1524.24 622.392C1524.24 622.364 1524.22 622.322 1524.21 622.293L1521.29 611.58C1518.97 603.043 1514.05 595.896 1507.61 590.729C1506.84 590.097 1506.04 589.507 1505.23 588.946C1497.77 583.779 1499.67 572.083 1508.4 569.653C1508.48 569.625 1508.55 569.611 1508.64 569.583L1550.05 563.321C1560.28 560.541 1570.14 568.418 1572.93 578.654L1576.26 590.856L1583.34 616.874C1586.12 627.125 1583.69 638.709 1573.45 641.489Z" fill="#FFD3B6"/>
<path d="M1573.45 641.489L1535.72 658.492C1535.67 658.506 1535.6 658.52 1535.48 658.548C1534.6 658.716 1531.83 659.18 1528.21 659.741C1524.06 659.6 1521.21 655.192 1523 651.26C1526.57 643.495 1527.54 634.509 1525.14 625.677L1524.24 622.392C1524.24 622.364 1524.22 622.322 1524.21 622.293L1521.29 611.58C1518.97 603.043 1514.05 595.896 1507.61 590.729C1508.95 588.777 1510.94 587.233 1513.55 586.502C1513.62 586.474 1513.71 586.46 1513.79 586.432L1555.2 580.169C1563.82 577.824 1572.16 583.048 1576.26 590.855L1583.34 616.873C1586.12 627.125 1583.69 638.709 1573.45 641.489Z" fill="#FFC197"/>
<path d="M951.479 1067.12C951.479 1067.12 934.537 919.226 918.905 890.392C903.274 861.546 890.047 803.794 914.095 760.88C938.143 717.954 946.452 635.383 946.452 635.383C955.783 729.641 927.73 799.609 947.402 818.138C948.136 818.824 949.494 818.499 951.419 817.272L951.479 1067.12Z" fill="#D38254"/>
<path d="M490.694 1616.74C490.694 1616.74 461.805 1537.78 413.836 1503.86C413.836 1503.86 391.52 1664.57 361.874 1658.57C332.228 1652.56 399.65 1481.28 399.65 1481.28C399.65 1481.28 281.856 1366.54 224.945 1353.35C224.945 1353.35 262.512 1530.22 235.247 1517.11C207.993 1503.99 160.353 1321.77 160.353 1321.77C160.353 1321.77 60.949 1266.54 0 1299.84V1485.25C46.652 1503.72 118.793 1530.76 111.803 1542.92C104.814 1555.1 48.002 1556.94 0 1543.88V1673.02C10.906 1686.93 24.335 1697.3 40.859 1701.15C117.936 1719.12 156.579 1680.64 204.01 1692.62C251.441 1704.59 281.043 1728.38 253.745 1733.07C226.447 1737.75 151.016 1703.1 103.014 1722.31C55.001 1741.51 18.201 1750.93 82.782 1788.44C147.351 1825.96 274.811 1858.87 317.624 1813.88C317.624 1813.88 317.624 1813.88 317.635 1813.87C319.5 1811.91 321.289 1810.03 322.989 1808.24C322.999 1808.23 323.008 1808.22 323.018 1808.21C320.017 1812.15 317.628 1813.89 317.628 1813.89C327.92 1825.65 335.153 1867.7 339.296 1899.49C339.628 1904.75 340.471 1912.17 341.991 1922.33C342.491 1927.04 342.862 1930.87 343.105 1933.48C344.225 1954.02 340.785 1977.34 335.364 2000H355.936C362.483 1948.97 352.447 1910.82 352.405 1910.66L352.408 1910.66C338.356 1828.76 360.439 1768.9 360.439 1768.9V1768.9C360.79 1768.83 518.861 1738.87 490.694 1616.74Z" fill="#E1EEFB"/>
<path d="M1812.44 1475.49C1785.33 1375.36 1616.36 1406.65 1616.36 1406.65C1616.36 1406.65 1501.63 1581.88 1468.25 1586.05C1434.88 1590.22 1537.09 1417.08 1537.09 1417.08C1472.42 1410.82 1307.63 1490.09 1307.63 1490.09C1307.63 1490.09 1318.06 1694.52 1284.68 1690.35C1251.31 1686.18 1284.68 1508.87 1284.68 1508.87C1222.1 1527.64 1163.7 1600.65 1163.7 1600.65C1090.68 1719.55 1247.14 1807.17 1247.14 1807.17C1247.14 1807.17 1249.22 1878.09 1205.42 1959.45L1205.41 1959.45C1205.41 1959.45 1195.53 1974.47 1185.48 2000H1202.54C1203.93 1995.43 1205.47 1991 1207.17 1986.76C1207.17 1986.73 1207.18 1986.7 1207.2 1986.68C1207.22 1986.62 1207.25 1986.56 1207.28 1986.5C1208.44 1983.86 1210.12 1980.11 1212.22 1975.54L1212.23 1975.52C1212.23 1975.51 1212.24 1975.51 1212.24 1975.5C1217.45 1965.3 1220.97 1957.76 1223.2 1952.32C1223.21 1952.3 1223.21 1952.28 1223.22 1952.27C1238.83 1920.24 1261.33 1878.5 1276.34 1869.75C1276.34 1869.75 1274.45 1867.09 1272.69 1861.92C1273.85 1864.42 1275.07 1867.02 1276.34 1869.75C1305.54 1932.33 1451.57 1942.76 1532.92 1926.07C1614.27 1909.38 1578.81 1886.43 1535 1849.19C1491.2 1811.95 1399.41 1821.77 1372.3 1807.17C1345.18 1792.56 1384.81 1777.96 1439.05 1782.13C1493.28 1786.31 1520.4 1840.54 1608.02 1848.89C1695.63 1857.23 1762.38 1692.44 1762.38 1692.44C1701.89 1711.21 1593.41 1677.83 1589.24 1656.97C1585.07 1636.11 1745.69 1638.2 1770.72 1631.94C1795.76 1625.69 1839.56 1575.62 1812.44 1475.49Z" fill="#DFEBFD"/>
</g>
<defs>
<clipPath id="clip0_138_75">
<rect width="2000" height="2000" fill="white"/>
</clipPath>
</defs>
</svg>
