<svg width="26" height="26" viewBox="0 0 26 26" fill="none" xmlns="http://www.w3.org/2000/svg">
<g id="Iconly/Light-Outline/Profile">
<g id="Iconly/Light-Outline/Profile_2">
<g id="Profile">
<g id="Group 3">
<mask id="mask0_22_14" style="mask-type:luminance" maskUnits="userSpaceOnUse" x="0" y="15" width="18" height="9">
<path id="Clip 2" fill-rule="evenodd" clip-rule="evenodd" d="M0 15.5373H17.1599V23.5258H0V15.5373Z" fill="white"/>
</mask>
<g mask="url(#mask0_22_14)">
<path id="Fill 1" fill-rule="evenodd" clip-rule="evenodd" d="M8.58098 17.1623C3.9649 17.1623 1.6249 17.9553 1.6249 19.5208C1.6249 21.1003 3.9649 21.9008 8.58098 21.9008C13.196 21.9008 15.5349 21.1078 15.5349 19.5424C15.5349 17.9629 13.196 17.1623 8.58098 17.1623ZM8.58098 23.5258C6.45873 23.5258 -9.91821e-05 23.5258 -9.91821e-05 19.5208C-9.91821e-05 15.9501 4.89765 15.5373 8.58098 15.5373C10.7032 15.5373 17.1599 15.5373 17.1599 19.5424C17.1599 23.1131 12.2632 23.5258 8.58098 23.5258Z" fill="#0F6990"/>
</g>
</g>
<g id="Group 6">
<mask id="mask1_22_14" style="mask-type:luminance" maskUnits="userSpaceOnUse" x="2" y="2" width="13" height="12">
<path id="Clip 5" fill-rule="evenodd" clip-rule="evenodd" d="M2.82737 2H14.3324V13.5035H2.82737V2Z" fill="white"/>
</mask>
<g mask="url(#mask1_22_14)">
<path id="Fill 4" fill-rule="evenodd" clip-rule="evenodd" d="M8.58099 3.54658C6.26157 3.54658 4.3744 5.43266 4.3744 7.75208C4.36682 10.0639 6.2399 11.9489 8.54957 11.9576L8.58099 12.7311V11.9576C10.8993 11.9576 12.7854 10.0704 12.7854 7.75208C12.7854 5.43266 10.8993 3.54658 8.58099 3.54658ZM8.58099 13.5035H8.54632C5.38082 13.4938 2.81657 10.9122 2.8274 7.74885C2.8274 4.5801 5.4079 1.9996 8.58099 1.9996C11.753 1.9996 14.3324 4.5801 14.3324 7.7521C14.3324 10.9241 11.753 13.5035 8.58099 13.5035Z" fill="#0F6990"/>
</g>
</g>
</g>
</g>
</g>
</svg>
