<svg width="24" height="24" viewBox="0 0 24 24" fill="none" xmlns="http://www.w3.org/2000/svg">
<mask id="mask0_16_3" style="mask-type:luminance" maskUnits="userSpaceOnUse" x="0" y="15" width="24" height="10">
<path fill-rule="evenodd" clip-rule="evenodd" d="M0 15.0934H24V24.0001H0V15.0934Z" fill="white"/>
</mask>
<g mask="url(#mask0_16_3)">
<path fill-rule="evenodd" clip-rule="evenodd" d="M12.0014 16.9052C5.54533 16.9052 2.27258 17.7893 2.27258 19.5347C2.27258 21.2957 5.54533 22.1883 12.0014 22.1883C18.456 22.1883 21.7273 21.3042 21.7273 19.5588C21.7273 17.7978 18.456 16.9052 12.0014 16.9052M12.0015 24.0001C9.03328 24.0001 -0.000106812 24.0001 -0.000106812 19.5347C-0.000106812 15.5536 6.84994 15.0934 12.0015 15.0934C14.9697 15.0934 24 15.0934 24 19.5588C24 23.5399 17.1515 24.0001 12.0015 24.0001" fill="#0F6990"/>
</g>
<mask id="mask1_16_3" style="mask-type:luminance" maskUnits="userSpaceOnUse" x="3" y="0" width="18" height="13">
<path fill-rule="evenodd" clip-rule="evenodd" d="M3.95436 0.000100136H20.0454V12.8258H3.95436V0.000100136Z" fill="white"/>
</mask>
<g mask="url(#mask1_16_3)">
<path fill-rule="evenodd" clip-rule="evenodd" d="M12.0014 1.72443C8.75747 1.72443 6.11806 3.8273 6.11806 6.41331C6.10745 8.99086 8.72717 11.0925 11.9575 11.1022L12.0014 11.9646V11.1022C15.2439 11.1022 17.8818 8.99811 17.8818 6.41331C17.8818 3.8273 15.2439 1.72443 12.0014 1.72443M12.0014 12.8259H11.9529C7.52564 12.815 3.93926 9.93669 3.95441 6.40977C3.95441 2.8768 7.56352 -0.000299931 12.0014 -0.000299931C16.4378 -0.000299931 20.0454 2.8768 20.0454 6.41339C20.0454 9.94998 16.4378 12.8259 12.0014 12.8259" fill="#0F6990"/>
</g>
</svg>
