<svg width="26" height="26" viewBox="0 0 26 26" fill="none" xmlns="http://www.w3.org/2000/svg">
<g id="Iconly/Light-Outline/Profile">
<g id="Iconly/Light-Outline/Profile_2">
<g id="Profile">
<g id="Group 3">
<mask id="mask0_22_14" style="mask-type:luminance" maskUnits="userSpaceOnUse" x="2" y="15" width="18" height="9">
<path id="Clip 2" fill-rule="evenodd" clip-rule="evenodd" d="M2 15.5373H19.1599V23.5258H2V15.5373Z" fill="white"/>
</mask>
<g mask="url(#mask0_22_14)">
<path id="Fill 1" fill-rule="evenodd" clip-rule="evenodd" d="M10.581 17.1623C5.9649 17.1623 3.6249 17.9553 3.6249 19.5208C3.6249 21.1003 5.9649 21.9008 10.581 21.9008C15.196 21.9008 17.5349 21.1078 17.5349 19.5424C17.5349 17.9629 15.196 17.1623 10.581 17.1623M10.581 23.5258C8.45873 23.5258 1.9999 23.5258 1.9999 19.5208C1.9999 15.9501 6.89765 15.5373 10.581 15.5373C12.7032 15.5373 19.1599 15.5373 19.1599 19.5424C19.1599 23.1131 14.2632 23.5258 10.581 23.5258" fill="#0F6990"/>
</g>
</g>
<g id="Group 6">
<mask id="mask1_22_14" style="mask-type:luminance" maskUnits="userSpaceOnUse" x="4" y="2" width="13" height="12">
<path id="Clip 5" fill-rule="evenodd" clip-rule="evenodd" d="M4.82737 2H16.3324V13.5035H4.82737V2Z" fill="white"/>
</mask>
<g mask="url(#mask1_22_14)">
<path id="Fill 4" fill-rule="evenodd" clip-rule="evenodd" d="M10.581 3.54658C8.26157 3.54658 6.3744 5.43266 6.3744 7.75208C6.36682 10.0639 8.2399 11.9489 10.5496 11.9576L10.581 12.7311V11.9576C12.8993 11.9576 14.7854 10.0704 14.7854 7.75208C14.7854 5.43266 12.8993 3.54658 10.581 3.54658M10.581 13.5035H10.5463C7.38082 13.4938 4.81657 10.9122 4.8274 7.74885C4.8274 4.5801 7.4079 1.9996 10.581 1.9996C13.753 1.9996 16.3324 4.5801 16.3324 7.7521C16.3324 10.9241 13.753 13.5035 10.581 13.5035" fill="#0F6990"/>
</g>
</g>
</g>
</g>
</g>
</svg>
