<svg width="21" height="21" viewBox="0 0 21 21" fill="none" xmlns="http://www.w3.org/2000/svg">
<mask id="mask0_16_3" style="mask-type:luminance" maskUnits="userSpaceOnUse" x="12" y="0" width="9" height="9">
<path fill-rule="evenodd" clip-rule="evenodd" d="M12.354 0.000305176H20.893V8.53312H12.354V0.000305176Z" fill="white"/>
</mask>
<g mask="url(#mask0_16_3)">
<path fill-rule="evenodd" clip-rule="evenodd" d="M20.1427 8.53312C19.7657 8.53312 19.4417 8.25012 19.3987 7.86712C19.0197 4.49112 16.3977 1.87112 13.0207 1.49612C12.6097 1.45012 12.3127 1.08012 12.3587 0.668119C12.4037 0.257119 12.7707 -0.0458812 13.1867 0.0061188C17.2647 0.459119 20.4317 3.62212 20.8887 7.69912C20.9347 8.11112 20.6387 8.48212 20.2277 8.52812C20.1997 8.53112 20.1707 8.53312 20.1427 8.53312" fill="#0F6990"/>
</g>
<path fill-rule="evenodd" clip-rule="evenodd" d="M16.6026 8.54391C16.2506 8.54391 15.9376 8.29591 15.8676 7.93791C15.5796 6.45791 14.4386 5.31691 12.9606 5.02991C12.5536 4.95091 12.2886 4.55791 12.3676 4.15091C12.4466 3.74391 12.8466 3.47791 13.2466 3.55791C15.3276 3.96191 16.9346 5.56791 17.3396 7.64991C17.4186 8.05791 17.1536 8.45091 16.7476 8.52991C16.6986 8.53891 16.6506 8.54391 16.6026 8.54391" fill="#0F6990"/>
<mask id="mask1_16_3" style="mask-type:luminance" maskUnits="userSpaceOnUse" x="0" y="0" width="21" height="21">
<path fill-rule="evenodd" clip-rule="evenodd" d="M0.000427246 -9.15527e-05H20.5007V20.5004H0.000427246V-9.15527e-05Z" fill="white"/>
</mask>
<g mask="url(#mask1_16_3)">
<path fill-rule="evenodd" clip-rule="evenodd" d="M2.35951 3.06142C2.36151 3.06142 2.31151 3.11342 2.24851 3.17542C2.00651 3.41042 1.50551 3.89942 1.50051 4.92242C1.49251 6.35342 2.43351 9.01042 6.96451 13.5404C11.4735 18.0484 14.1265 19.0004 15.5615 19.0004H15.5825C16.6055 18.9944 17.0935 18.4934 17.3285 18.2524C17.3995 18.1794 17.4575 18.1244 17.4985 18.0914C18.4955 17.0884 19.0055 16.3434 19.0005 15.8644C18.9945 15.3764 18.3875 14.8004 17.5485 14.0014C17.2815 13.7484 16.9915 13.4714 16.6855 13.1654C15.8915 12.3744 15.5005 12.5094 14.6355 12.8134C13.4405 13.2324 11.8035 13.8064 9.25251 11.2534C6.70051 8.70242 7.27251 7.06542 7.68951 5.86942C7.99151 5.00542 8.12951 4.61242 7.33651 3.81842C7.02651 3.50842 6.74751 3.21442 6.49051 2.94442C5.69651 2.11042 5.12351 1.50742 4.63851 1.50042H4.63051C4.15151 1.50042 3.40751 2.01242 2.35451 3.06542C2.35751 3.06242 2.35851 3.06142 2.35951 3.06142V3.06142ZM15.5615 20.5004C13.0695 20.5004 9.82051 18.5164 5.90451 14.6014C1.97251 10.6704 -0.0144885 7.41142 0.00051154 4.91442C0.00951154 3.26442 0.874512 2.41942 1.19951 2.10242C1.21651 2.08142 1.27451 2.02442 1.29451 2.00442C2.72951 0.569418 3.71551 -0.0205819 4.65751 0.000418074C5.77451 0.0154181 6.57051 0.852418 7.57751 1.91142C7.82651 2.17242 8.09551 2.45742 8.39651 2.75742C9.85551 4.21742 9.44051 5.40842 9.10551 6.36442C8.74151 7.40742 8.42651 8.30742 10.3125 10.1934C12.1985 12.0794 13.0975 11.7644 14.1395 11.3974C15.0965 11.0634 16.2845 10.6454 17.7465 12.1054C18.0435 12.4024 18.3235 12.6684 18.5835 12.9154C19.6465 13.9274 20.4865 14.7264 20.5005 15.8464C20.5115 16.8004 19.9315 17.7744 18.4995 19.2064L17.8655 18.7764L18.4025 19.2994C18.0855 19.6244 17.2425 20.4904 15.5915 20.5004H15.5615Z" fill="#0F6990"/>
</g>
</svg>
