<svg width="496" height="475" viewBox="0 0 496 475" fill="none" xmlns="http://www.w3.org/2000/svg">
<path d="M495.858 237.422C495.858 262.592 464.341 282.474 456.967 305.185C449.324 328.725 462.87 363.284 448.611 382.877C434.209 402.665 397.06 400.392 377.27 414.794C357.677 429.053 348.44 465.165 324.901 472.809C302.189 480.183 273.592 456.637 248.422 456.637C223.252 456.637 194.655 480.183 171.943 472.809C148.404 465.165 139.166 429.053 119.573 414.794C99.7846 400.392 62.6346 402.666 48.2327 382.877C33.9733 363.284 47.5196 328.725 39.8771 305.186C32.5027 282.474 0.98584 262.592 0.98584 237.422C0.98584 212.252 32.5027 192.37 39.8771 169.658C47.5202 146.119 33.974 111.56 48.2333 91.9672C62.6352 72.1785 99.7846 74.4523 119.574 60.051C139.167 45.7917 148.405 9.67917 171.943 2.03605C194.655 -5.33833 223.252 18.2072 248.422 18.2072C273.592 18.2072 302.189 -5.33833 324.901 2.03605C348.44 9.67917 357.678 45.7917 377.271 60.051C397.06 74.4529 434.21 72.1785 448.612 91.9679C462.871 111.561 449.325 146.12 456.967 169.659C464.341 192.37 495.858 212.252 495.858 237.422Z" fill="#4CAF50"/>
<path d="M211.453 353.828L123.07 273.51L155.174 238.182L206.289 284.632L326.424 137.33L363.418 167.502L211.453 353.828Z" fill="white"/>
</svg>
